<svg id="Address" xmlns="http://www.w3.org/2000/svg" width="50.335" height="64.604" viewBox="0 0 50.335 64.604">
  <path id="Path_11491" data-name="Path 11491" d="M35.506,60.114c.935,0,3.937-1.247,8.231-5.218,6.823-6.28,14.789-17.317,14.789-27.707a23.159,23.159,0,1,0-46.318,0C12.209,43.513,31.223,59.768,35.506,60.114Zm-.139-46.722A11.037,11.037,0,1,1,24.331,24.43,11.037,11.037,0,0,1,35.368,13.393ZM60.535,62.285c0,2.159-8.878,6.35-25.168,6.35S10.2,64.444,10.2,62.285c0-1.443,4.156-4.121,13.415-5.507a1.547,1.547,0,0,0,.462-.15c4.341,4.1,8.589,6.731,11.152,6.927h.323c3.463,0,8.508-4.26,10.54-6.13.254-.231.508-.485.762-.739a2.309,2.309,0,0,0,.266.069C56.379,58.163,60.535,60.842,60.535,62.285Z" transform="translate(-10.2 -4.03)" fill="#3a9e7f"/>
</svg>
