<svg id="_001-chicken" data-name="001-chicken" xmlns="http://www.w3.org/2000/svg" width="96.256" height="93.039" viewBox="0 0 96.256 93.039">
  <path id="Path_10756" data-name="Path 10756" d="M5.377,86.423a1.6,1.6,0,0,0,1.436.887H93.435a1.6,1.6,0,0,0,1.444-.887l3.208-6.416a1.6,1.6,0,0,0-1.444-2.321h-9.4a34.365,34.365,0,0,0,3.909-2.1A11.728,11.728,0,0,0,95.2,71.346a11.9,11.9,0,0,0,1.444-5.659,11.63,11.63,0,0,0-7.979-11.068L81.109,52.1c-.16-.055-.321-.115-.481-.172a14.482,14.482,0,0,0-.035-12.342L83.6,36.575a6.416,6.416,0,0,0,7.8-10.051,6.267,6.267,0,0,0-2.887-1.665,6.238,6.238,0,0,0-1.659-2.887A6.416,6.416,0,0,0,76.8,29.764L73.788,32.77a14.4,14.4,0,0,0-16.421,2.814l-.715.714a25.226,25.226,0,0,0-29.495-5.08l-6.814,3.415a24.453,24.453,0,0,0-1.349,43.053H3.6a1.6,1.6,0,0,0-1.436,2.321ZM80.052,31.049a1.6,1.6,0,0,0,0-2.268,3.208,3.208,0,0,1,0-4.532,3.266,3.266,0,0,1,4.543.011,3.154,3.154,0,0,1,.918,2.085,1.6,1.6,0,0,0,1.511,1.509,3.168,3.168,0,0,1,2.1.929,3.208,3.208,0,1,1-4.532,4.533,1.6,1.6,0,0,0-2.268,0L78.85,36.788a13.656,13.656,0,0,0-2.271-2.27ZM67.575,34.568a11.229,11.229,0,0,1,7.94,19.169l-4.538,4.538A11.229,11.229,0,0,1,55.1,42.395l4.536-4.536a11.157,11.157,0,0,1,7.942-3.29ZM22.5,75.906a21.279,21.279,0,0,1-.717-38.4L28.6,34.092a22.034,22.034,0,0,1,25.794,4.477l-1.556,1.558A14.435,14.435,0,1,0,73.248,60.545l4.536-4.539a14.249,14.249,0,0,0,1.123-1.283c.395.14.784.284,1.187.417l7.552,2.52a8.418,8.418,0,0,1,5.788,8.021,8.662,8.662,0,0,1-1.046,4.108,8.5,8.5,0,0,1-2.934,3.067,31.6,31.6,0,0,1-16.808,4.83H30.714a20.051,20.051,0,0,1-8.221-1.779Zm8.215,4.987H94.048l-1.6,3.208H7.8L6.2,80.894Z" transform="translate(-2 5.729)"/>
  <path id="Path_10757" data-name="Path 10757" d="M11,37h3.208v3.208H11Z" transform="translate(3.438 15.936)"/>
  <path id="Path_10758" data-name="Path 10758" d="M18,41h3.208v3.208H18Z" transform="translate(7.667 18.353)"/>
  <path id="Path_10759" data-name="Path 10759" d="M40,42h3.208v3.208H40Z" transform="translate(20.957 18.957)"/>
  <path id="Path_10760" data-name="Path 10760" d="M36,38h3.208v3.208H36Z" transform="translate(18.541 16.54)"/>
  <path id="Path_10761" data-name="Path 10761" d="M48,51h3.208v3.208H48Z" transform="translate(25.79 24.394)"/>
  <path id="Path_10762" data-name="Path 10762" d="M53,48h3.208v3.208H53Z" transform="translate(28.811 22.581)"/>
  <path id="Path_10763" data-name="Path 10763" d="M16,32h3.208v3.208H16Z" transform="translate(6.458 12.915)"/>
  <path id="Path_10764" data-name="Path 10764" d="M10,44h3.208v3.208H10Z" transform="translate(2.834 20.165)"/>
  <path id="Path_10765" data-name="Path 10765" d="M60.332,37.687H63.54a9.634,9.634,0,0,0-9.625-9.625H23.437a2.406,2.406,0,0,1,0-4.812H51.509a5.614,5.614,0,0,0,0-11.229H28.249A6.416,6.416,0,0,1,21.833,5.6H18.625a9.575,9.575,0,0,0,2.47,6.416h-.866A8.03,8.03,0,0,1,12.208,4H9A11.242,11.242,0,0,0,20.229,15.229h31.28a2.406,2.406,0,0,1,0,4.812H23.437a5.614,5.614,0,0,0,0,11.229H44.291a6.416,6.416,0,0,1,6.416,6.416h3.208a9.575,9.575,0,0,0-2.47-6.416h2.47A6.416,6.416,0,0,1,60.332,37.687Z" transform="translate(2.23 -4)"/>
</svg>
