<svg id="_002-salad" data-name="002-salad" xmlns="http://www.w3.org/2000/svg" width="92.839" height="86.623" viewBox="0 0 92.839 86.623">
  <path id="Path_10766" data-name="Path 10766" d="M42.965,21.324a11.261,11.261,0,0,0-5.271-2.477,19.112,19.112,0,0,1-2.369-.74A17.345,17.345,0,0,1,33.24,17a11.089,11.089,0,0,0-5.584-2.012A11.094,11.094,0,0,0,22.07,17a17.385,17.385,0,0,1-2.085,1.11,19.165,19.165,0,0,1-2.366.738,11.261,11.261,0,0,0-5.281,2.486,11.239,11.239,0,0,0-2.477,5.271,19.227,19.227,0,0,1-.74,2.371,17.763,17.763,0,0,1-1.107,2.085A11.068,11.068,0,0,0,6,36.644a11.068,11.068,0,0,0,2.013,5.587A17.645,17.645,0,0,1,9.12,44.316a19.57,19.57,0,0,1,.73,2.347c.037.135.079.271.115.407H9.208a1.6,1.6,0,0,0-1.591,1.8l2.624,20.99A21.617,21.617,0,0,0,28.458,88.516V93.59a1.6,1.6,0,0,0,1.6,1.6H65.352a1.6,1.6,0,0,0,1.6-1.6V88.516A21.617,21.617,0,0,0,85.173,69.863L87.8,48.873a1.566,1.566,0,0,0-.091-.73,17.806,17.806,0,0,0,1.683-3.46c.31-.776.6-1.511.927-2.137a21,21,0,0,1,1.145-1.814,12.878,12.878,0,0,0,2.369-4.939,12.886,12.886,0,0,0-.457-5.412,19.771,19.771,0,0,1-.427-2.13,23.342,23.342,0,0,1-.114-2.361,12.23,12.23,0,0,0-.842-5.245A7.753,7.753,0,0,0,88.5,17.426a10.747,10.747,0,0,1-1.476-.962,11.882,11.882,0,0,1-1.218-1.251A7.329,7.329,0,0,0,81.825,12.4a7.247,7.247,0,0,0-4.735,1.216,11.674,11.674,0,0,1-1.6.751,10.6,10.6,0,0,1-1.7.364,7.767,7.767,0,0,0-4.4,1.765,5.953,5.953,0,0,0-.584.669,8.28,8.28,0,0,1-1.022-.69,11.882,11.882,0,0,1-1.218-1.251A7.329,7.329,0,0,0,62.579,12.4a7.247,7.247,0,0,0-4.735,1.216,11.674,11.674,0,0,1-1.6.751,10.6,10.6,0,0,1-1.7.364,7.767,7.767,0,0,0-4.4,1.765,12.243,12.243,0,0,0-2.655,4.629,22.914,22.914,0,0,1-.934,2.154,19.327,19.327,0,0,1-1.157,1.838c-.082.119-.16.249-.247.371a9.45,9.45,0,0,0-2.18-4.166Zm-30.013,24.5a22.536,22.536,0,0,0-.865-2.727,19.936,19.936,0,0,0-1.309-2.488,8.486,8.486,0,0,1-1.57-3.965,8.486,8.486,0,0,1,1.57-3.961A19.989,19.989,0,0,0,12.086,30.2a21.8,21.8,0,0,0,.873-2.767A8.718,8.718,0,0,1,14.6,23.6a8.694,8.694,0,0,1,3.842-1.655,21.8,21.8,0,0,0,2.761-.863A19.946,19.946,0,0,0,23.7,19.773,8.481,8.481,0,0,1,27.656,18.2a8.481,8.481,0,0,1,3.961,1.569A19.906,19.906,0,0,0,34.1,21.074a21.761,21.761,0,0,0,2.764.873A8.709,8.709,0,0,1,40.7,23.593a8.7,8.7,0,0,1,1.655,3.84,24.264,24.264,0,0,0,.738,2.384c-.014.069-.043.132-.056.2a12.212,12.212,0,0,0,.379,5.077,11.288,11.288,0,0,0-5.205,4.41,12.833,12.833,0,0,0-24.187,5.961,12.974,12.974,0,0,0,.115,1.6h-.831c-.122-.4-.236-.815-.353-1.246Zm55.608-9.982a9.572,9.572,0,0,1,9.48,11.229H74.748a6.416,6.416,0,1,0-12.374,0H59.08a9.572,9.572,0,0,1,9.48-11.229ZM65.792,47.07a3.175,3.175,0,0,1-.44-1.6,3.208,3.208,0,1,1,6.416,0,3.175,3.175,0,0,1-.44,1.6Zm-10.064-1.6a7.743,7.743,0,0,1-.183,1.6H49.311v-.613l2.321-1.16L50.2,42.427l-2.491,1.246-2.491-1.246L43.782,45.3l2.321,1.16v.613H39.869a7.743,7.743,0,0,1-.183-1.6,8.021,8.021,0,1,1,16.041,0Zm-31.643,1.6a3.175,3.175,0,0,1-.44-1.6,3.208,3.208,0,1,1,6.416,0,3.175,3.175,0,0,1-.44,1.6Zm2.769-8.021a6.33,6.33,0,0,0-6.187,8.021H17.373a9.625,9.625,0,1,1,18.961,0H33.041a6.33,6.33,0,0,0-6.187-8.021ZM63.748,91.986H31.666V88.778H63.748ZM81.99,69.466a18.412,18.412,0,0,1-18.242,16.1H31.666a18.412,18.412,0,0,1-18.242-16.1l-2.4-19.187H84.389ZM74.291,17.9a13.105,13.105,0,0,0,2.225-.492,14.277,14.277,0,0,0,2.073-.951,5.014,5.014,0,0,1,2.653-.9c.688.125,1.444.974,2.172,1.793a13.939,13.939,0,0,0,1.582,1.6A13.08,13.08,0,0,0,86.9,20.208a5.066,5.066,0,0,1,2.218,1.866,10.152,10.152,0,0,1,.508,3.872,25.665,25.665,0,0,0,.138,2.7,22.779,22.779,0,0,0,.481,2.482,10.106,10.106,0,0,1,.423,4.1,10.091,10.091,0,0,1-1.864,3.71,22.533,22.533,0,0,0-1.33,2.121A25.886,25.886,0,0,0,86.4,43.5a10.221,10.221,0,0,1-1.853,3.455c-.047.043-.111.077-.16.117H81.28a12.972,12.972,0,0,0,.114-1.607,12.742,12.742,0,0,0-2.592-7.7l.422-2.3L86.142,30.7l-1.824-2.64-4.277,2.953,1.453-7.936L78.346,22.5l-1.457,7.939-2.955-4.285-2.647,1.822L76.066,34.9l-.029.16a12.644,12.644,0,0,0-10.525-2.042,6.752,6.752,0,0,1-.069-2.422,10.018,10.018,0,0,1,1.848-3.675,22,22,0,0,0,1.346-2.156A25.344,25.344,0,0,0,69.712,22.3a10.21,10.21,0,0,1,1.846-3.455,5.069,5.069,0,0,1,2.727-.946ZM48.039,26.918a22,22,0,0,0,1.346-2.156A25.345,25.345,0,0,0,50.46,22.3a10.21,10.21,0,0,1,1.846-3.455,5.069,5.069,0,0,1,2.727-.946,13.106,13.106,0,0,0,2.225-.492,14.277,14.277,0,0,0,2.073-.951,5.031,5.031,0,0,1,2.653-.9c.688.125,1.444.974,2.172,1.793a14.057,14.057,0,0,0,1.58,1.6,10.921,10.921,0,0,0,1.466.993c-.16.391-.321.786-.481,1.177a22.912,22.912,0,0,1-.934,2.154,19.329,19.329,0,0,1-1.157,1.838,12.811,12.811,0,0,0-2.352,4.9,10.587,10.587,0,0,0,.175,4.171,12.873,12.873,0,0,0-2.61,1.891l2.364-12.993-3.155-.574-1.312,7.236-2.964-4.294-2.64,1.821,4.792,6.944-.719,3.937A11.169,11.169,0,0,0,46.52,34.3a9.182,9.182,0,0,1-.33-3.709,10.018,10.018,0,0,1,1.85-3.677Z" transform="translate(-1.096 -8.571)"/>
  <path id="Path_10767" data-name="Path 10767" d="M10.85,20.513a14.039,14.039,0,0,1,6.758-3.341,17.666,17.666,0,0,0,1.939-.594,15.662,15.662,0,0,0,1.691-.914,13.86,13.86,0,0,1,7.219-2.456,13.85,13.85,0,0,1,7.219,2.456,16.056,16.056,0,0,0,1.671.9,17.79,17.79,0,0,0,1.981.608,22.052,22.052,0,0,1,3.689,1.242l1.354-2.908a25.007,25.007,0,0,0-4.238-1.444,15.79,15.79,0,0,1-1.569-.47c-.239-.1-.833-.448-1.267-.7A17,17,0,0,0,28.457,10a17,17,0,0,0-8.844,2.9c-.457.271-1.027.606-1.283.714-.321.13-.94.3-1.562.465a17.148,17.148,0,0,0-8.181,4.171,16.041,16.041,0,0,0-3.914,7.368l3.093.857a12.888,12.888,0,0,1,3.085-5.959Z" transform="translate(-1.898 -10)"/>
  <path id="Path_10768" data-name="Path 10768" d="M7.091,23.906c.16-.281.335-.569.481-.831l-2.8-1.562c-.133.237-.287.5-.465.8-.427.725-.908,1.548-1.364,2.5l2.9,1.38c.4-.829.837-1.59,1.25-2.289Z" transform="translate(-2.943 -3.045)"/>
  <path id="Path_10769" data-name="Path 10769" d="M39,54h3.208v3.208H39Z" transform="translate(18.84 16.581)"/>
  <path id="Path_10770" data-name="Path 10770" d="M56.528,51.239l1.123-8.965-3.189-.4-1.123,8.965a11.944,11.944,0,0,1-10.46,10.4l.379,3.186A15.149,15.149,0,0,0,56.528,51.239Z" transform="translate(21.183 9.257)"/>
</svg>
