<svg xmlns="http://www.w3.org/2000/svg" width="93.048" height="93.039" viewBox="0 0 93.048 93.039">
  <g id="tea" transform="translate(-2 -2)">
    <path id="Path_11242" data-name="Path 11242" d="M9.754,62.317h4.652v6.2a9.256,9.256,0,0,0,2.388,6.2H3.551a1.551,1.551,0,0,0-1.388,2.244l3.1,6.2a1.551,1.551,0,0,0,1.388.858H90.387a1.551,1.551,0,0,0,1.4-.858l3.1-6.2a1.551,1.551,0,0,0-1.4-2.244H87.975a6.139,6.139,0,0,0,.862-3.1v-6.2a6.187,6.187,0,0,0-5.55-6.136,6.148,6.148,0,0,0,.9-3.168v-6.2a6.2,6.2,0,0,0-6.2-6.2h-9.3a6.162,6.162,0,0,0-4.652,2.143,6.162,6.162,0,0,0-4.652-2.143h-9.3a6.2,6.2,0,0,0-6.2,6.2v6.2a6.139,6.139,0,0,0,.862,3.1H36.115a6.2,6.2,0,0,0-6.2,6.2v6.2a6.139,6.139,0,0,0,.862,3.1H23.709a6.2,6.2,0,0,1-6.2-6.2V25.1H28.361v7.111l-5.748,5.748a1.551,1.551,0,0,0-.454,1.1v9.3a1.551,1.551,0,0,0,1.551,1.551H36.115a1.551,1.551,0,0,0,1.551-1.551v-9.3a1.55,1.55,0,0,0-.454-1.1l-5.748-5.749V25.1H67.128V40.608h3.1V23.551A1.551,1.551,0,0,0,68.678,22H15.956a1.551,1.551,0,0,0-1.551,1.551V31.3H9.754A7.763,7.763,0,0,0,2,39.057V54.564a7.763,7.763,0,0,0,7.753,7.753Zm37.216-7.753H62.476v1.551a3.1,3.1,0,0,1-3.1,3.1h-9.3a3.1,3.1,0,0,1-3.1-3.1Zm31.013,4.652h-9.3a3.1,3.1,0,0,1-3.1-3.1V54.564H81.083v1.551A3.1,3.1,0,0,1,77.982,59.216Zm-23.26,3.1h9.3a3.1,3.1,0,0,1,3.1,3.1v1.551H51.621V65.418A3.1,3.1,0,0,1,54.722,62.317Zm-3.1,9.3V70.07H67.128v1.551a3.1,3.1,0,0,1-3.1,3.1h-9.3A3.1,3.1,0,0,1,51.621,71.621Zm18.608,0V70.07H85.735v1.551a3.1,3.1,0,0,1-3.1,3.1h-9.3A3.1,3.1,0,0,1,70.229,71.621Zm15.507-6.2v1.551H70.229V65.418a3.1,3.1,0,0,1,3.1-3.1h9.3A3.1,3.1,0,0,1,85.735,65.418ZM68.678,46.81h9.3a3.1,3.1,0,0,1,3.1,3.1v1.551H65.577V49.912A3.1,3.1,0,0,1,68.678,46.81Zm-18.608,0h9.3a3.1,3.1,0,0,1,3.1,3.1v1.551H46.969V49.912A3.1,3.1,0,0,1,50.07,46.81ZM36.115,62.317h9.3a3.1,3.1,0,0,1,3.1,3.1v1.551H33.013V65.418A3.1,3.1,0,0,1,36.115,62.317Zm-3.1,9.3V70.07H48.52v1.551a3.1,3.1,0,0,1-3.1,3.1h-9.3A3.1,3.1,0,0,1,33.013,71.621Zm-3.1,6.2H90.98l-1.551,3.1H7.611l-1.551-3.1ZM34.564,46.81h-9.3V39.7l4.652-4.652L34.564,39.7ZM5.1,39.057a4.652,4.652,0,0,1,4.652-4.652h4.652v24.81H9.754A4.652,4.652,0,0,1,5.1,54.564Z" transform="translate(0 11.013)"/>
    <path id="Path_11243" data-name="Path 11243" d="M33.282,8.2H63.52a6.2,6.2,0,0,0,6.2-6.2h-3.1a3.1,3.1,0,0,1-3.1,3.1H33.282a5.427,5.427,0,0,0,0,10.855h24.81a2.326,2.326,0,1,1,0,4.652H26.3a9.313,9.313,0,0,0-9.3,9.3h3.1a6.2,6.2,0,0,1,6.2-6.2h8.591a9.256,9.256,0,0,0-2.388,6.2h3.1a6.2,6.2,0,0,1,6.2-6.2H58.092a5.427,5.427,0,0,0,0-10.855H33.282a2.326,2.326,0,1,1,0-4.652Z" transform="translate(8.26 0)"/>
  </g>
</svg>
