<svg xmlns="http://www.w3.org/2000/svg" width="172.147" height="171.068" viewBox="0 0 172.147 171.068">
  <g id="Group_9386" data-name="Group 9386" transform="translate(-353.595 -1792.456)">
    <ellipse id="Ellipse_10" data-name="Ellipse 10" cx="7.202" cy="2.986" rx="7.202" ry="2.986" transform="translate(423.332 1887.99)" fill="#e4d45d"/>
    <ellipse id="Ellipse_11" data-name="Ellipse 11" cx="7.202" cy="2.986" rx="7.202" ry="2.986" transform="translate(438.439 1877.45)" fill="#e4d45d"/>
    <ellipse id="Ellipse_12" data-name="Ellipse 12" cx="5.27" cy="2.284" rx="5.27" ry="2.284" transform="translate(391.362 1883.423)" fill="#e4d45d"/>
    <ellipse id="Ellipse_13" data-name="Ellipse 13" cx="5.27" cy="2.284" rx="5.27" ry="2.284" transform="translate(412.793 1878.153)" fill="#e4d45d"/>
    <ellipse id="Ellipse_14" data-name="Ellipse 14" cx="5.27" cy="2.284" rx="5.27" ry="2.284" transform="translate(466.369 1881.139)" fill="#e4d45d"/>
    <ellipse id="Ellipse_15" data-name="Ellipse 15" cx="5.27" cy="2.284" rx="5.27" ry="2.284" transform="translate(452.316 1888.692)" fill="#e4d45d"/>
    <path id="Path_10445" data-name="Path 10445" d="M33.782,48.407a2.968,2.968,0,0,0,1.757.527A2.8,2.8,0,0,0,38,47.529a3.215,3.215,0,0,0-.7-4.216c-1.581-1.054-5.621-4.743-5.445-8.432,0-2.459,1.932-4.918,5.445-7.2,6.324-4.216,9.661-8.783,9.837-13.526.351-5.8-4.216-9.486-4.392-9.661a2.9,2.9,0,0,0-4.216.527,2.9,2.9,0,0,0,.527,4.216A6.175,6.175,0,0,1,41.159,13.8c-.176,2.811-2.635,5.8-7.2,8.783-5.445,3.513-8.08,7.729-8.256,12.3C25.526,42.61,33.43,48.231,33.782,48.407Z" transform="translate(370.931 1793.208)" fill="#e4d45d"/>
    <path id="Path_10446" data-name="Path 10446" d="M51.382,45.631a2.968,2.968,0,0,0,1.757.527A2.8,2.8,0,0,0,55.6,44.753a3.216,3.216,0,0,0-.7-4.216c-1.581-1.054-5.621-4.567-5.445-8.256,0-2.459,1.932-4.918,5.445-7.2,6.324-4.216,9.661-8.783,9.837-13.526.351-5.8-4.216-9.486-4.392-9.661a2.9,2.9,0,0,0-4.216.527,2.9,2.9,0,0,0,.527,4.216A6.175,6.175,0,0,1,58.759,11.2c-.176,2.811-2.635,5.8-7.2,8.783-5.445,3.513-8.08,7.729-8.256,12.3C43.126,39.834,51.03,45.456,51.382,45.631Z" transform="translate(384.247 1791.241)" fill="#e4d45d"/>
    <path id="Path_10447" data-name="Path 10447" d="M66.8,41.628a2.968,2.968,0,0,0,1.757.527,2.8,2.8,0,0,0,2.459-1.405,3.077,3.077,0,0,0-.878-4.216c-.878-.527-3.865-3.162-3.865-5.621,0-1.932,2.108-3.689,3.865-4.918,4.919-3.338,7.553-6.851,7.729-10.891a10.34,10.34,0,0,0-3.513-7.9,2.991,2.991,0,1,0-3.865,4.567,4.4,4.4,0,0,1,1.405,2.986c-.176,1.757-1.932,3.865-5.094,5.972-4.216,2.811-6.5,6.148-6.5,9.837C60.3,36.885,66.272,41.1,66.8,41.628Z" transform="translate(397.11 1795.245)" fill="#e4d45d"/>
    <path id="Path_10448" data-name="Path 10448" d="M87.274,34C45.466,34,1.2,43.661,1.2,61.4a86.074,86.074,0,0,0,172.147,0C173.347,43.661,128.905,34,87.274,34Zm-.351,21.431c45.672,0,70.615,8.959,70.615,13.526,0,1.405-3.162,14.053-70.44,14.053-69.386,0-70.967-12.823-70.967-14.053C16.307,64.389,41.251,55.431,86.922,55.431Zm.351,86.074A80.085,80.085,0,0,1,8.051,72.821c2.635,1.932,23.538,16.161,79.223,16.161,59.022,0,76.061-13.877,79.223-16.161A80.22,80.22,0,0,1,87.274,141.5Z" transform="translate(352.395 1816.047)" fill="#e4d45d"/>
  </g>
</svg>
