<svg id="_003-soup" data-name="003-soup" xmlns="http://www.w3.org/2000/svg" width="96.247" height="91.436" viewBox="0 0 96.247 91.436">
  <path id="Path_10771" data-name="Path 10771" d="M3.652,92.054a1.6,1.6,0,0,0,1.556,1.214H95.039a1.6,1.6,0,0,0,1.556-1.214l1.6-6.417a1.6,1.6,0,0,0-1.556-1.994H90.185a7.937,7.937,0,0,0,1.646-4.812,13.314,13.314,0,0,0-5.99-11.144,21.718,21.718,0,0,0,1.744-6.173l2.629-20.982a1.6,1.6,0,0,0-1.591-1.8H31.16L26.4,15.22a6.206,6.206,0,1,0-12.029,3l6.136,20.506H11.625a1.6,1.6,0,0,0-1.591,1.8l2.629,20.974A21.625,21.625,0,0,0,30.874,80.174v3.47H3.6a1.6,1.6,0,0,0-1.556,1.994Zm84.97-13.223a4.812,4.812,0,0,1-4.812,4.812H54.936a4.812,4.812,0,0,1-4.812-4.812,10.077,10.077,0,0,1,7.584-9.8c.672-.17,1.357-.306,2.04-.448v8.645h3.208v-9.19a48.251,48.251,0,0,1,4.812-.387v6.368h3.208V67.651a48.25,48.25,0,0,1,4.812.387v9.19H79V68.583c.683.141,1.368.278,2.04.448A10.077,10.077,0,0,1,88.623,78.831ZM17.444,17.3a2.987,2.987,0,0,1,2.14-3.76,3.033,3.033,0,0,1,.735-.1,3,3,0,0,1,2.936,2.406l4.631,22.875H23.855Zm-1.6,43.812-2.4-19.179H86.805L84.4,61.114a18.448,18.448,0,0,1-1.434,5.152c-.372-.13-.752-.247-1.141-.345a51.787,51.787,0,0,0-24.906,0,13.256,13.256,0,0,0-9.9,11.306H34.082A18.414,18.414,0,0,1,15.847,61.115Zm18.242,19.32H47.076a7.947,7.947,0,0,0,1.484,3.208H34.082Zm20.854,6.416H94.588l-.8,3.208H6.461l-.8-3.208Z" transform="translate(-2 -1.833)"/>
  <path id="Path_10772" data-name="Path 10772" d="M23,48h3.208v3.208H23Z" transform="translate(10.686 20.977)"/>
  <path id="Path_10773" data-name="Path 10773" d="M16.221,44.841,15.1,35.876l-3.183.4,1.123,8.965A15.149,15.149,0,0,0,26.3,58.427l.379-3.186a11.944,11.944,0,0,1-10.462-10.4Z" transform="translate(3.99 13.653)"/>
  <path id="Path_10774" data-name="Path 10774" d="M32.625,32.27h8.887a9.575,9.575,0,0,0-2.47,6.416h3.208a6.416,6.416,0,0,1,6.416-6.416H63.1a5.614,5.614,0,1,0,0-11.229H35.031a2.406,2.406,0,0,1,0-4.812h31.28A11.242,11.242,0,0,0,77.54,5H74.332a8.03,8.03,0,0,1-8.021,8.021h-.866A9.575,9.575,0,0,0,67.915,6.6H64.707a6.416,6.416,0,0,1-6.416,6.416H35.031a5.614,5.614,0,0,0,0,11.229H63.1a2.406,2.406,0,0,1,0,4.812H32.625A9.634,9.634,0,0,0,23,38.687h3.208A6.416,6.416,0,0,1,32.625,32.27Z" transform="translate(10.686 -5)"/>
</svg>
