<svg xmlns="http://www.w3.org/2000/svg" width="84" height="84" viewBox="0 0 84 84">
  <g id="Change_Language" data-name="Change Language" transform="translate(-94 -612)">
    <rect id="Rectangle_690" data-name="Rectangle 690" width="84" height="84" rx="36" transform="translate(94 612)" fill="#3a9e7f"/>
    <path id="Path_57955" data-name="Path 57955" d="M20.218,2A18.236,18.236,0,1,0,38.473,20.236,18.227,18.227,0,0,0,20.218,2ZM32.856,12.942h-5.38A28.538,28.538,0,0,0,24.96,6.45,14.643,14.643,0,0,1,32.856,12.942ZM20.236,5.72a25.689,25.689,0,0,1,3.483,7.222H16.753A25.689,25.689,0,0,1,20.236,5.72ZM6.121,23.884a14.265,14.265,0,0,1,0-7.295h6.164a30.118,30.118,0,0,0-.255,3.647,30.118,30.118,0,0,0,.255,3.647Zm1.5,3.647H13a28.538,28.538,0,0,0,2.517,6.492,14.565,14.565,0,0,1-7.9-6.492ZM13,12.942H7.617a14.565,14.565,0,0,1,7.9-6.492A28.538,28.538,0,0,0,13,12.942Zm7.24,21.811a25.689,25.689,0,0,1-3.483-7.222h6.966A25.689,25.689,0,0,1,20.236,34.752ZM24.5,23.884H15.969a26.831,26.831,0,0,1-.292-3.647,26.6,26.6,0,0,1,.292-3.647H24.5a26.6,26.6,0,0,1,.292,3.647A26.831,26.831,0,0,1,24.5,23.884Zm.456,10.139a28.538,28.538,0,0,0,2.517-6.492h5.38A14.643,14.643,0,0,1,24.96,34.023Zm3.228-10.139a30.118,30.118,0,0,0,.255-3.647,30.118,30.118,0,0,0-.255-3.647h6.164a14.265,14.265,0,0,1,0,7.295Z" transform="translate(115.764 634)" fill="#fff"/>
  </g>
</svg>
