<svg xmlns="http://www.w3.org/2000/svg" width="53.767" height="53.767" viewBox="0 0 53.767 53.767">
  <path id="Icon_metro-cross" data-name="Icon metro-cross" d="M55.847,45.123h0L39.535,28.811,55.846,12.5h0a1.684,1.684,0,0,0,0-2.376L48.141,2.419a1.685,1.685,0,0,0-2.376,0h0L29.454,18.73,13.143,2.419h0a1.684,1.684,0,0,0-2.376,0L3.062,10.124a1.684,1.684,0,0,0,0,2.376h0L19.373,28.811,3.062,45.122h0a1.684,1.684,0,0,0,0,2.376L10.767,55.2a1.684,1.684,0,0,0,2.376,0h0L29.454,38.892,45.765,55.2h0a1.684,1.684,0,0,0,2.375,0L55.846,47.5a1.684,1.684,0,0,0,0-2.376Z" transform="translate(-2.57 -1.928)" fill="#3a9e7f"/>
</svg>
