<svg xmlns="http://www.w3.org/2000/svg" width="71.704" height="71.703" viewBox="0 0 71.704 71.703">
  <path id="dashboard_progress_" data-name="dashboard progress " d="M10.039,71.7a1.434,1.434,0,0,1,0-2.868H61.665a1.434,1.434,0,0,1,0,2.868Zm14.341-8.6A24.406,24.406,0,0,1,0,38.72V35.852a1.435,1.435,0,0,1,1.434-1.434H46.11L51.646,1.2a1.433,1.433,0,1,1,2.827.472L49.016,34.417H55L68.964,3.708A1.434,1.434,0,1,1,71.574,4.9L58.155,34.417H70.269A1.433,1.433,0,0,1,71.7,35.852V38.72A24.406,24.406,0,0,1,47.324,63.1ZM2.867,38.719A21.536,21.536,0,0,0,24.379,60.23H47.324A21.535,21.535,0,0,0,68.835,38.719V37.285H2.867ZM31.55,27.247V21.51a1.434,1.434,0,0,1,2.868,0v5.737a1.434,1.434,0,0,1-2.868,0Zm-11.472,0V15.774a1.434,1.434,0,1,1,2.868,0V27.247a1.434,1.434,0,0,1-2.868,0Zm-11.472,0V21.51a1.434,1.434,0,1,1,2.867,0v5.737a1.434,1.434,0,0,1-2.867,0Z"/>
</svg>
