<svg xmlns="http://www.w3.org/2000/svg" width="161.669" height="135.466" viewBox="0 0 161.669 135.466">
  <g id="Delivery" transform="translate(-16068.169 -9669.594)">
    <path id="Path_12038" data-name="Path 12038" d="M671.528,425.334l.453-.453-2.686-2.686-.455.455,2.684,2.684Z" transform="translate(15438.818 9251.027)" fill="#fff"/>
    <path id="Path_12039" data-name="Path 12039" d="M566.475,425.334l.453-.453-2.686-2.686-.455.455,2.684,2.684Z" transform="translate(15533.323 9251.027)" fill="#fff"/>
    <path id="Path_12040" data-name="Path 12040" d="M1051.162,1033.246a8.111,8.111,0,0,1-3.371,6.582,6.624,6.624,0,0,0,0-13.164A8.111,8.111,0,0,1,1051.162,1033.246Z" transform="translate(15097.915 8707.249)" fill="#fff"/>
    <path id="Path_12041" data-name="Path 12041" d="M986.445,479.87h1.533V426.006l-3.747-3.774-.461.461,2.675,2.694Z" transform="translate(15155.508 9250.994)" fill="#fff"/>
    <path id="Path_12042" data-name="Path 12042" d="M776.581,425.339l.458-.458L776,423.835l-1.654-1.635-.455.455,2.684,2.684Z" transform="translate(15344.313 9251.021)" fill="#fff"/>
    <path id="Path_12043" data-name="Path 12043" d="M1709.575,1346.32h2.5a22.888,22.888,0,0,0-15.978-20.342A24.4,24.4,0,0,1,1709.575,1346.32Z" transform="translate(14514.699 8437.988)" fill="#fff"/>
    <path id="Path_12044" data-name="Path 12044" d="M881.634,425.334l.453-.453-2.687-2.686-.455.455,2.684,2.684Z" transform="translate(15249.808 9251.027)" fill="#fff"/>
    <path id="Path_12045" data-name="Path 12045" d="M1701.625,772.709l.015.017.053.071c.125.156.246.316.358.484l.079.13c.1.152.193.3.279.464.034.063.061.129.093.193.073.144.146.288.209.437.036.085.063.174.1.261.05.133.1.265.146.4.034.11.057.224.086.336s.066.235.091.356c.029.142.046.29.066.435.013.094.033.187.043.283a7.333,7.333,0,0,1,0,1.478c-.01.095-.029.187-.042.281-.021.146-.037.294-.067.437-.024.12-.06.236-.09.353s-.053.228-.087.339c-.043.137-.1.268-.146.4-.032.087-.06.176-.1.261-.063.149-.136.293-.209.437-.032.063-.059.131-.093.193-.086.16-.182.312-.279.464l-.079.13c-.112.167-.233.327-.358.484l-.053.07-.015.017v.92l.15-.047c.086-.027.171-.056.255-.087q.094-.035.186-.073c.054-.022.107-.047.16-.07l.057-.028,0,0c.083-.038.155-.072.22-.1q.12-.062.237-.129l.2-.125h0l.112-.068c.045-.03.091-.058.135-.089.083-.06.178-.133.291-.224l.031-.024.03-.023.047-.037c.129-.109.254-.223.375-.345l.027-.028c.123-.126.235-.25.336-.374l.025-.033.026-.034c.107-.134.2-.257.276-.372l.053-.088.018-.028c.093-.145.167-.264.22-.364l.008-.018c.012-.026.033-.073.068-.142.075-.148.131-.261.165-.343l0-.007.014-.038c.012-.036.031-.091.06-.167v0c.059-.156.1-.259.116-.315h0c.007-.016.027-.108.067-.269v0h0c.042-.16.068-.251.073-.278.013-.059.028-.177.051-.346.018-.122.032-.194.035-.218V777.9a5.852,5.852,0,0,0,0-1.175v-.006l-.006-.04c-.006-.038-.017-.1-.029-.18v0c-.023-.172-.039-.29-.051-.344v0c0-.026-.03-.116-.073-.279s-.061-.251-.067-.267c-.016-.056-.057-.159-.116-.315v0c-.04-.107-.061-.174-.07-.2l0-.009c-.033-.079-.09-.193-.167-.345v0c-.049-.1-.072-.151-.076-.16-.053-.1-.127-.219-.22-.363l-.018-.028-.054-.089c-.077-.114-.168-.236-.274-.369l-.031-.04-.021-.029q-.155-.187-.334-.371l-.032-.034q-.18-.181-.375-.345c-.033-.028-.068-.052-.1-.079-.1-.083-.208-.164-.317-.24-.034-.024-.069-.045-.1-.069q-.223-.148-.458-.276c-.035-.019-.069-.039-.1-.057a5.728,5.728,0,0,0-.574-.257l-.083-.028c-.121-.044-.246-.078-.37-.114Z" transform="translate(14509.729 8936.528)" fill="#fff"/>
    <path id="Path_12046" data-name="Path 12046" d="M692.979,1558.507a17.747,17.747,0,0,1-9.3,14.141,16.238,16.238,0,0,0,11.8-14.141Z" transform="translate(15425.466 8228.807)" fill="#fff"/>
    <path id="Path_12047" data-name="Path 12047" d="M1680.362,1558.507a17.746,17.746,0,0,1-9.3,14.141,16.238,16.238,0,0,0,11.8-14.141Z" transform="translate(14537.221 8228.807)" fill="#fff"/>
    <path id="Path_12048" data-name="Path 12048" d="M1607.447,937.979c.67-.052,1.345-.087,2.028-.087.162,0,.319.008.479.011V899.1h-2.507Z" transform="translate(14594.451 8822.007)" fill="#fff"/>
    <path id="Path_12049" data-name="Path 12049" d="M959.03,1212.026h2.332a27.978,27.978,0,0,1-2.685-12.193,36.536,36.536,0,0,1,2.024-11.673h-2.419C954.323,1199.491,956.737,1207.611,959.03,1212.026Z" transform="translate(15180.335 8561.968)" fill="#fff"/>
    <path id="Path_12064" data-name="Path 12064" d="M476.919,1165.341h0c-.152-.116-.293-.246-.438-.37q-.218.177-.445.366a8.053,8.053,0,0,0,1.38.342C477.248,1165.568,477.078,1165.462,476.919,1165.341Z" transform="translate(15612.264 8582.83)" fill="#fff"/>
    <path id="Path_12075" data-name="Path 12075" d="M1369.731,1535.156v.005h0v-.005Z" transform="translate(14808.3 8249.813)" fill="#fff"/>
    <path id="Path_12080" data-name="Path 12080" d="M292.737,456.963a9.569,9.569,0,0,0,1.423,5.023c-.388.316-.795.658-1.214,1.023a50.639,50.639,0,0,0-9.912,11.729,51.933,51.933,0,0,0-7.49,27.539,1.5,1.5,0,0,0,1.5,1.5h15.919a19.244,19.244,0,0,0,38.371,0H392.1a19.244,19.244,0,0,0,38.371,0h5.235a1.5,1.5,0,0,0,1.5-1.5,25.905,25.905,0,0,0-22.427-25.669V439.075h2.343l.075,0,.1,0,.021,0c.27-.006.539-.021.805-.052h.013c.235-.027.466-.065.695-.11.077-.015.151-.035.227-.052.154-.035.308-.071.459-.114.088-.025.175-.053.262-.081.136-.043.27-.089.4-.138q.135-.05.267-.1c.052-.022.107-.039.159-.062h0c.081-.035.136-.064.167-.08l.023-.012c.1-.045.2-.09.291-.138s.179-.089.276-.143h0c.06-.034.105-.062.155-.092.113-.066.222-.135.332-.206.049-.029.122-.073.222-.14h0c.036-.025.065-.048.1-.072.053-.037.1-.075.156-.114.091-.069.176-.135.252-.2l.1-.078.055-.044.032-.029c.2-.167.389-.341.571-.525l.009-.009h0l.042-.045.025-.027h0c.165-.171.33-.35.489-.545l.038-.048.053-.07h0c.132-.166.269-.347.4-.549l.035-.054.077-.126c.1-.153.208-.327.32-.535.043-.08.071-.141.09-.18l.02-.042,0-.009h0c.07-.139.16-.313.252-.53v0c.074-.182.105-.288.115-.311v0c.041-.11.107-.27.175-.487s.089-.342.107-.408v0c.018-.073.062-.213.107-.426h0c.045-.227.064-.4.082-.527,0-.025.027-.136.049-.336v0a8.872,8.872,0,0,0,0-1.779v0c-.023-.2-.048-.315-.05-.338v0c-.017-.119-.036-.295-.082-.524s-.09-.357-.108-.432-.044-.2-.105-.4-.134-.376-.175-.486c-.013-.033-.045-.14-.117-.315-.093-.221-.184-.394-.251-.53v0h0c-.006-.01-.038-.09-.113-.232-.112-.208-.223-.383-.32-.535l-.077-.126-.034-.053c-.136-.2-.273-.384-.405-.55l-.05-.067-.043-.055c-.155-.189-.317-.365-.481-.535h0l-.027-.03-.047-.049h0l-.008-.007c-.183-.185-.376-.361-.576-.529-.053-.045-.11-.086-.164-.129-.152-.122-.306-.241-.466-.353-.022-.015-.042-.034-.065-.049-.125-.086-.253-.166-.382-.246l-.118-.071c-.164-.1-.332-.188-.5-.274-.065-.033-.13-.064-.2-.095q-.22-.1-.446-.2c-.056-.023-.11-.047-.166-.069q-.3-.115-.611-.209c-.054-.016-.109-.03-.163-.045q-.249-.07-.5-.125c-.065-.014-.129-.028-.194-.041-.22-.043-.442-.08-.668-.106h0c-.243-.027-.454-.035-.635-.042l-.039,0-.112-.007H417.3l-.1,0-.075,0H406.094a8.714,8.714,0,0,0-5,1.577c-.159.111-.317.224-.468.345a8.787,8.787,0,0,0-2.681,3.661h-7.813a3.792,3.792,0,0,0-3.021,6.091,3.738,3.738,0,0,0,.336.391,3.792,3.792,0,0,0,2.685,1.112h7.2v45.751a26.006,26.006,0,0,0-8.238,8.485H351.686a25.009,25.009,0,0,1-2.294-10.691A34.151,34.151,0,0,1,351.6,466.6h.729a9.626,9.626,0,0,0,1.534-19.132V392.847a1.506,1.506,0,0,0-.436-1.059l-5.246-5.283a1.5,1.5,0,0,0-2.129,0l-1.52,1.52-2.685,2.685-.455-.455-3.749-3.749a1.521,1.521,0,0,0-2.139,0L334,388.012l-2.69,2.689-.447-.45-.007-.007-1.036-1.043-.01-.01-2.722-2.69-.007-.005-.006-.007-.007-.007a1.514,1.514,0,0,0-.195-.154c-.008-.005-.015-.013-.023-.018a1.5,1.5,0,0,0-1.889.19l-1.511,1.511-2.693,2.693-.448-.448-.007-.007-3.749-3.749a1.494,1.494,0,0,0-.8-.415c-.026,0-.053,0-.079-.008a1.553,1.553,0,0,0-.191-.017,1.5,1.5,0,0,0-1.067.439l-1.511,1.511-2.693,2.693-.448-.448-.007-.007L306,386.5a1.5,1.5,0,0,0-2.125,0l-1.518,1.518-3.747,3.747a1.5,1.5,0,0,0-.422,1.256v55.811h-.972c-.065.041-.133.077-.2.119a9.621,9.621,0,0,0-4.285,8.011ZM285.6,476.307a47.581,47.581,0,0,1,10.076-11.674c.151-.126.3-.248.445-.366.145.125.285.255.438.37h0c.159.121.33.227.5.338a9.634,9.634,0,0,0,1.24.714h0a9.575,9.575,0,0,0,4.074.905h46.04a36.536,36.536,0,0,0-2.024,11.673,27.979,27.979,0,0,0,2.685,12.193c.115.238.23.471.345.693a1.5,1.5,0,0,0,1.334.81h36.782c-.264.607-.509,1.225-.727,1.855a25.7,25.7,0,0,0-1.1,4.424c-.123.788-.2,1.582-.256,2.38h0v0l0,.058c0,.029,0,.06,0,.089H340.682a28.046,28.046,0,0,0-7.271-17.425q-.44-.485-.9-.948l-.028-.029q-.477-.477-.977-.932h0c-.108-.1-.222-.191-.332-.288-.565-.5-1.147-.98-1.752-1.432h0c-.659-.492-1.347-.946-2.048-1.381-.741-.459-1.5-.9-2.283-1.285-.149-.074-.3-.137-.453-.208-.364-.173-.728-.348-1.1-.506-.548-.232-1.107-.444-1.672-.641-.412-.144-.826-.282-1.247-.407q-.5-.148-1-.279a28.354,28.354,0,0,0-14.069,0q-.674.174-1.336.379t-1.308.443h0q-1.294.474-2.526,1.068l-.09.046q-1.182.575-2.3,1.253-.871.529-1.7,1.118t-1.61,1.234a28.1,28.1,0,0,0-10.2,20.219h-5.89A48.625,48.625,0,0,1,285.6,476.307Zm99.808,25.134v0Zm-73,8.063a7.225,7.225,0,0,1-7.068-5.724h14.137a7.206,7.206,0,0,1-6.081,5.649A7.282,7.282,0,0,1,312.408,509.5Zm17.49-8.729H287.475a25.091,25.091,0,0,1,9.105-17.9h0a25.252,25.252,0,0,1,2.957-2.1h0q.518-.315,1.053-.605t1.084-.555h0q1.1-.529,2.255-.953h0q1.153-.423,2.36-.734a25.347,25.347,0,0,1,12.57,0h0c.477.123.946.263,1.412.412.416.134.83.274,1.237.429q.43.164.853.343h0c.688.291,1.355.622,2.01.971.687.366,1.361.753,2.009,1.179q.633.416,1.238.869c.248.185.49.38.731.574.386.311.765.63,1.132.963.279.253.55.514.817.779l.057.054q.427.427.833.874a25.035,25.035,0,0,1,6.483,15.4H329.9Zm-6.26,12.989a16.241,16.241,0,0,1-27.658-9.983h6.32a10.218,10.218,0,0,0,20.219,0h5.805A16.184,16.184,0,0,1,323.637,513.764Zm87.652-4.259a7.226,7.226,0,0,1-7.068-5.724h14.137a7.3,7.3,0,0,1-7.068,5.724Zm11.486,4.259a16.241,16.241,0,0,1-27.658-9.983h6.062a10.218,10.218,0,0,0,20.219,0h6.063A16.184,16.184,0,0,1,422.775,513.764Zm-23.74-83.629h7.185a.777.777,0,0,1,.441.134h0a.792.792,0,0,1,0,1.314c-.015.01-.032.014-.047.023a.771.771,0,0,1-.394.112H390.128a.791.791,0,1,1,0-1.583Zm7.185,4.588a3.8,3.8,0,1,0,0-7.594H401.3a5.794,5.794,0,0,1,1.2-1.317,5.71,5.71,0,0,1,3.591-1.261h9.63V436.07h-2.44c-.022,0-.044.006-.067.007a1.493,1.493,0,0,0-1.436,1.5v38.8c-.16,0-.318-.011-.48-.011-.683,0-1.358.035-2.027.087a25.273,25.273,0,0,0-8.939,2.351V434.723Zm12.962-9.79a5.737,5.737,0,0,1,.574.257c.035.018.069.038.1.057q.236.127.458.276c.035.023.07.045.1.069.109.076.213.157.316.24.033.027.068.052.1.079q.2.164.375.345l.032.034q.18.183.334.371l.021.029.031.04c.106.133.2.255.274.369l.054.089.017.028c.093.145.167.264.22.363,0,.008.027.061.076.16v0c.077.153.134.266.167.345l0,.009c.009.023.031.09.07.2l0,0c.059.156.1.259.116.315.006.017.027.107.067.267s.069.253.073.279v0c.012.055.027.173.051.344v0c.012.083.023.143.029.18l.006.04v.007q.029.29.03.587t-.03.587v.006c0,.024-.017.1-.035.218-.023.17-.039.287-.051.346,0,.027-.031.118-.073.278s-.061.252-.067.269h0c-.017.056-.057.159-.116.315v0c-.028.075-.047.131-.06.167l-.014.038,0,.007c-.034.082-.09.2-.165.343-.034.068-.056.116-.068.142l-.008.018c-.053.1-.127.219-.22.364l-.017.028-.053.087c-.077.115-.169.238-.276.372l-.026.034-.025.033c-.1.124-.214.248-.336.374l-.027.028c-.121.121-.246.236-.375.345l-.047.037-.03.023-.03.024c-.113.091-.207.163-.291.224-.044.031-.09.059-.135.089l-.112.068h0l-.2.126q-.117.067-.237.129c-.065.032-.137.066-.22.1l0,0-.057.028c-.053.024-.106.048-.16.07s-.124.05-.186.073c-.084.031-.169.06-.255.087l-.15.046V424.79c.124.036.249.07.37.114C419.127,424.915,419.155,424.923,419.183,424.933Zm-1.052,14.08h0ZM399.6,482.585a22.8,22.8,0,0,1,11.7-3.214c.617,0,1.236.032,1.862.082a22.893,22.893,0,0,1,20.989,21.321h-45.7c.046-.7.117-1.392.223-2.066a22.733,22.733,0,0,1,2.583-7.518A23.019,23.019,0,0,1,399.6,482.585Zm-52.487-92.893,3.747,3.774V447.33h-7.529V393.474l3.321-3.321ZM301.2,447.33v-53.9l3.288-3.288.455-.455,2.686,2.686.007.007,1.509,1.509c.013.013.03.023.043.036.035.033.073.062.111.091a1.511,1.511,0,0,0,.134.092,1.479,1.479,0,0,0,.166.089c.03.013.06.024.09.035a1.5,1.5,0,0,0,.171.052c.029.007.057.014.086.02a1.508,1.508,0,0,0,.248.025h.031a1.512,1.512,0,0,0,1.063-.44l3.747-3.747.455-.455,2.686,2.686.007.007,1.509,1.509c.014.014.03.023.044.036.034.031.07.059.107.087a1.455,1.455,0,0,0,.14.1,1.48,1.48,0,0,0,.163.087c.03.013.06.024.091.035a1.518,1.518,0,0,0,.17.052c.029.007.057.014.087.02a1.5,1.5,0,0,0,.247.025h.032a1.513,1.513,0,0,0,1.063-.44l3.747-3.747.455-.455,1.654,1.635,1.038,1.046.007.007,1.5,1.51c.014.014.031.024.046.038.032.03.066.056.1.083a1.7,1.7,0,0,0,.3.186c.036.016.073.029.11.043a1.472,1.472,0,0,0,.148.045c.033.008.066.017.1.023a1.5,1.5,0,0,0,.245.024h.032a1.512,1.512,0,0,0,1.063-.44l3.747-3.747.455-.455,2.686,2.686,1.057,1.057v53.9H301.2Zm-3.513,4.947a6.6,6.6,0,0,1,4.686-1.941h49.963a6.71,6.71,0,0,1,.748.045,6.624,6.624,0,0,1,0,13.165,6.734,6.734,0,0,1-.749.045H302.37a6.569,6.569,0,0,1-2.8-.621,6.676,6.676,0,0,1-2.212-1.679h0a6.614,6.614,0,0,1,.324-9.013Z" transform="translate(15792.625 9283.533)" fill="#fff"/>
    <line id="Line_13" data-name="Line 13" transform="translate(16210.756 9722.547)" fill="none" stroke="#000" stroke-linecap="round" stroke-linejoin="round" stroke-width="0"/>
    <path id="Path_12081" data-name="Path 12081" d="M1762.532,785.355v0l0,0Z" transform="translate(14454.938 8924.33)" fill="#fff"/>
    <path id="Path_12082" data-name="Path 12082" d="M1762.534,868.142v0Z" transform="translate(14454.938 8849.855)" fill="#fff"/>
    <path id="Path_12083" data-name="Path 12083" d="M1741.158,841.067v0h0Z" transform="translate(14474.166 8874.214)" fill="#fff"/>
    <path id="Path_12084" data-name="Path 12084" d="M1769.087,852.587h0Z" transform="translate(14449.041 8863.848)" fill="#fff"/>
    <path id="Path_12085" data-name="Path 12085" d="M1771.217,809.264v0h0Z" transform="translate(14447.124 8902.821)" fill="#fff"/>
    <path id="Path_12086" data-name="Path 12086" d="M1598.186,801.548h0Z" transform="translate(14602.783 8909.764)" fill="#fff"/>
    <path id="Path_12088" data-name="Path 12088" d="M800.685,449.354l.452-.452-.007-.007-.458.458Z" transform="translate(15320.223 9227.007)" fill="#fff"/>
    <path id="Path_12090" data-name="Path 12090" d="M590.578,449.4l.446-.446-.007-.007-.453.453Z" transform="translate(15509.234 9226.96)" fill="#fff"/>
    <rect id="Rectangle_1240" data-name="Rectangle 1240" width="3.799" height="0.01" transform="translate(16112.925 9673.783) rotate(-45)" fill="#fff"/>
    <path id="Path_12092" data-name="Path 12092" d="M695.63,449.4l.446-.446-.007-.007-.453.453Z" transform="translate(15414.73 9226.96)" fill="#fff"/>
    <path id="Path_12093" data-name="Path 12093" d="M829.093,401.036l-.007-.007-2.681,2.681.007.007Z" transform="translate(15297.072 9270.068)" fill="#fff"/>
    <path id="Path_12103" data-name="Path 12103" d="M725.223,630.442h0Z" transform="translate(15388.103 9063.689)" fill="#fff"/>
    <path id="Path_12105" data-name="Path 12105" d="M725.055,758.737h0Z" transform="translate(15388.247 8948.276)" fill="#fff"/>
    <line id="Line_14" data-name="Line 14" transform="translate(16113.325 9694.131)" fill="none" stroke="#000" stroke-linecap="round" stroke-linejoin="round" stroke-width="0"/>
    <path id="Path_12107" data-name="Path 12107" d="M674.394,636.925h0a6.5,6.5,0,0,0-.433-2.3c-.053-.137-.109-.272-.171-.4a6.5,6.5,0,0,0-5.826-3.778h-.014v0h-.078a6.105,6.105,0,0,0-2.463.525,6.579,6.579,0,0,0-1.748,1.141,6.733,6.733,0,0,0-1.043,1.188,6.293,6.293,0,0,0-1.118,3.546h0v.025h0v0a6.464,6.464,0,0,0,1.106,3.57,6.707,6.707,0,0,0,.773.951c.094.1.195.185.294.275a6.26,6.26,0,0,0,4.174,1.66h.035a6.552,6.552,0,0,0,4.095-1.463q.241-.194.462-.409a6.484,6.484,0,0,0,1.645-2.6,6.1,6.1,0,0,0,.312-1.9Zm-3.005,0v.014h0a3.114,3.114,0,0,1-.278,1.267q-.067.15-.149.294a3.6,3.6,0,0,1-.617.793c-.072.07-.148.136-.226.2a3.6,3.6,0,0,1-1.661.769,3.346,3.346,0,0,1-.588.055h-.014a3.3,3.3,0,0,1-2.328-1.03,3.527,3.527,0,0,1-1.022-2.434v-.012a3.169,3.169,0,0,1,.27-1.267,3.67,3.67,0,0,1,1.268-1.534,3.223,3.223,0,0,1,1.827-.594h.013a3.572,3.572,0,0,1,.584.055,3.5,3.5,0,0,1,.458.106q.165.052.322.118a3.564,3.564,0,0,1,1.117.753q.12.12.227.249t.2.269a3.414,3.414,0,0,1,.6,1.93Z" transform="translate(15445.422 9063.691)" fill="#fff"/>
    <line id="Line_15" data-name="Line 15" transform="translate(16113.303 9707.013)" fill="none" stroke="#000" stroke-linecap="round" stroke-linejoin="round" stroke-width="0"/>
    <line id="Line_16" data-name="Line 16" transform="translate(16113.303 9707.013)" fill="none" stroke="#000" stroke-linecap="round" stroke-linejoin="round" stroke-width="0"/>
    <path id="Path_12108" data-name="Path 12108" d="M606.522,577.939c-.085.108-.159.222-.239.332a11.954,11.954,0,0,0-1,12.292c.008.015.014.031.022.047q.183.358.393.7c.252.414.508.825.761,1.238q1.656,2.7,3.337,5.376,2.005,3.194,4.016,6.375l.121.192a3.989,3.989,0,0,0,.874,1.016,2.569,2.569,0,0,0,.649.38,2.258,2.258,0,0,0,.294.087c.035.009.066.023.1.03a2.163,2.163,0,0,0,.427.042,2.231,2.231,0,0,0,.827-.161,2.725,2.725,0,0,0,.909-.614,4.407,4.407,0,0,0,.595-.757c.007-.011.016-.021.023-.033h0q4.11-6.528,8.193-13.085h0a10.2,10.2,0,0,0,.747-1.458,11.024,11.024,0,0,0,.507-1.531,15.206,15.206,0,0,0,.427-3.234,1.815,1.815,0,0,0-.009-.224c-.042-.356-.094-.967-.188-1.6a12.245,12.245,0,0,0-2.976-6.266,11.45,11.45,0,0,0-5.845-3.593h0l-.082-.017a14.689,14.689,0,0,0-3.32-.4,11.527,11.527,0,0,0-4.645.945q-.31.135-.614.29a11.722,11.722,0,0,0-1.626,1.01A14.073,14.073,0,0,0,606.522,577.939Zm16.566,1.142a9.25,9.25,0,0,1,2.25,4.713c.07.471.117.966.161,1.375a12.117,12.117,0,0,1-.331,2.5,7.544,7.544,0,0,1-.9,2.146q-3.96,6.4-7.99,12.762l-.631-1-2.006-3.184q-1.684-2.673-3.351-5.35-1.02-1.644-2.025-3.294a8.68,8.68,0,0,1-1.226-4.5,8.8,8.8,0,0,1,1.835-5.443q.385-.485.784-.9a9.5,9.5,0,0,1,2.533-1.917,8.249,8.249,0,0,1,1.126-.461,8.649,8.649,0,0,1,2.767-.446,11.486,11.486,0,0,1,2.34.259c.123.025.243.048.368.077a7.182,7.182,0,0,1,.881.276,8.224,8.224,0,0,1,1.957,1.062A9.246,9.246,0,0,1,623.088,579.081Z" transform="translate(15497.113 9115.297)" fill="#fff"/>
  </g>
</svg>
