<svg xmlns="http://www.w3.org/2000/svg" width="57.324" height="50.945" viewBox="0 0 57.324 50.945">
  <path id="Icon_awesome-edit" data-name="Icon awesome-edit" d="M40.067,8.277l8.977,8.977a.973.973,0,0,1,0,1.373L27.309,40.363l-9.236,1.025a1.936,1.936,0,0,1-2.14-2.14l1.025-9.236L38.694,8.277A.973.973,0,0,1,40.067,8.277ZM56.19,6,51.333,1.142a3.892,3.892,0,0,0-5.494,0L42.316,4.665a.973.973,0,0,0,0,1.373l8.977,8.977a.973.973,0,0,0,1.373,0l3.523-3.523A3.892,3.892,0,0,0,56.19,6ZM38.216,34.451V44.583H6.369V12.736h22.87a1.224,1.224,0,0,0,.846-.348l3.981-3.981a1.194,1.194,0,0,0-.846-2.04H4.777A4.778,4.778,0,0,0,0,11.143V46.175a4.778,4.778,0,0,0,4.777,4.777H39.808a4.778,4.778,0,0,0,4.777-4.777V30.47a1.2,1.2,0,0,0-2.04-.846l-3.981,3.981A1.224,1.224,0,0,0,38.216,34.451Z" transform="translate(0 -0.007)" fill="#fff"/>
</svg>
