<svg xmlns="http://www.w3.org/2000/svg" width="107.099" height="101.242" viewBox="0 0 107.099 101.242">
  <g id="Group_10400" data-name="Group 10400" transform="translate(-2028 -1371)">
    <g id="cooking" transform="translate(2028 1371.001)">
      <g id="Group_10350" data-name="Group 10350" transform="translate(1.581 1.583)">
        <path id="Path_11701" data-name="Path 11701" d="M177.714,296.6c-1.468-6.244-6.357-9.172-12.49-10.252a34.6,34.6,0,0,0-4.387-.472,7,7,0,0,1-2.825-.638c-4.406,8.352-24.544,7.762-27.905,0v-.059a6.961,6.961,0,0,1-2.949.7,35.128,35.128,0,0,0-4.264.449c-5.962,1.021-10.762,3.772-12.437,9.585,2.589,2.486,23.607,21.438,23.772,22.478h44.128V307.763a3.718,3.718,0,0,1,1.321-2.839Zm0,0" transform="translate(-88.932 -227.11)" fill="#64b0d9" fill-rule="evenodd"/>
        <path id="Path_11702" data-name="Path 11702" d="M174.178,285.877a34.952,34.952,0,0,0-4.264.449v9.585l3.2,2.875,4.01-2.875V285.18A6.962,6.962,0,0,1,174.178,285.877Zm0,0" transform="translate(-135.952 -227.11)" fill="#e6e6e6" fill-rule="evenodd"/>
        <path id="Path_11703" data-name="Path 11703" d="M168.449,316h8.586a3.1,3.1,0,0,1,3.055,2.616h36.721L214,302.325a3.134,3.134,0,0,0-2.914-2.922V286.572a34.588,34.588,0,0,0-4.387-.472,7,7,0,0,1-2.825-.638V299.4H181.824c.047.355-10.8,15.535-13.375,16.592Zm0,0" transform="translate(-134.794 -227.333)" fill="#e6e6e6" fill-rule="evenodd"/>
        <path id="Path_11704" data-name="Path 11704" d="M228.851,255.7l-10.043-3.17-11.057,3.111-.029.053a7.463,7.463,0,0,1-3.326,3.665v.059c3.362,7.762,23.5,8.352,27.905,0a7.741,7.741,0,0,1-3.45-3.719Zm0,0" transform="translate(-163.221 -201.291)" fill="#fcc368" fill-rule="evenodd"/>
        <path id="Path_11705" data-name="Path 11705" d="M210.783,119.754a81.442,81.442,0,0,0-24.131,0q-3.5.522-7.011,1.357V136.5c0,5.448,3.969,10.259,8.534,13.428,3.727,2.6,7.855,4.09,10.514,3.949a21.785,21.785,0,0,0,10.586-3.89c4.788-3.27,8.586-8.346,8.586-14.308V121.106q-3.53-.824-7.077-1.351Zm0,0" transform="translate(-143.644 -95.577)" fill="#ffdda6" fill-rule="evenodd"/>
        <path id="Path_11706" data-name="Path 11706" d="M186,7.57a10.653,10.653,0,0,0-9.494,5.66h-5.178c-7.484,0-11.942,8.229-4.936,12.591V37.266q3.511-.832,7.012-1.358a81.47,81.47,0,0,1,24.131,0q3.547.532,7.077,1.358V25.821c7.006-4.362,2.742-12.591-4.742-12.591H194.3c-1.091-3.759-4.552-5.649-8.232-5.66Zm0,0" transform="translate(-130.393 -7.57)" fill="#e6e6e6" fill-rule="evenodd"/>
        <path id="Path_11707" data-name="Path 11707" d="M327.911,47.223c7.006-4.362,2.742-12.59-4.742-12.59H318.8c6.711,0,10.856,6,6.575,10.518-1.374,1.445-1.811.7-1.811,2.721l-.018,9.887q2.185.4,4.364.909Zm0,0" transform="translate(-253.695 -28.972)" fill="#c2c7cc" fill-rule="evenodd"/>
        <path id="Path_11708" data-name="Path 11708" d="M271.994,178.637a10.66,10.66,0,0,1-4.364-1.984v3.826c0,5.962-3.8,11.043-8.592,14.307a21.712,21.712,0,0,1-10.586,3.89c-.118.006-.236.011-.359.011a12.615,12.615,0,0,0,4.729.9,21.778,21.778,0,0,0,10.585-3.889c4.788-3.27,8.586-8.347,8.586-14.308Zm0,0" transform="translate(-197.778 -141.285)" fill="#fcc368" fill-rule="evenodd"/>
        <path id="Path_11709" data-name="Path 11709" d="M301.1,271.405a7.743,7.743,0,0,1-3.45-3.718,24.1,24.1,0,0,1-6.257,3.063c.973,1.883,1.776,2.745,4.588,4.078a6.064,6.064,0,0,0,1.091.4A9.5,9.5,0,0,0,301.1,271.405Zm0,0" transform="translate(-232.022 -213.277)" fill="#eda93b" fill-rule="evenodd"/>
        <path id="Path_11710" data-name="Path 11710" d="M342.273,296.823c-1.468-6.244-6.357-9.172-12.49-10.252a34.6,34.6,0,0,0-4.387-.472,7,7,0,0,1-2.825-.638,9.5,9.5,0,0,1-4.028,3.819,7.353,7.353,0,0,0,1.734.242c.779.042,1.539.095,2.294.177.713.077,1.409.172,2.093.3a22.128,22.128,0,0,1,5.118,1.505,12.3,12.3,0,0,1,7.378,8.754,76.368,76.368,0,0,1,2.052,18.357h3.7V307.986a3.718,3.718,0,0,1,1.321-2.839Zm0,0" transform="translate(-253.491 -227.332)" fill="#4a83c9" fill-rule="evenodd"/>
        <path id="Path_11711" data-name="Path 11711" d="M345.012,286.572a34.589,34.589,0,0,0-4.387-.472,7,7,0,0,1-2.825-.638V289.7c.713.077,1.409.172,2.093.3a22.127,22.127,0,0,1,5.118,1.505Zm0,0" transform="translate(-268.721 -227.333)" fill="#c2c7cc" fill-rule="evenodd"/>
        <path id="Path_11712" data-name="Path 11712" d="M448.273,381.978a6.627,6.627,0,0,0-6.605-6.61h-2.889a3.725,3.725,0,0,0-3.715,3.719v11.952a3.733,3.733,0,0,0,3.715,3.725h2.889a6.628,6.628,0,0,0,6.605-6.611Zm0,0" transform="translate(-345.638 -298.433)" fill="#ffdda6" fill-rule="evenodd"/>
        <path id="Path_11713" data-name="Path 11713" d="M440.1,145.051h-6.711a4.568,4.568,0,0,0-4.553,4.556v13.765a4.565,4.565,0,0,0,4.553,4.557H440.1a4.572,4.572,0,0,0,4.552-4.557V149.607a4.58,4.58,0,0,0-4.552-4.556Zm0,0" transform="translate(-340.711 -116.293)" fill="#e6e6e6" fill-rule="evenodd"/>
        <path id="Path_11714" data-name="Path 11714" d="M359.315,355.035a3.133,3.133,0,0,0-2.913-2.922h-4.2l3.438,19.207h6.487Zm0,0" transform="translate(-280.111 -280.043)" fill="#c2c7cc" fill-rule="evenodd"/>
        <path id="Path_11715" data-name="Path 11715" d="M458.127,381.978a6.627,6.627,0,0,0-6.605-6.61h-2.889a3.665,3.665,0,0,0-1.109.171,6.635,6.635,0,0,1,5.113,6.44v6.174a6.641,6.641,0,0,1-5.113,6.44,3.852,3.852,0,0,0,1.109.171h2.889a6.628,6.628,0,0,0,6.605-6.611Zm0,0" transform="translate(-355.492 -298.433)" fill="#fcc368" fill-rule="evenodd"/>
        <path id="Path_11716" data-name="Path 11716" d="M238.342,339.75a3.779,3.779,0,0,0-3.733-3.27h-6.333c-2.223,0-2.6,2.1-3.078,4.25-.242,1.074,4.611,2.285,4.228,3.288h5.184a3.775,3.775,0,0,0,3.768-3.766,3.633,3.633,0,0,0-.035-.5Zm0,0" transform="translate(-179.664 -267.68)" fill="#fcc368" fill-rule="evenodd"/>
        <path id="Path_11717" data-name="Path 11717" d="M17.651,336.48H11.317a3.769,3.769,0,0,0,0,7.538h5.171l4.912-4.663Zm0,0" transform="translate(-7.555 -267.68)" fill="#fcc368" fill-rule="evenodd"/>
        <path id="Path_11718" data-name="Path 11718" d="M78.3,336.48H47.22c-2.222,0-2.565,2.255-2.087,4.415a23.5,23.5,0,0,0,.926,3.123,21.034,21.034,0,0,0,12.124,12.324l7.177,4.486,9.583-4.486a21.743,21.743,0,0,0,11.942-12.324,22,22,0,0,0,.938-3.123c.478-2.16.141-4.415-2.088-4.415Zm0,0" transform="translate(-37.124 -267.68)" fill="#f78411" fill-rule="evenodd"/>
        <path id="Path_11719" data-name="Path 11719" d="M84.658,431.434H60.321a3.1,3.1,0,0,0-3.09,3.094v3.228a3.1,3.1,0,0,0,3.09,3.093H93.245a3.1,3.1,0,0,0,3.09-3.093v-3.228a2.582,2.582,0,0,0-.042-.479,3.1,3.1,0,0,0-3.049-2.615Zm0,0" transform="translate(-46.84 -342.771)" fill="gray" fill-rule="evenodd"/>
        <path id="Path_11720" data-name="Path 11720" d="M174.755,336.48h-6.445c2.223,0,2.565,2.255,2.087,4.415a22.009,22.009,0,0,1-6.079,10.95c-.095.088-.189.183-.284.271a21.392,21.392,0,0,1-6.522,4.226h6.452a21.121,21.121,0,0,0,3.3-1.718,21.91,21.91,0,0,0,9.576-13.73,7.008,7.008,0,0,0,.172-1.145c.129-1.741-.426-3.27-2.259-3.27Zm0,0" transform="translate(-126.144 -267.68)" fill="#f74311" fill-rule="evenodd"/>
        <path id="Path_11721" data-name="Path 11721" d="M208.059,434.05a3.1,3.1,0,0,0-3.049-2.616h-6.452a3.107,3.107,0,0,1,3.055,2.616,3.18,3.18,0,0,1,.035.478v3.228a3.1,3.1,0,0,1-3.09,3.093h6.452a3.1,3.1,0,0,0,3.09-3.093v-3.228a2.645,2.645,0,0,0-.042-.478Zm0,0" transform="translate(-158.605 -342.772)" fill="#666" fill-rule="evenodd"/>
        <path id="Path_11722" data-name="Path 11722" d="M462.844,146.721a4.545,4.545,0,0,0-3.509-1.67H453.16a4.572,4.572,0,0,1,4.553,4.556v13.765a4.569,4.569,0,0,1-4.553,4.557h6.175a4.572,4.572,0,0,0,4.552-4.557V149.607a4.528,4.528,0,0,0-1.043-2.886Zm0,0" transform="translate(-359.95 -116.293)" fill="#c2c7cc" fill-rule="evenodd"/>
        <path id="Path_11723" data-name="Path 11723" d="M335.355,144.4q-3.53-.832-7.077-1.357c-.831,7.5,6.6,8.93,7.077,9.013Zm0,0" transform="translate(-261.139 -114.708)" fill="gray" fill-rule="evenodd"/>
        <path id="Path_11724" data-name="Path 11724" d="M186.652,143.047q-3.5.531-7.011,1.357v7.644C180.661,151.847,187.443,150.206,186.652,143.047Zm0,0" transform="translate(-143.644 -114.708)" fill="gray" fill-rule="evenodd"/>
        <path id="Path_11725" data-name="Path 11725" d="M345.856,146.1q-2.176-.514-4.364-.909v6.581a10.653,10.653,0,0,0,4.364,1.983Zm0,0" transform="translate(-271.64 -116.404)" fill="#666" fill-rule="evenodd"/>
      </g>
      <path id="Path_11726" data-name="Path 11726" d="M70.023,230.4a1.581,1.581,0,0,0,2.207,2.264c3.16-3.08,1.865-5.614,1.008-7.292-.8-1.574-1.137-2.226.558-3.822a1.581,1.581,0,0,0-2.167-2.3c-3.424,3.223-2.09,5.834-1.207,7.562C71.195,228.32,71.514,228.945,70.023,230.4Zm0,0" transform="translate(-54.891 -173.046)"/>
      <path id="Path_11727" data-name="Path 11727" d="M111.843,189.877a1.581,1.581,0,0,0,2.207,2.264c3.161-3.081,1.864-5.616,1.005-7.293-.806-1.574-1.139-2.226.556-3.821a1.581,1.581,0,0,0-2.167-2.3c-3.424,3.223-2.088,5.835-1.2,7.563C113.014,187.8,113.333,188.425,111.843,189.877Zm0,0" transform="translate(-87.96 -141.002)"/>
      <path id="Path_11728" data-name="Path 11728" d="M219.247,175.784a1.573,1.573,0,0,0,1.128-.475,4.2,4.2,0,0,1,3.325,0,1.581,1.581,0,1,0,2.243-2.228,5.806,5.806,0,0,0-3.918-1.281h-.032a5.744,5.744,0,0,0-3.875,1.29,1.582,1.582,0,0,0,1.129,2.689Zm0,0" transform="translate(-172.135 -135.868)"/>
      <path id="Path_11729" data-name="Path 11729" d="M280.453,175.784a1.57,1.57,0,0,0,1.127-.475,4.207,4.207,0,0,1,3.326,0,1.581,1.581,0,1,0,2.243-2.228,5.807,5.807,0,0,0-3.918-1.281H283.2a5.744,5.744,0,0,0-3.875,1.29,1.582,1.582,0,0,0,1.129,2.689Zm0,0" transform="translate(-220.539 -135.868)"/>
      <path id="Path_11730" data-name="Path 11730" d="M263.909,58.745a1.581,1.581,0,0,0,1.58-1.581V49.9a1.581,1.581,0,0,0-3.161,0v7.26A1.581,1.581,0,0,0,263.909,58.745Zm0,0" transform="translate(-207.455 -38.217)"/>
      <path id="Path_11731" data-name="Path 11731" d="M212.6,64.012a1.581,1.581,0,0,0-1.58,1.581v7.254a1.581,1.581,0,0,0,3.161,0V65.593A1.581,1.581,0,0,0,212.6,64.012Zm0,0" transform="translate(-166.879 -50.623)"/>
      <path id="Path_11732" data-name="Path 11732" d="M315.217,74.428a1.581,1.581,0,0,0,1.58-1.581V65.592a1.581,1.581,0,0,0-3.161,0v7.254a1.581,1.581,0,0,0,1.581,1.581Zm0,0" transform="translate(-248.031 -50.623)"/>
      <path id="Path_11733" data-name="Path 11733" d="M100.966,54.8a6.143,6.143,0,0,0,6.133-6.138V34.9a6.142,6.142,0,0,0-6.133-6.137H94.255A6.142,6.142,0,0,0,88.122,34.9V48.661A6.143,6.143,0,0,0,94.255,54.8H96.03V76.936H94.721a5.3,5.3,0,0,0-1.311.164L91.9,70.711c-1.753-7.43-7.923-11.448-18.341-11.941h-.022a5.435,5.435,0,0,1-2.189-.48c-.025-.011-.048-.025-.074-.035A5.2,5.2,0,0,1,69.3,56.425c.337-.259.67-.524.993-.8,4.57-3.9,7.086-8.852,7.086-13.94V31.508a1.523,1.523,0,0,0,0-.46V20.672c2.96-2.17,4.182-5.273,3.275-8.444-1.106-3.866-5.051-6.565-9.6-6.565H66.6A9.572,9.572,0,0,0,58.381.055,12.367,12.367,0,0,0,46.773,5.662h-4.26c-4.611,0-8.615,2.74-9.737,6.663-.9,3.137.3,6.2,3.22,8.346V42.505c0,5.33,3.247,9.523,5.971,12.1.653.619,1.344,1.207,2.062,1.762A5.242,5.242,0,0,1,42,58.261l-.007,0a5.4,5.4,0,0,1-2.245.5h-.022a36.6,36.6,0,0,0-4.5.477l-.017,0c-6.88,1.194-11.324,4.4-13.253,9.553H5.343a5.35,5.35,0,0,0,0,10.7H9.452A22.61,22.61,0,0,0,16.6,88.665H15.062a4.677,4.677,0,0,0-4.671,4.674v3.228a4.677,4.677,0,0,0,4.671,4.674H24.32a1.581,1.581,0,0,0,0-3.161H15.062a1.512,1.512,0,0,1-1.509-1.512V93.339a1.513,1.513,0,0,1,1.509-1.512H47.985a1.514,1.514,0,0,1,1.478,1.2,1.425,1.425,0,0,0,.024.155,1.376,1.376,0,0,1,.008.154v3.228a1.513,1.513,0,0,1-1.51,1.512H31.521a1.581,1.581,0,0,0,0,3.161H47.985a4.678,4.678,0,0,0,4.671-4.674V94.441H89.431a5.306,5.306,0,0,0,5.289,5.053h2.89A8.2,8.2,0,0,0,105.8,91.3V85.128a8.2,8.2,0,0,0-6.605-8.036V54.8ZM88.824,71.437l1.767,7.487a5.276,5.276,0,0,0-1.165,3.312V91.28h-4.5L82.345,76.314a4.963,4.963,0,0,0-2.892-3.938v-9.61C84.686,64.106,87.77,66.971,88.824,71.437ZM76.292,62.176v9.9H72.241V61.818a9.813,9.813,0,0,0,1.18.109c1.007.048,1.963.132,2.871.248Zm-14.839,9.9a5.358,5.358,0,0,0-4.928-3.27H44.335V63.985c3.015,2.2,7.389,3.183,11.222,3.33q.5.02,1.023.02c4.171,0,9.1-.958,12.5-3.487v8.225Zm-7.63,3.067a7.813,7.813,0,0,0,.111-3.176h2.591a2.188,2.188,0,0,1,0,4.376h-3q.165-.594.3-1.2Zm20.393-42.6V36.8a6.111,6.111,0,0,1-3.935-5.026q1.971.335,3.935.766Zm-31.189-.764a6.109,6.109,0,0,1-3.868,4.987V32.539q1.93-.428,3.868-.761ZM39.158,42.505v-2.37a11.967,11.967,0,0,0,3.569-1.852,8.773,8.773,0,0,0,3.5-6.991c2.381-.314,4.76-.521,7.12-.618a1.581,1.581,0,1,0-.128-3.159,82.809,82.809,0,0,0-8.768.833l-.039,0c-.056.007-.111.016-.166.027q-2.548.385-5.092.927v-9.47a1.579,1.579,0,0,0-.745-1.342c-2.249-1.4-3.172-3.282-2.6-5.3.62-2.171,3.12-4.37,6.7-4.37H47.69a1.581,1.581,0,0,0,1.407-.86A9.149,9.149,0,0,1,58.08,3.2a6.415,6.415,0,0,1,5.89,4.482,1.58,1.58,0,0,0,1.518,1.139h5.567c3.665,0,5.968,2.216,6.556,4.274.577,2.019-.389,3.985-2.651,5.394a1.579,1.579,0,0,0-.745,1.342V29.3q-2.555-.537-5.121-.918a1.615,1.615,0,0,0-.2-.037c-.021,0-.042,0-.064,0-2.663-.39-5.325-.658-7.967-.794a1.581,1.581,0,1,0-.163,3.157c2.115.109,4.244.309,6.377.587a8.77,8.77,0,0,0,3.768,7.195,12.067,12.067,0,0,0,3.37,1.668v1.526c0,4.148-2.123,8.245-5.977,11.536a21.058,21.058,0,0,1-11.7,5.083c-.092,0-.188.008-.287.008-2.218,0-5.793-1.29-9.161-3.618a1.677,1.677,0,0,0-.162-.112,24.747,24.747,0,0,1-2.786-2.272c-2.273-2.151-4.983-5.6-4.983-9.805ZM56.252,61.473c.156,0,.31,0,.461-.013A22.539,22.539,0,0,0,66.68,58.2a9.11,9.11,0,0,0,1.765,1.957c-2.58,2.99-8.049,4.179-12.765,4-4.9-.188-9.024-1.753-10.822-4.007a9.174,9.174,0,0,0,1.776-1.982c3.328,2.044,6.877,3.306,9.618,3.306Zm-16.381.455a9.891,9.891,0,0,0,1.3-.132V68.8H37.124V62.16q1.307-.161,2.747-.231Zm-5.908.806V68.8H25.414C26.942,65.789,29.77,63.779,33.962,62.734ZM5.344,76.34a2.188,2.188,0,0,1,0-4.376H7.936a7.8,7.8,0,0,0,.11,3.176v0c.09.4.192.8.3,1.2Zm17.6,12.325A19.671,19.671,0,0,1,11.133,74.457a3.316,3.316,0,0,1,.087-2.357c.034-.041.11-.136.456-.136H50.192c.348,0,.426.1.458.136a3.324,3.324,0,0,1,.086,2.356A20.18,20.18,0,0,1,39.08,88.665Zm29.232,2.615a4.676,4.676,0,0,0-4.192-2.615H45.26A23.391,23.391,0,0,0,52.4,79.5h4.125a5.357,5.357,0,0,0,5.24-4.268H77.872c1.055,0,1.327,1.439,1.356,1.611l2.494,14.436Zm50.457-6.152V91.3a5.033,5.033,0,0,1-5.024,5.03H94.721a2.142,2.142,0,0,1-2.135-2.144V82.236a2.133,2.133,0,0,1,.756-1.629l.043-.035A2.12,2.12,0,0,1,94.72,80.1h2.89a5.033,5.033,0,0,1,5.024,5.03ZM91.283,48.661V34.9a2.978,2.978,0,0,1,2.973-2.976h6.711a2.978,2.978,0,0,1,2.972,2.976V48.661a2.978,2.978,0,0,1-2.972,2.977H94.255A2.978,2.978,0,0,1,91.283,48.661Zm0,0" transform="translate(0)"/>
    </g>
  </g>
</svg>
