<svg xmlns="http://www.w3.org/2000/svg" width="213.191" height="213.191" viewBox="0 0 213.191 213.191">
  <g id="Group_483" data-name="Group 483" transform="translate(-608.218 1737.581) rotate(45)" opacity="0.16">
    <path id="Path_490" data-name="Path 490" d="M-647.385-1658.2a85.255,85.255,0,0,0,17.15-2.154A34.991,34.991,0,0,0-615-1668.2a53.752,53.752,0,0,0,5.042-5.657q2.808-3.465,5.616-6.93c2.725,1.455.073,6.86,2.813,8.286l6.193-3.934a2.264,2.264,0,0,1,1.112-.452,7.706,7.706,0,0,1,1.363.341c1.013.164,1.892-.63,2.781-1.142s2.337-.568,2.64.413l-4.685,6.727c-.724,1.04-1.245,2.831-.054,3.263a2.03,2.03,0,0,0,1.516-.263c2.3-1.093,4.429-2.515,6.771-3.508a10.931,10.931,0,0,1,7.429-.777,21.68,21.68,0,0,0-2.277,4.488c-.26.706-.419,1.645.191,2.084a1.82,1.82,0,0,0,1.007.241l3.926.166a6.048,6.048,0,0,0,3.871,4.449c-1.21,1.036-2.547,2.481-2.052,4a7.114,7.114,0,0,1,.607,1.544c.1,1.287-1.534,1.893-2.812,2.081l-5.487.805a6.792,6.792,0,0,0,2.848,3c-1,.458-.984,2.015-.229,2.817a5.281,5.281,0,0,0,3,1.246c-1.422,1.132-2.965,3.116-1.807,4.516.73.885,2.066.822,3.208.933a7.9,7.9,0,0,1,3.5,1.218,1.547,1.547,0,0,1,.785.938c.176,1.028-1.3,1.349-2.21,1.853-1.708.942-1.827,3.458-3.31,4.725-1.842,1.575-5.268.814-6.449,2.931l7.6,4.255a2.372,2.372,0,0,0-.8,3.318c.611.869,1.823,2.015.964,2.64a1.748,1.748,0,0,1-1.134.144,4.06,4.06,0,0,0-3.7,2.105,4.059,4.059,0,0,0,.34,4.247l-7.784-4.474c-1.222-.7-2.845-1.382-3.928-.48a2.557,2.557,0,0,0-.231,3.183,15.712,15.712,0,0,0,2.33,2.56,9.53,9.53,0,0,1,2.536,6.475c-3.562-1.836-7.6-2.475-11.561-3.089q.171,2.249.343,4.5a13.548,13.548,0,0,0-4.708.542c-1.607.481-1.842,2.708-1.271,4.285a9.868,9.868,0,0,0,3.165,3.837c-1.1-.088-2.448-.055-3,.9-.47.813-.209,2.1-1.044,2.526-.729.377-1.561-.308-2.38-.336-1.376-.046-2.283,1.718-3.66,1.726-2.289.013-2.42-4.358-4.705-4.489-.064,1.433-.394,3.22-1.781,3.588a2.469,2.469,0,0,1-2.629-1.535,12.667,12.667,0,0,1-.727-3.211,11.1,11.1,0,0,0-1.832-4.333,2.95,2.95,0,0,0-1.9-1.417c-1.378-.157-2.341,1.34-2.714,2.676s-.626,2.9-1.8,3.63a6.037,6.037,0,0,0-3.969-2.6,6.152,6.152,0,0,1-1.435-.305c-1.308-.57-1.637-2.266-1.6-3.693s.225-3-.623-4.145a1.613,1.613,0,0,0-1.61-.722c-.91.242-1.192,1.486-2.051,1.873-1.215.547-2.365-.972-2.574-2.287s-.17-2.884-1.243-3.673c-.566-.417-1.436-.63-1.545-1.323a1.517,1.517,0,0,1,.309-.989,34.524,34.524,0,0,0,2.7-4.256,10.166,10.166,0,0,0-.064-7.3,30.2,30.2,0,0,0-3.6-6.529l-8.633-12.991c-1.795-2.7-3.78-5.56-6.808-6.721a2.5,2.5,0,0,0-2.472.089,1.9,1.9,0,0,0-.448,2.429c.571.917,1.777,1.141,2.824,1.41a13.237,13.237,0,0,1,5.493,2.933c.364.326.742.81.54,1.256-.213.47-.863.476-1.378.449a9.927,9.927,0,0,0-3.387.412.754.754,0,0,0-.507.337.722.722,0,0,0,.07.585c1.043,2.291,3.692,3.258,5.876,4.51a17.491,17.491,0,0,1,5.556,5.045c-.981.758-2.373.215-3.585-.053s-2.943.254-2.8,1.486a2.134,2.134,0,0,0,.552,1.048,16.391,16.391,0,0,0,3.3,3.057,7.416,7.416,0,0,1,1.86,1.547,1.947,1.947,0,0,1,.16,2.261c-.262.341-.676.551-.9.918-.647,1.063.591,2.8-.4,3.55a1.738,1.738,0,0,1-1.193.217,13.532,13.532,0,0,1-7.9-3.367c-.575-.513-1.375-1.112-2.022-.694-.8.519-.213,1.762.462,2.435a22.306,22.306,0,0,0,8.182,5.172,2.577,2.577,0,0,0-.436,3.262c.368.552.974,1,1.056,1.654.125,1-1.093,1.694-2.093,1.574a15.326,15.326,0,0,1-2.823-1.045c-.956-.316-2.225-.21-2.682.688a2.272,2.272,0,0,0,.53,2.33,8.465,8.465,0,0,1,1.506,2.014c.306.785.018,1.9-.808,2.065-.722.146-1.513-.484-2.161-.136-.809.434-.4,1.783-1.009,2.471-.636.721-1.825.234-2.576-.367s-1.689-1.328-2.565-.931c-.527.239-.812.818-1.286,1.151-1.034.726-2.512,0-3.271-1.007s-1.146-2.28-2-3.212-2.526-1.35-3.311-.359c-.51.642-.479,1.678-1.168,2.122-1.022.659-2.173-.682-2.539-1.842s-.955-2.655-2.168-2.567c-1.545.113-1.734,2.675-3.218,3.12-1.2.359-2.281-.988-2.391-2.233s.339-2.488.243-3.735-1.14-2.612-2.349-2.292c-.523.138-1.011.575-1.533.431-.957-.261-.5-1.691-.619-2.676-.223-1.843-2.852-2.274-3.791-3.876a24.171,24.171,0,0,1-.824-2.647c-.372-.849-1.529-1.516-2.2-.875a1.909,1.909,0,0,0-.417.773l-1.3,3.677a2.7,2.7,0,0,0-3.681.278c-.925.467-1.777-.81-1.864-1.842s-.1-2.333-1.046-2.75c-.715-.314-1.916-.153-1.96-.933a2.93,2.93,0,0,0,1.216-4.4c-.858-1.04-2.475-1.5-2.818-2.8-.33-1.253.766-2.5.6-3.79-.136-1.07-1.128-2.067-.743-3.075.188-.489.66-.809.932-1.258.965-1.6-.981-3.455-1-5.319-.014-1.415,1.105-2.811.6-4.132-.274-.716-.991-1.242-1.092-2-.105-.782.481-1.489.588-2.271.163-1.188-.792-2.378-.439-3.523.345-1.118,1.738-1.561,2.32-2.575.691-1.2.059-2.861.8-4.037.712-1.139,2.282-1.25,3.549-1.694a5.852,5.852,0,0,0,2.293-1.482,2.916,2.916,0,0,0,.935-2.529c-.393-1.745-3.578-1.9-4.914-2.239q-3.849-.969-7.642-2.15a150.986,150.986,0,0,1-14.892-5.489,4.394,4.394,0,0,1,3.77-2.392,13.314,13.314,0,0,1,4.612.733,153.046,153.046,0,0,0,16.986,3.9c5.2.834,10.957,1.143,15.284-1.856a30.28,30.28,0,0,0-8.672-5.913c.53-.76,1.694-.847,2.236-1.6.622-.863.085-2.1-.669-2.85a10.048,10.048,0,0,1-2.211-2.274c-.891-1.771.24-4.28-1.131-5.712l2.467-.743q-.694-3.408-1.386-6.815a1.586,1.586,0,0,1-.007-.9c.32-.8,1.5-.563,2.321-.824,1.466-.464,1.6-2.464,1.411-3.99s-.186-3.492,1.225-4.1c1.006.989,2.643.776,4.024.494l2.466-.5c.456-.776,1.643-.509,2.418-.051s1.732,1.021,2.5.546a2.18,2.18,0,0,0,.762-1.708,26.281,26.281,0,0,0-.52-8.679c-.121-.523-.156-1.246.353-1.417a.912.912,0,0,1,.447-.008c2.117.362,3.64,2.835,5.773,2.579,1.752-.211,2.675-2.1,3.592-3.612s2.848-2.962,4.281-1.931a3.657,3.657,0,0,1,1.1,1.745l1.512,3.9c.245.634.622,1.371,1.3,1.422.63.047,1.138-.55,1.764-.638,1.035-.144,1.7,1.073,1.908,2.1s.423,2.264,1.393,2.652c1.02.407,2.154-.541,2.424-1.6a8.3,8.3,0,0,0-.193-3.262,13.126,13.126,0,0,1,.123-4.6c.164-.794.533-1.7,1.326-1.871.841-.179,1.584.614,1.9,1.414a8.67,8.67,0,0,0,.959,2.377c.537.671,1.78.868,2.162.1,4.323-1.093,6.849-7.186,11.3-7.479,1.03,1.879-1.752,4.666-.156,6.1.474.424,1.178.495,1.679.885,1.2.934.53,2.856-.349,4.1s-1.922,2.819-1.163,4.135a.977.977,0,0,0,.943.559,1.272,1.272,0,0,0,.582-.353,38.461,38.461,0,0,0,4.658-4.988,13.516,13.516,0,0,1,2.475-2.724,3.714,3.714,0,0,1,3.471-.67,1.238,1.238,0,0,1,.8.762,1.382,1.382,0,0,1-.1.808c-.611,1.669-2.046,2.988-2.416,4.726a4.266,4.266,0,0,0,2.674,4.751,5.246,5.246,0,0,1,6.592-.817,1.078,1.078,0,0,1,.521.631,1.16,1.16,0,0,1-.231.781,18.761,18.761,0,0,1-2.482,3.269c-1,1.057-2.206,2.332-1.82,3.734.462,1.676,2.7,1.927,4.437,1.832s3.971.133,4.46,1.8a9.464,9.464,0,0,1-4.941,3.135c.891-.086,1.369,1.208.9,1.968a3.361,3.361,0,0,1-2.3,1.231c-3.868.8-8.407.941-10.816,4.073.662,1.148,2.307,1.172,3.6.874s2.721-.75,3.875-.1c1.35.765,1.872,2.842,3.416,3a17.291,17.291,0,0,1-7.749,3.968c-.72.159-.029.918.464,1.466a19.374,19.374,0,0,1,1.617,1.5c.427.6.386,1.649-.318,1.868a2.46,2.46,0,0,1-1.278-.2c-1.37-.339-2.721.579-4.125.726a18.156,18.156,0,0,1-3.3-.34,2.872,2.872,0,0,0-2.885,1.212c-.574,1.156.221,2.49.94,3.562s1.39,2.526.63,3.568c-.635.871-1.9.91-2.973.866a7.757,7.757,0,0,1-3.5-.7c-.839-.467-2.043-1.179-2.551-.364-.527.845.817,1.789.7,2.777-.114.939-1.44,1.179-2.3.794a14.359,14.359,0,0,0-2.49-1.336c-1.187-.265-2.529.411-3.6-.164a4.663,4.663,0,0,1-1.2-1.179c-2.607-3.005-7.176-3.037-11.148-2.83-1.549.08-3.315.274-4.215,1.537a3.234,3.234,0,0,0-.1,3.289,5.8,5.8,0,0,0,2.483,2.336,19.518,19.518,0,0,0,5.793,1.71C-655.389-1660.292-651.045-1658.029-647.385-1658.2Z" transform="translate(0 0)" fill="none" stroke="#636033" stroke-linecap="round" stroke-linejoin="round" stroke-width="1.3"/>
    <path id="Path_491" data-name="Path 491" d="M-565.575-1624.493a5.276,5.276,0,0,0-3.892,1.609,2.127,2.127,0,0,0-.548,2.078,2.362,2.362,0,0,0,.712.893,8.537,8.537,0,0,0,6.885,1.675c1.708-.28,6.049-1.418,4.958-4.021C-558.155-1623.918-563.947-1624.529-565.575-1624.493Z" transform="translate(-31.618 -20.9)" fill="none" stroke="#636033" stroke-linecap="round" stroke-linejoin="round" stroke-width="1.3"/>
    <path id="Path_492" data-name="Path 492" d="M-582.61-1596.63a2.215,2.215,0,0,0-1.007-.553,1.135,1.135,0,0,0-.771.162,1.792,1.792,0,0,0-.81,1.461,4.09,4.09,0,0,0,.982,2.329c.905,1.252,2.774,2.762,4.2.973S-581.3-1595.559-582.61-1596.63Z" transform="translate(-28.587 -26.385)" fill="none" stroke="#636033" stroke-linecap="round" stroke-linejoin="round" stroke-width="1.3"/>
    <path id="Path_493" data-name="Path 493" d="M-726.015-1661.841a27.631,27.631,0,0,1,13.676,1.859,64.227,64.227,0,0,0,6.8,2.839c1.766.5,3.611.661,5.38,1.147a20.347,20.347,0,0,1,6.41,3.208c8.167,5.859,12.891,15.433,15.7,25.083,2.023,6.947,3.334,14.365,7.663,20.165" transform="translate(-0.296 -13.359)" fill="none" stroke="#636033" stroke-linecap="round" stroke-linejoin="round" stroke-width="1.3"/>
    <path id="Path_494" data-name="Path 494" d="M-682.793-1656.071l4.224-.813a38.11,38.11,0,0,0,9.071-2.539,32.757,32.757,0,0,0,8.271-6.079c4.571-4.289,8.8-8.948,13.55-13.034s10.141-7.629,16.206-9.21" transform="translate(-8.98 -8.193)" fill="none" stroke="#636033" stroke-linecap="round" stroke-linejoin="round" stroke-width="1.3"/>
    <path id="Path_495" data-name="Path 495" d="M-680.723-1648.208c5.4.036,10.185,3.214,15.107,5.438,5.239,2.367,10.871,3.707,16.418,5.218q11.6,3.162,22.881,7.386c4.49,1.682,9.229,3.521,13.947,2.665a23.419,23.419,0,0,0,7.2-3c6.9-3.905,13.839-8.51,21.745-9.057" transform="translate(-9.395 -16.136)" fill="none" stroke="#636033" stroke-linecap="round" stroke-linejoin="round" stroke-width="1.3"/>
    <path id="Path_496" data-name="Path 496" d="M-611.608-1625.244c1.589.959,2.5,2.862,3.244,4.56,4.38,9.972,5.093,21.52,11.079,30.62" transform="translate(-23.281 -20.75)" fill="none" stroke="#636033" stroke-linecap="round" stroke-linejoin="round" stroke-width="1.3"/>
    <path id="Path_497" data-name="Path 497" d="M-670.433-1625.824c-1.311,7.839-8.068,14.8-8.771,22.72" transform="translate(-9.701 -20.633)" fill="none" stroke="#636033" stroke-linecap="round" stroke-linejoin="round" stroke-width="1.3"/>
    <path id="Path_498" data-name="Path 498" d="M-664.583-1613.984c2.612,3.353,6.976,5.356,9.536,8.749" transform="translate(-12.638 -23.012)" fill="none" stroke="#636033" stroke-linecap="round" stroke-linejoin="round" stroke-width="1.3"/>
    <path id="Path_499" data-name="Path 499" d="M-635.8-1681.555c.7-.346,1.467-2.092,1.806-2.791a45.731,45.731,0,0,1,5.365-8.516" transform="translate(-18.42 -7.165)" fill="none" stroke="#636033" stroke-linecap="round" stroke-linejoin="round" stroke-width="1.3"/>
    <path id="Path_500" data-name="Path 500" d="M-629.363-1669.086c-5.113.085-10.005,2.109-15.1,2.6a22.786,22.786,0,0,0-7.413,1.7" transform="translate(-15.192 -11.941)" fill="none" stroke="#636033" stroke-linecap="round" stroke-linejoin="round" stroke-width="1.3"/>
    <path id="Path_501" data-name="Path 501" d="M-660.858-1661.446c3.992-6.934,2.527-15.837,5.14-23.4" transform="translate(-13.387 -8.775)" fill="none" stroke="#636033" stroke-linecap="round" stroke-linejoin="round" stroke-width="1.3"/>
    <path id="Path_502" data-name="Path 502" d="M-676.71-1639.422c-.493,3.084-2.55,6.047-4.14,8.736s-2.877,5.919-1.879,8.878" transform="translate(-8.922 -17.901)" fill="none" stroke="#636033" stroke-linecap="round" stroke-linejoin="round" stroke-width="1.3"/>
    <path id="Path_503" data-name="Path 503" d="M-596.687-1624.951c2.981-.737,5.323-3.3,7.324-5.627s4.119-4.8,7.042-5.741" transform="translate(-26.279 -18.524)" fill="none" stroke="#636033" stroke-linecap="round" stroke-linejoin="round" stroke-width="1.3"/>
    <path id="Path_504" data-name="Path 504" d="M-604.975-1608.039c.433-.031.576.579.5,1.007a8.854,8.854,0,0,1-.789,2.127l-1.728,3.659c-1.022,2.166-2.067,4.588-1.362,6.877" transform="translate(-23.888 -24.206)" fill="none" stroke="#636033" stroke-linecap="round" stroke-linejoin="round" stroke-width="1.3"/>
    <path id="Path_505" data-name="Path 505" d="M-600.473-1596.864a13.344,13.344,0,0,0,5.273,4.744c2.081,1.177,4.272,2.311,5.79,4.159" transform="translate(-25.518 -26.451)" fill="none" stroke="#636033" stroke-linecap="round" stroke-linejoin="round" stroke-width="1.3"/>
  </g>
</svg>
