<svg xmlns="http://www.w3.org/2000/svg" width="98" height="98" viewBox="0 0 98 98">
  <g id="Group_10399" data-name="Group 10399" transform="translate(-2033 -1923)">
    <g id="ketogenic-diet" transform="translate(2033 1923)">
      <g id="Group_10364" data-name="Group 10364" transform="translate(1.581 1.581)">
        <g id="Group_10351" data-name="Group 10351" transform="translate(18.968)">
          <path id="Path_11734" data-name="Path 11734" d="M35.129,4.161v6.323H13V4.161A3.171,3.171,0,0,1,16.161,1H31.968A3.171,3.171,0,0,1,35.129,4.161Z" transform="translate(-13 -1)" fill="#aab2bd"/>
        </g>
        <g id="Group_10352" data-name="Group 10352" transform="translate(12.645 9.484)">
          <path id="Path_11735" data-name="Path 11735" d="M43.774,8.581v3.161a1.585,1.585,0,0,1-1.581,1.581H10.581A1.585,1.585,0,0,1,9,11.742V8.581A1.585,1.585,0,0,1,10.581,7H42.194A1.585,1.585,0,0,1,43.774,8.581Z" transform="translate(-9 -7)" fill="#fcd770"/>
        </g>
        <g id="Group_10353" data-name="Group 10353" transform="translate(9.484 15.806)">
          <path id="Path_11736" data-name="Path 11736" d="M13.323,47.766a13.115,13.115,0,0,0-3.13,2.118A9.815,9.815,0,0,0,7.427,54.2a9.16,9.16,0,0,0-.411,2.687H7V28.514a11.339,11.339,0,0,1,9.484-11.191V11H38.613v6.323A11.375,11.375,0,0,1,47.5,24.846a51.007,51.007,0,0,0-17.4,17.7L27.959,46.2c-5.611-.933-10.812-.332-14.637,1.565Z" transform="translate(-7 -11)" fill="#ffeaa7"/>
        </g>
        <g id="Group_10355" data-name="Group 10355" transform="translate(0 79.032)">
          <g id="Group_10354" data-name="Group 10354">
            <path id="Path_11737" data-name="Path 11737" d="M48.419,60.484C22.228,60.484,1,56.232,1,51v6.323c0,5.238,21.23,9.484,47.419,9.484s47.419-4.246,47.419-9.484V51C95.839,56.232,74.611,60.484,48.419,60.484Z" transform="translate(-1 -51)" fill="#cf9e76"/>
          </g>
        </g>
        <g id="Group_10356" data-name="Group 10356" transform="translate(0 72.251)">
          <path id="Path_11738" data-name="Path 11738" d="M88.078,48.291c4.9,1.486,7.761,3.272,7.761,5.2,0,5.232-21.228,9.484-47.419,9.484S1,58.723,1,53.491c0-2.655,5.453-5.058,14.257-6.781a32.068,32.068,0,0,0,13.009,8.109c10.669,3.635,21.086,1.691,24.927-4.236a2.392,2.392,0,0,0-.032.474,5.613,5.613,0,0,0,5.6,5.6h1.375A5.553,5.553,0,0,0,64.3,54.771l3.319-3.715a12.653,12.653,0,0,0,20.454-2.766Z" transform="translate(-1 -46.71)" fill="#ecc19c"/>
        </g>
        <g id="Group_10357" data-name="Group 10357" transform="translate(30.443 22.129)">
          <path id="Path_11739" data-name="Path 11739" d="M47.542,61.6l-3.92,3.92c-.095.095-.19.19-.285.3a7.586,7.586,0,0,0,.174-1.2c.648-7.287-6.781-15.6-17.735-19.331a35.348,35.348,0,0,0-5.516-1.407l2.134-3.651A51.191,51.191,0,0,1,66.494,15,13.428,13.428,0,0,1,78.9,33.541,13.66,13.66,0,0,1,75.978,37.9l-3.525,3.525a6.214,6.214,0,0,0-2.292-1c.506-1.755.537-3.683-1.96-6.212a5.912,5.912,0,0,0-4.189-1.834A6.325,6.325,0,0,0,57.927,37.4a6.23,6.23,0,0,0-1.723-.269,6.321,6.321,0,0,0-6.323,6.323,6.23,6.23,0,0,0,.269,1.723,6.323,6.323,0,0,0-2.766,11.017,3.674,3.674,0,0,1,.158,5.406Z" transform="translate(-20.26 -15)" fill="#cf9e76"/>
        </g>
        <g id="Group_10358" data-name="Group 10358" transform="translate(66.624 58.025)">
          <path id="Path_11740" data-name="Path 11740" d="M60.205,37.71A12.645,12.645,0,1,1,43.15,56.283l4.236-4.774a6.324,6.324,0,1,0,9.484-8.33,6.459,6.459,0,0,0,.269-1.849,6.23,6.23,0,0,0-.269-1.723A6.212,6.212,0,0,0,60.205,37.71Z" transform="translate(-43.15 -37.71)" fill="#e6e9ed"/>
        </g>
        <g id="Group_10359" data-name="Group 10359" transform="translate(70.86 63.495)">
          <path id="Path_11741" data-name="Path 11741" d="M55.314,41.17A6.325,6.325,0,1,1,45.83,49.5l3.43-3.857A6.332,6.332,0,0,0,55.314,41.17Z" transform="translate(-45.83 -41.17)" fill="#fcd770"/>
        </g>
        <g id="Group_10360" data-name="Group 10360" transform="translate(52.161 39.516)">
          <path id="Path_11742" data-name="Path 11742" d="M62.183,46.406a6.23,6.23,0,0,1,.269,1.723,6.459,6.459,0,0,1-.269,1.849,6.332,6.332,0,0,1-6.054,4.473L52.7,58.308l-4.236,4.774L45.144,66.8a5.553,5.553,0,0,1-4.173,1.881H39.6a5.613,5.613,0,0,1-5.6-5.6,2.393,2.393,0,0,1,.032-.474,9.218,9.218,0,0,0,1.122-2.355,7.807,7.807,0,0,0,.205-.822c.095-.111.19-.205.285-.3l3.92-3.92a3.674,3.674,0,0,0-.158-5.406,6.323,6.323,0,0,1,2.766-11.017,6.23,6.23,0,0,1-.269-1.723,6.321,6.321,0,0,1,6.323-6.323,6.23,6.23,0,0,1,1.723.269A6.325,6.325,0,0,1,56.034,26a5.912,5.912,0,0,1,4.189,1.834c2.5,2.529,2.466,4.457,1.96,6.212a6.214,6.214,0,0,1,2.292,1,6.307,6.307,0,0,1,1.043,9.468,6.212,6.212,0,0,1-3.335,1.9Z" transform="translate(-34 -26)" fill="#b4dd7f"/>
        </g>
        <g id="Group_10361" data-name="Group 10361" transform="translate(9.496 54.69)">
          <path id="Path_11743" data-name="Path 11743" d="M51.032,53.856A5.546,5.546,0,0,0,49.7,57.034c-3.841,5.927-14.257,7.872-24.927,4.236a32.068,32.068,0,0,1-13.009-8.109C8.687,49.873,6.916,46.127,7.011,42.6a9.16,9.16,0,0,1,.411-2.687A9.815,9.815,0,0,1,10.188,35.6l.032.016c-.648,7.287,6.765,15.6,17.719,19.331C37.328,58.14,46.5,57,51.19,52.655h.016a7.586,7.586,0,0,1-.174,1.2Z" transform="translate(-7.008 -35.6)" fill="#ccd1d9"/>
        </g>
        <g id="Group_10362" data-name="Group 10362" transform="translate(12.669 50.575)">
          <path id="Path_11744" data-name="Path 11744" d="M50.025,54.167c-4.695,4.347-13.862,5.485-23.251,2.292C15.82,52.729,8.406,44.414,9.054,37.128l-.032-.016a13.115,13.115,0,0,1,3.13-2.118c3.825-1.9,9.025-2.5,14.637-1.565a35.348,35.348,0,0,1,5.516,1.407C43.26,38.566,50.689,46.88,50.041,54.167ZM32.7,45.647a4.742,4.742,0,1,0-4.742,4.742A4.736,4.736,0,0,0,32.7,45.647Z" transform="translate(-9.015 -32.996)" fill="#e6e9ed"/>
        </g>
        <g id="Group_10363" data-name="Group 10363" transform="translate(26.908 58.814)">
          <circle id="Ellipse_342" data-name="Ellipse 342" cx="5" cy="5" r="5" transform="translate(-0.488 -0.395)" fill="#fcd770"/>
        </g>
      </g>
      <g id="Group_10365" data-name="Group 10365" transform="translate(0 0)">
        <path id="Path_11745" data-name="Path 11745" d="M49,91.677c16.948,0,49-2.312,49-11.065,0-2.429-2.38-4.45-7.214-6.157a14.135,14.135,0,0,0-3.411-15.1,7.8,7.8,0,0,0-.865-9.282l2.355-2.355a14.993,14.993,0,0,0-10.6-25.6A52.738,52.738,0,0,0,52.3,29a12.907,12.907,0,0,0-8.045-6.561V18.968h3.161a3.164,3.164,0,0,0,3.161-3.161V12.645a3.164,3.164,0,0,0-3.161-3.161H44.258V4.742A4.748,4.748,0,0,0,39.516,0H23.71a4.748,4.748,0,0,0-4.742,4.742V9.484H15.806a3.164,3.164,0,0,0-3.161,3.161v3.161a3.164,3.164,0,0,0,3.161,3.161h3.161V22.44A12.885,12.885,0,0,0,9.484,34.9V63.273H9.5a15.956,15.956,0,0,0,3.509,9.544C4.272,74.8,0,77.355,0,80.613,0,89.365,32.052,91.677,49,91.677ZM88.516,69.548A11.077,11.077,0,0,1,77.452,80.613a10.933,10.933,0,0,1-7.042-2.54l2.1-2.36A7.879,7.879,0,0,0,83.635,64.685a7.939,7.939,0,0,0,.139-1.459,6.452,6.452,0,0,0-.032-.65,7.886,7.886,0,0,0,1.5-.884,10.993,10.993,0,0,1,3.272,7.856ZM15.855,57a11.688,11.688,0,0,1,2.09-1.358,19.784,19.784,0,0,1,8.937-1.909A31.8,31.8,0,0,1,37.025,55.49c9.933,3.379,16.818,10.641,16.7,17.058-4.525,3.737-12.934,4.386-21.208,1.57C22.73,70.788,15.715,63.515,15.855,57ZM56.4,75.82c.049-.158.068-.321.111-.481l3.911-3.911a5.369,5.369,0,0,0,1.565-4.013,5.108,5.108,0,0,0-1.815-3.729,4.738,4.738,0,0,1,2.071-8.259l1.657-.351-.463-1.63a4.654,4.654,0,0,1-.207-1.287,4.748,4.748,0,0,1,4.742-4.742,4.673,4.673,0,0,1,1.288.207l1.628.463.351-1.657A4.771,4.771,0,0,1,75.8,42.679a4.146,4.146,0,0,1,3.046,1.372c2.069,2.093,1.906,3.449,1.563,4.658l-.462,1.628,1.655.351a4.738,4.738,0,0,1,0,9.27l-1.657.351.463,1.63a4.654,4.654,0,0,1,.207,1.287,4.748,4.748,0,0,1-4.742,4.742h-.71L63.711,80.848a4.007,4.007,0,0,1-3,1.345H59.331a4.011,4.011,0,0,1-4.005-3.99A11.146,11.146,0,0,0,56.4,75.82Zm25.8-6.272a4.748,4.748,0,0,1-4.742,4.742,4.692,4.692,0,0,1-2.831-.958l1.99-2.238a7.872,7.872,0,0,0,5.365-2.9A4.733,4.733,0,0,1,82.194,69.548Zm7.9-32.427a11.758,11.758,0,0,1-3.465,8.366l-2.687,2.687c-.068-.032-.131-.074-.2-.1.172-1.723-.264-3.827-2.654-6.244a7.394,7.394,0,0,0-5.344-2.309,7.851,7.851,0,0,0-7.135,4.772,7.865,7.865,0,0,0-8.547,7.872,6.451,6.451,0,0,0,.032.65A7.9,7.9,0,0,0,58.128,66.1a1.975,1.975,0,0,1,.7,1.446,2.2,2.2,0,0,1-.642,1.645l-1.449,1.449C55.624,63.436,48.306,55.993,38.045,52.5c-1.185-.4-2.374-.722-3.56-1l1.038-1.766A49.781,49.781,0,0,1,78.266,25.29,11.845,11.845,0,0,1,90.1,37.121ZM22.129,4.742A1.583,1.583,0,0,1,23.71,3.161H39.516A1.583,1.583,0,0,1,41.1,4.742V9.484H22.129Zm-6.323,7.9H47.419v3.161H15.806Zm5,12.623,1.32-.22V18.968H41.1v6.081l1.32.22A9.755,9.755,0,0,1,49.6,30.649,52.665,52.665,0,0,0,32.8,48.132L31.172,50.9a27.186,27.186,0,0,0-12.2.909V33.194H15.806V53.219a13.847,13.847,0,0,0-3.161,2.445V34.905a9.74,9.74,0,0,1,8.164-9.637Zm-7.8,35.784c.043-.136.1-.266.149-.4C15,67.394,22.01,73.881,31.5,77.112a34.891,34.891,0,0,0,11.161,1.932,23.28,23.28,0,0,0,9.571-1.889,10.355,10.355,0,0,1-3.794,3.139c-4.9,2.493-12.029,2.55-19.082.147-11.158-3.8-18.492-12.493-16.35-19.388Zm2.365,14.491a33.681,33.681,0,0,0,12.969,7.892,34.849,34.849,0,0,0,11.145,1.919,22.988,22.988,0,0,0,10.388-2.243,14.832,14.832,0,0,0,2.943-1.966,7.166,7.166,0,0,0,6.512,4.209h1.385a7.178,7.178,0,0,0,5.358-2.406l2.237-2.516A14.187,14.187,0,0,0,89.365,77.3c5.407,1.829,5.474,3.3,5.474,3.315,0,2.682-16.179,7.9-45.839,7.9S3.161,83.3,3.161,80.613C3.161,79.884,5.4,77.589,15.373,75.544Z" transform="translate(0 0)"/>
        <path id="Path_11746" data-name="Path 11746" d="M49,62.9C19.341,62.9,3.161,57.682,3.161,55H0c0,8.752,32.052,11.065,49,11.065S98,63.752,98,55H94.839C94.839,57.682,78.659,62.9,49,62.9Z" transform="translate(0 31.935)"/>
        <path id="Path_11747" data-name="Path 11747" d="M23.323,49.645A6.323,6.323,0,1,0,17,43.323,6.329,6.329,0,0,0,23.323,49.645Zm0-9.484a3.161,3.161,0,1,1-3.161,3.161A3.164,3.164,0,0,1,23.323,40.161Z" transform="translate(9.871 21.484)"/>
        <path id="Path_11748" data-name="Path 11748" d="M45.742,46.645V43.484a1.581,1.581,0,1,1,0-3.161h1.581V38.742a1.581,1.581,0,0,1,3.161,0h3.161a4.742,4.742,0,0,0-9.28-1.377,4.742,4.742,0,0,0,1.377,9.28Z" transform="translate(23.806 19.742)"/>
        <path id="Path_11749" data-name="Path 11749" d="M0,0H3.161V13.6H0Z" transform="translate(41.763 48.702) rotate(-54.482)"/>
        <path id="Path_11750" data-name="Path 11750" d="M0,0H3.161V11.4H0Z" transform="matrix(0.555, -0.832, 0.832, 0.555, 48.137, 42.426)"/>
        <path id="Path_11751" data-name="Path 11751" d="M0,0H3.161V11.4H0Z" transform="matrix(0.555, -0.832, 0.832, 0.555, 54.461, 36.101)"/>
        <path id="Path_11752" data-name="Path 11752" d="M0,0H3.161V10.121H0Z" transform="matrix(0.625, -0.781, 0.781, 0.625, 63.842, 31.266)"/>
      </g>
    </g>
  </g>
</svg>
