<svg xmlns="http://www.w3.org/2000/svg" width="154.275" height="160.369" viewBox="0 0 154.275 160.369">
  <g id="Group_482" data-name="Group 482" transform="translate(527.685 754.963)" opacity="0.15">
    <path id="Path_478" data-name="Path 478" d="M-520.112-691.648c7.721-13.3,21.158-22.042,32.363-32.576,11.253-10.58,21.286-23.775,36.04-28.344,8.953-2.773,18.75-1.936,27.648,1,18.693,6.179,33.652,21.436,41.728,39.391s9.7,38.36,7.059,57.87c-.991,7.332-2.6,14.68-5.952,21.275-3.856,7.581-9.877,13.867-16.447,19.267-15.724,12.925-36.453,21.479-56.421,17.532a75.58,75.58,0,0,1-18.944-6.943C-504.652-618.964-542.688-652.752-520.112-691.648Z" transform="translate(0)" fill="none" stroke="#636033" stroke-miterlimit="10" stroke-width="1.3"/>
    <path id="Path_479" data-name="Path 479" d="M-446.875-667.1c2.688-4.359,6.049-8.586,10.729-10.664a25.283,25.283,0,0,1,8.708-1.8c7.32-.465,14.89.362,21.427,3.689s11.91,9.422,13.149,16.652a31.982,31.982,0,0,1-.69,11.891c-1.926,9.223-5.74,18.648-13.4,24.138a38.128,38.128,0,0,1-9.79,4.75C-448.78-607.286-461.346-643.64-446.875-667.1Z" transform="translate(-9.755 -9.817)" fill="none" stroke="#636033" stroke-miterlimit="10" stroke-width="1.3"/>
    <path id="Path_480" data-name="Path 480" d="M-425.448-672.173a13.342,13.342,0,0,1,7.679-1.267,39.718,39.718,0,0,1,7.673,1.827" transform="translate(-13.361 -10.628)" fill="none" stroke="#636033" stroke-miterlimit="10" stroke-width="1.3"/>
    <path id="Path_481" data-name="Path 481" d="M-404.447-670.17a16.742,16.742,0,0,1,4.258,3.345" transform="translate(-16.126 -11.071)" fill="none" stroke="#636033" stroke-miterlimit="10" stroke-width="1.3"/>
    <path id="Path_482" data-name="Path 482" d="M-410.748-667.208a12.844,12.844,0,0,1,3.726,2.46" transform="translate(-15.296 -11.461)" fill="none" stroke="#636033" stroke-miterlimit="10" stroke-width="1.3"/>
    <path id="Path_483" data-name="Path 483" d="M-399.282-659.425a8.46,8.46,0,0,1,2.167,5.986" transform="translate(-16.806 -12.485)" fill="none" stroke="#636033" stroke-miterlimit="10" stroke-width="1.3"/>
    <path id="Path_484" data-name="Path 484" d="M-390.764-655.153a11.43,11.43,0,0,1,.283,6.856" transform="translate(-17.927 -13.048)" fill="none" stroke="#636033" stroke-miterlimit="10" stroke-width="1.3"/>
    <path id="Path_485" data-name="Path 485" d="M-507.024-640.8c-1.794-1.945-2.447-4.653-3.008-7.239-1.989-9.164-3.625-18.816-.957-27.805a33.643,33.643,0,0,1,10.552-15.844c4.725-4.018,10.578-7,13.817-12.292" transform="translate(-1.916 -6.62)" fill="none" stroke="#636033" stroke-miterlimit="10" stroke-width="1.3"/>
    <path id="Path_486" data-name="Path 486" d="M-477.495-711.682c4.077-3.27,6.485-8.491,11.083-10.977" transform="translate(-6.509 -4.161)" fill="none" stroke="#636033" stroke-miterlimit="10" stroke-width="1.3"/>
    <path id="Path_487" data-name="Path 487" d="M-458.638-727.328a9.127,9.127,0,0,1,5.779-2.333" transform="translate(-8.991 -3.239)" fill="none" stroke="#636033" stroke-miterlimit="10" stroke-width="1.3"/>
    <path id="Path_488" data-name="Path 488" d="M-366.665-688.309c2.605,2.722,3.685,6.538,4.4,10.237a76.625,76.625,0,0,1-1.446,35.043" transform="translate(-21.1 -8.683)" fill="none" stroke="#636033" stroke-miterlimit="10" stroke-width="1.3"/>
    <path id="Path_489" data-name="Path 489" d="M-372.8-620.276a20.744,20.744,0,0,0,3.505-7.069" transform="translate(-20.292 -16.709)" fill="none" stroke="#636033" stroke-miterlimit="10" stroke-width="1.3"/>
  </g>
</svg>
