<svg xmlns="http://www.w3.org/2000/svg" width="85.74" height="105.038" viewBox="0 0 85.74 105.038">
  <g id="Group_10401" data-name="Group 10401" transform="translate(-2580 -1369)">
    <g id="choices_1_" data-name="choices (1)" transform="translate(2532.969 1369)">
      <path id="Path_11479" data-name="Path 11479" d="M118.2,88.714H58.557a3.508,3.508,0,0,1-3.509-3.508V11.526a3.508,3.508,0,0,1,3.509-3.509H118.2a3.508,3.508,0,0,1,3.508,3.509v73.68A3.508,3.508,0,0,1,118.2,88.714Z" transform="translate(-6.372 -6.372)" fill="#f1f4fb"/>
      <path id="Path_11480" data-name="Path 11480" d="M254.26,207.548V190.374c-.035.01-.071.013-.106.023a9.436,9.436,0,0,0-5.057-2.1l-.1-.009V171.585a9.659,9.659,0,0,0-9.648-9.648h0q-.483,0-.977.049a9.751,9.751,0,0,0-8.672,9.85v19.5l-3.775,3.775a13.947,13.947,0,0,0-3.737,13.138l.661,2.81h27.9A3.509,3.509,0,0,0,254.26,207.548Z" transform="translate(-138.921 -128.715)" fill="#d5dced"/>
      <circle id="Ellipse_339" data-name="Ellipse 339" cx="5.263" cy="5.263" r="5.263" transform="translate(59.201 17.433)" fill="#b4e66e"/>
      <circle id="Ellipse_340" data-name="Ellipse 340" cx="5.263" cy="5.263" r="5.263" transform="translate(59.201 36.73)" fill="#dae169"/>
      <circle id="Ellipse_341" data-name="Ellipse 341" cx="5.263" cy="5.263" r="5.263" transform="translate(59.201 56.028)" fill="#ffdc64"/>
      <path id="Path_11481" data-name="Path 11481" d="M286.525,217.437a4.387,4.387,0,0,0-4.838,4.363v-1.5a4.558,4.558,0,0,0-3.934-4.613,4.387,4.387,0,0,0-4.838,4.363v-1.5a4.557,4.557,0,0,0-3.934-4.613,4.387,4.387,0,0,0-4.838,4.363V191.977a4.387,4.387,0,0,0-4.838-4.363,4.558,4.558,0,0,0-3.934,4.613v21.678l-5.316,5.316a8.772,8.772,0,0,0-2.336,8.211l3.67,15.6a12.28,12.28,0,0,0,11.954,9.467h14.835a12.28,12.28,0,0,0,12.28-12.28V222.05A4.557,4.557,0,0,0,286.525,217.437Z" transform="translate(-159.332 -149.107)" fill="#f0c087"/>
      <g id="Group_10267" data-name="Group 10267" transform="translate(88.156 38.595)">
        <path id="Path_11482" data-name="Path 11482" d="M330.439,324.953a1.754,1.754,0,0,0,1.754-1.754v-6.8a4.37,4.37,0,0,0-3.508,4.274V323.2A1.754,1.754,0,0,0,330.439,324.953Z" transform="translate(-312.028 -290.087)" fill="#e6af78"/>
        <path id="Path_11483" data-name="Path 11483" d="M373.2,333.5a1.754,1.754,0,0,0,1.754-1.754v-6.8a4.37,4.37,0,0,0-3.509,4.274v2.521A1.754,1.754,0,0,0,373.2,333.5Z" transform="translate(-346.013 -296.884)" fill="#e6af78"/>
        <path id="Path_11484" data-name="Path 11484" d="M415.95,342.055A1.754,1.754,0,0,0,417.7,340.3v-6.8a4.37,4.37,0,0,0-3.508,4.274V340.3A1.754,1.754,0,0,0,415.95,342.055Z" transform="translate(-379.997 -303.68)" fill="#e6af78"/>
        <path id="Path_11485" data-name="Path 11485" d="M255.773,243.458l-4.067-17.286a5.66,5.66,0,0,1,1.507-5.3l2.165-2.165V223.1a1.754,1.754,0,1,0,3.508,0V188.127a4.587,4.587,0,0,0-3.508,4.526v21.679l-5.316,5.316a8.772,8.772,0,0,0-2.336,8.211l3.67,15.6a12.28,12.28,0,0,0,11.953,9.467h4.377A12.28,12.28,0,0,1,255.773,243.458Z" transform="translate(-247.493 -188.127)" fill="#e6af78"/>
      </g>
      <path id="Path_11486" data-name="Path 11486" d="M110.508,82.223a1.645,1.645,0,0,0-1.645,1.645,3.618,3.618,0,1,1-3.618-3.618,1.645,1.645,0,0,0,0-3.289,6.907,6.907,0,1,0,6.907,6.907A1.645,1.645,0,0,0,110.508,82.223Z" transform="translate(-40.781 -61.172)"/>
      <path id="Path_11487" data-name="Path 11487" d="M110.508,176.285a1.645,1.645,0,0,0-1.645,1.645,3.618,3.618,0,1,1-3.618-3.618,1.645,1.645,0,1,0,0-3.289,6.907,6.907,0,1,0,6.907,6.907A1.645,1.645,0,0,0,110.508,176.285Z" transform="translate(-40.781 -135.937)"/>
      <path id="Path_11488" data-name="Path 11488" d="M197.774,213.779h-12.28a1.645,1.645,0,1,0,0,3.289h12.28a1.645,1.645,0,1,0,0-3.289Z" transform="translate(-108.75 -169.922)"/>
      <path id="Path_11489" data-name="Path 11489" d="M197.774,179.574h-12.28a1.645,1.645,0,1,0,0,3.289h12.28a1.645,1.645,0,1,0,0-3.289Z" transform="translate(-108.75 -142.734)"/>
      <path id="Path_11490" data-name="Path 11490" d="M195.91,309.486a1.645,1.645,0,0,0-1.645-1.645h-8.771a1.645,1.645,0,0,0,0,3.289h8.771A1.645,1.645,0,0,0,195.91,309.486Z" transform="translate(-108.75 -244.687)"/>
      <path id="Path_11491" data-name="Path 11491" d="M197.774,273.637h-12.28a1.645,1.645,0,1,0,0,3.289h12.28a1.645,1.645,0,1,0,0-3.289Z" transform="translate(-108.75 -217.5)"/>
      <path id="Path_11492" data-name="Path 11492" d="M215.207,121.361a1.645,1.645,0,0,0-1.645-1.645H185.494a1.645,1.645,0,0,0,0,3.289h28.068A1.645,1.645,0,0,0,215.207,121.361Z" transform="translate(-108.75 -95.156)"/>
      <path id="Path_11493" data-name="Path 11493" d="M185.494,88.8h21.051a1.645,1.645,0,0,0,0-3.289H185.494a1.645,1.645,0,0,0,0,3.289Z" transform="translate(-108.75 -67.968)"/>
      <path id="Path_11494" data-name="Path 11494" d="M105.245,268.374a1.645,1.645,0,1,0,0-3.289,6.907,6.907,0,1,0,6.907,6.907,1.645,1.645,0,1,0-3.289,0,3.618,3.618,0,1,1-3.618-3.618Z" transform="translate(-40.781 -210.702)"/>
      <path id="Path_11495" data-name="Path 11495" d="M82.007,80.7H52.184a1.866,1.866,0,0,1-1.864-1.864V5.153a1.866,1.866,0,0,1,1.864-1.864H111.83a1.866,1.866,0,0,1,1.864,1.864V59.536a1.645,1.645,0,0,0,3.289,0V5.153A5.159,5.159,0,0,0,111.83,0H52.184a5.159,5.159,0,0,0-5.153,5.153v73.68a5.159,5.159,0,0,0,5.153,5.153H82.007a1.645,1.645,0,1,0,0-3.289Z"/>
      <path id="Path_11496" data-name="Path 11496" d="M280.3,209.431a6.068,6.068,0,0,0-4.266,1.2,5.99,5.99,0,0,0-4.506-2.953,6.069,6.069,0,0,0-4.266,1.2,5.99,5.99,0,0,0-4.506-2.953,6.076,6.076,0,0,0-3.357.63V185.608a6.031,6.031,0,0,0-6.646-6,6.222,6.222,0,0,0-5.414,6.25v21l-4.835,4.835a10.35,10.35,0,0,0-2.774,9.751l3.67,15.6a13.871,13.871,0,0,0,13.554,10.735h14.834a13.94,13.94,0,0,0,13.925-13.925v-18.17A6.222,6.222,0,0,0,280.3,209.431Zm2.125,24.419a10.647,10.647,0,0,1-10.635,10.635H256.958a10.6,10.6,0,0,1-10.353-8.2l-3.67-15.6a7.082,7.082,0,0,1,1.9-6.672l2.509-2.509v5.678a1.645,1.645,0,1,0,3.289,0V185.858a2.908,2.908,0,0,1,2.453-2.977,2.742,2.742,0,0,1,3.029,2.727v28.946a1.645,1.645,0,0,0,3.289,0v-2.631a2.742,2.742,0,0,1,3.029-2.727,2.908,2.908,0,0,1,2.453,2.977v4.135a1.645,1.645,0,1,0,3.289,0v-2.631a2.742,2.742,0,0,1,3.029-2.727,2.908,2.908,0,0,1,2.453,2.977v4.135a1.645,1.645,0,0,0,3.289,0V215.43a2.742,2.742,0,0,1,3.029-2.726,2.908,2.908,0,0,1,2.453,2.977v18.17Z" transform="translate(-152.945 -142.737)"/>
    </g>
  </g>
</svg>
