<svg xmlns="http://www.w3.org/2000/svg" width="84" height="84" viewBox="0 0 84 84">
  <g id="Logout" transform="translate(-94 -1202)">
    <rect id="Rectangle_45732" data-name="Rectangle 45732" width="84" height="84" rx="36" transform="translate(94 1202)" fill="#3a9e7f"/>
    <path id="Union_1" data-name="Union 1" d="M-6376.113-14669.459a21.032,21.032,0,0,1-6.706-4.521,20.988,20.988,0,0,1-4.521-6.707,20.953,20.953,0,0,1-1.659-8.214,20.949,20.949,0,0,1,1.659-8.213,21.005,21.005,0,0,1,4.521-6.706,21,21,0,0,1,6.706-4.521,20.951,20.951,0,0,1,8.213-1.66,2.53,2.53,0,0,1,2.526,2.527,2.53,2.53,0,0,1-2.526,2.527,16.064,16.064,0,0,0-16.047,16.046,16.065,16.065,0,0,0,16.047,16.048,2.529,2.529,0,0,1,2.526,2.527,2.527,2.527,0,0,1-2.526,2.523A20.983,20.983,0,0,1-6376.113-14669.459Zm18.655-7.99a2.518,2.518,0,0,1-2.333-1.561,2.514,2.514,0,0,1,.548-2.752l4.611-4.613h-15.926a2.529,2.529,0,0,1-2.526-2.526,2.53,2.53,0,0,1,2.526-2.526h15.924l-4.609-4.607a2.513,2.513,0,0,1-.742-1.785,2.513,2.513,0,0,1,.74-1.789,2.5,2.5,0,0,1,1.788-.74,2.512,2.512,0,0,1,1.787.738l7.407,7.411a4.642,4.642,0,0,1,1.362,3.3,4.651,4.651,0,0,1-1.359,3.3l-7.409,7.413a2.51,2.51,0,0,1-1.784.74Z" transform="translate(6504 15933.002)" fill="#fff"/>
  </g>
</svg>
