<svg xmlns="http://www.w3.org/2000/svg" width="183.854" height="202.002" viewBox="0 0 183.854 202.002">
  <g id="Group_10537" data-name="Group 10537" transform="translate(0.648 1.301)" opacity="0.42">
    <path id="Path_462" data-name="Path 462" d="M351.569,122.637c.448-7.416.686-14.893-.373-22.248s-3.477-14.632-7.917-20.59a69.189,69.189,0,0,0-6.537-7.239q-4.045-4.075-8.087-8.151c2.242-3.284,8.788.861,11-2.447q-2.086-4.236-4.173-8.473A2.926,2.926,0,0,1,335.053,52a9.987,9.987,0,0,1,.626-1.7c.35-1.274-.542-2.509-1.075-3.719s-.4-3.069.9-3.321l7.956,6.931c1.23,1.071,3.45,1.988,4.168.524a2.611,2.611,0,0,0-.126-1.977c-1.08-3.09-2.6-6.019-3.548-9.153s-1.272-6.616.04-9.616a27.927,27.927,0,0,0,5.427,3.539c.866.43,2.046.765,2.693.044a2.355,2.355,0,0,0,.449-1.255l.758-5a7.787,7.787,0,0,0,6.233-4.334c1.158,1.692,2.821,3.6,4.827,3.182a9.177,9.177,0,0,1,2.06-.561c1.662.048,2.209,2.227,2.272,3.888q.134,3.566.268,7.134a8.746,8.746,0,0,0,4.237-3.228c.446,1.345,2.443,1.54,3.574.686a6.8,6.8,0,0,0,2.01-3.662c1.251,1.977,3.574,4.227,5.529,2.942,1.235-.813,1.339-2.53,1.64-3.976a10.169,10.169,0,0,1,2.045-4.31,2,2,0,0,1,1.309-.874c1.34-.082,1.546,1.848,2.063,3.086.968,2.318,4.171,2.819,5.587,4.893,1.76,2.577.309,6.855,2.854,8.66l6.5-9.137a3.053,3.053,0,0,0,4.135,1.486c1.2-.66,2.831-2.053,3.512-.867A2.245,2.245,0,0,1,414,33.784a5.107,5.107,0,0,0,7.662,5.189l-6.808,9.338c-1.069,1.467-2.165,3.449-1.162,4.962.824,1.241,2.68,1.345,4.041.737a20.138,20.138,0,0,0,3.6-2.625,12.267,12.267,0,0,1,8.639-2.345c-2.845,4.3-4.224,9.383-5.561,14.366l5.8.186a17.474,17.474,0,0,0,.039,6.1c.392,2.123,3.21,2.733,5.308,2.222s3.774-2.042,5.351-3.518c-.265,1.4-.411,3.125.737,3.966.976.714,2.651.559,3.087,1.686.381.986-.612,1.955-.761,3-.253,1.755,1.88,3.161,1.7,4.924-.3,2.93-5.914,2.49-6.4,5.4,1.825.281,4.065.953,4.344,2.779.214,1.4-.994,2.68-2.33,3.151a16.32,16.32,0,0,1-4.21.484,14.3,14.3,0,0,0-5.8,1.74,3.8,3.8,0,0,0-2.078,2.239c-.394,1.741,1.389,3.183,3.047,3.845s3.617,1.2,4.394,2.811a7.771,7.771,0,0,0-3.883,4.718,7.9,7.9,0,0,1-.59,1.794c-.91,1.595-3.128,1.779-4.948,1.53s-3.8-.705-5.391.222a2.074,2.074,0,0,0-1.147,1.96c.183,1.2,1.737,1.732,2.111,2.885.531,1.631-1.572,2.892-3.285,2.977s-3.713-.183-4.874,1.08c-.612.665-1,1.749-1.907,1.793a1.954,1.954,0,0,1-1.223-.535c-1.711-1.327-3.184-2.983-5.071-4.046a13.09,13.09,0,0,0-9.355-.936,38.892,38.892,0,0,0-8.856,3.7L370.4,130.8c-3.707,1.922-7.641,4.064-9.548,7.778a3.22,3.22,0,0,0-.229,3.176,2.445,2.445,0,0,0,3.046.911c1.254-.6,1.707-2.115,2.2-3.418a17.038,17.038,0,0,1,4.517-6.621c.468-.421,1.14-.837,1.683-.517.572.338.488,1.17.383,1.826a12.745,12.745,0,0,0,.056,4.392.973.973,0,0,0,.36.695.933.933,0,0,0,.758-.008c3.078-1.016,4.684-4.271,6.589-6.893a22.512,22.512,0,0,1,7.229-6.408c.835,1.361-.055,3.067-.565,4.58s-.084,3.8,1.513,3.788a2.732,2.732,0,0,0,1.418-.561,21.107,21.107,0,0,0,4.372-3.8,9.554,9.554,0,0,1,2.239-2.165,2.506,2.506,0,0,1,2.915.109c.4.383.611.942,1.049,1.279,1.27.977,3.663-.367,4.487,1.007a2.232,2.232,0,0,1,.111,1.557,17.408,17.408,0,0,1-5.407,9.641c-.736.664-1.615,1.606-1.168,2.491.551,1.1,2.225.519,3.18-.252a28.722,28.722,0,0,0,7.757-9.753,3.316,3.316,0,0,0,4.114,1.013c.757-.395,1.41-1.107,2.264-1.121,1.3-.021,2.016,1.634,1.722,2.9s-1.192,2.287-1.729,3.467-.577,2.819.507,3.528a2.923,2.923,0,0,0,3.055-.354,10.911,10.911,0,0,1,2.787-1.647c1.047-.283,2.43.24,2.529,1.32.087.944-.829,1.868-.473,2.747.443,1.1,2.224.762,3.021,1.636.834.914.045,2.368-.828,3.245s-1.934,1.977-1.547,3.152c.233.707.934,1.154,1.294,1.806.786,1.424-.345,3.214-1.744,4.046s-3.077,1.15-4.388,2.112-2.079,3.045-.92,4.187c.753.741,2.082.846,2.554,1.79.7,1.4-1.176,2.686-2.711,2.992s-3.53.853-3.586,2.418c-.069,1.993,3.183,2.591,3.546,4.552.293,1.583-1.581,2.783-3.19,2.749s-3.137-.78-4.745-.83-3.5,1.1-3.261,2.687c.1.688.595,1.372.34,2.021-.468,1.188-2.233.4-3.511.419-2.389.029-3.307,3.334-5.488,4.312-1.089.488-2.364.328-3.5.686s-2.152,1.747-1.426,2.693a2.453,2.453,0,0,0,.932.642l4.524,2.173a3.469,3.469,0,0,0-.156,4.749c.468,1.248-1.284,2.162-2.617,2.13s-3-.2-3.664.957c-.5.87-.463,2.43-1.466,2.379a3.771,3.771,0,0,0-5.467-2.169c-1.449.954-2.26,2.959-3.975,3.216-1.649.247-3.1-1.329-4.766-1.3-1.388.025-2.8,1.157-4.038.523-.6-.307-.944-.957-1.481-1.367-1.906-1.457-4.556.776-6.945.539-1.812-.179-3.445-1.8-5.206-1.342-.955.252-1.727,1.095-2.713,1.12-1.016.026-1.839-.823-2.824-1.069-1.5-.374-3.153.683-4.57.072-1.383-.6-1.756-2.441-2.973-3.327-1.444-1.052-3.652-.474-5.056-1.58-1.358-1.069-1.281-3.093-1.674-4.777a7.551,7.551,0,0,0-1.578-3.14,3.755,3.755,0,0,0-3.107-1.548c-2.288.26-2.932,4.314-3.548,5.976q-1.776,4.792-3.815,9.48a194.493,194.493,0,0,1-9.1,18.295,5.656,5.656,0,0,1-2.538-5.157,17.134,17.134,0,0,1,1.58-5.8,197.123,197.123,0,0,0,7.353-21.195c1.79-6.537,2.986-13.863-.249-19.818a38.991,38.991,0,0,0-8.773,10.275c-.9-.783-.849-2.285-1.736-3.083-1.018-.917-2.674-.4-3.741.46s-1.935,2.032-3.218,2.512c-2.389.895-5.443-.9-7.467.653q-.3-1.629-.608-3.26l-8.915.826a2.037,2.037,0,0,1-1.15-.116c-.98-.521-.513-2-.731-3.085-.391-1.941-2.931-2.391-4.91-2.361s-4.5-.248-5.08-2.139c1.405-1.149,1.36-3.273,1.19-5.082l-.3-3.226c-.93-.69-.423-2.173.271-3.1s1.547-2.074,1.045-3.119a2.809,2.809,0,0,0-2.08-1.214,33.84,33.84,0,0,0-11.179-.541c-.686.082-1.617.026-1.765-.648A1.186,1.186,0,0,1,265.8,154c.758-2.659,4.135-4.264,4.1-7.029-.026-2.271-2.319-3.716-4.122-5.1s-3.394-4.056-1.876-5.748a4.7,4.7,0,0,1,2.385-1.161l5.208-1.391c.845-.226,1.841-.606,2-1.467.148-.8-.545-1.532-.57-2.347-.041-1.344,1.608-2.026,2.948-2.15s2.957-.226,3.588-1.414c.663-1.248-.393-2.83-1.717-3.325a10.662,10.662,0,0,0-4.2-.207,16.892,16.892,0,0,1-5.874-.8c-.992-.32-2.1-.919-2.209-1.957-.113-1.1,1.005-1.942,2.072-2.233a11.165,11.165,0,0,0,3.176-.9c.934-.595,1.359-2.157.426-2.753-.8-5.684-8.242-9.764-8-15.5,2.548-1.057,5.729,2.891,7.779,1.046.608-.546.8-1.438,1.366-2.025,1.362-1.4,3.729-.28,5.193,1.017s3.341,2.851,5.131,2.064a1.261,1.261,0,0,0,.846-1.129,1.639,1.639,0,0,0-.372-.794,49.554,49.554,0,0,0-5.735-6.655A17.435,17.435,0,0,1,274.2,88.5a4.784,4.784,0,0,1-.374-4.535,1.592,1.592,0,0,1,1.086-.915,1.777,1.777,0,0,1,1.019.242c2.05,1.015,3.54,3.034,5.712,3.749a5.491,5.491,0,0,0,6.452-2.762,6.756,6.756,0,0,1-.129-8.549,1.394,1.394,0,0,1,.881-.579,1.5,1.5,0,0,1,.967.4,24.191,24.191,0,0,1,3.836,3.631c1.215,1.423,2.68,3.147,4.526,2.848,2.209-.357,2.842-3.189,2.962-5.423s.722-5.064,2.925-5.457a12.183,12.183,0,0,1,3.325,6.759c.014-1.152,1.737-1.584,2.645-.876a4.328,4.328,0,0,1,1.255,3.115c.485,5.061.035,10.89,3.707,14.407,1.562-.687,1.821-2.789,1.62-4.484s-.581-3.586.416-4.971c1.166-1.622,3.9-2,4.312-3.954a22.282,22.282,0,0,1,4,10.467c.1.944,1.17.165,1.941-.389a24.943,24.943,0,0,1,2.145-1.862c.829-.462,2.164-.264,2.346.667a3.153,3.153,0,0,1-.433,1.607c-.624,1.706.362,3.563.355,5.38a23.467,23.467,0,0,1-.894,4.175c-.267,1.4-.053,3.091,1.15,3.86,1.4.895,3.216.063,4.688-.707s3.426-1.427,4.655-.31c1.026.934.9,2.552.694,3.924a9.978,9.978,0,0,1-1.379,4.377c-.715,1.009-1.792,2.45-.82,3.214,1.007.791,2.4-.8,3.65-.505,1.186.277,1.308,2.006.695,3.058s-1.662,1.848-2.056,3c-.505,1.483.175,3.294-.71,4.588a6.012,6.012,0,0,1-1.677,1.369c-4.208,2.918-4.885,8.76-5.173,13.873-.113,1.992-.11,4.281,1.382,5.608a4.169,4.169,0,0,0,4.2.587,7.467,7.467,0,0,0,3.334-2.853,25.1,25.1,0,0,0,2.993-7.176C347.784,132.591,351.284,127.346,351.569,122.637Z" transform="translate(-263.13 -22.97)" fill="none" stroke="#b4b4b4" stroke-miterlimit="10" stroke-width="1.3"/>
    <path id="Path_463" data-name="Path 463" d="M369.368,58.839a6.788,6.788,0,0,0,1.518,5.2,2.736,2.736,0,0,0,2.583.99,3.037,3.037,0,0,0,1.242-.787,10.988,10.988,0,0,0,3.1-8.577c-.121-2.225-.974-7.939-4.456-6.9C371.135,49.423,369.548,56.75,369.368,58.839Z" transform="translate(-257.553 -21.622)" fill="none" stroke="#b4b4b4" stroke-miterlimit="10" stroke-width="1.3"/>
    <path id="Path_464" data-name="Path 464" d="M394.769,78.483a2.838,2.838,0,0,0-.847,1.21,1.455,1.455,0,0,0,.1,1.009,2.3,2.3,0,0,0,1.756,1.241,5.27,5.27,0,0,0,3.118-.934c1.728-.984,3.921-3.166,1.829-5.233S396.323,76.954,394.769,78.483Z" transform="translate(-256.264 -20.232)" fill="none" stroke="#b4b4b4" stroke-miterlimit="10" stroke-width="1.3"/>
    <path id="Path_465" data-name="Path 465" d="M316.062,214.558a35.559,35.559,0,0,1,4.281-17.244c1.509-2.782,3.4-5.371,4.578-8.309.881-2.19,1.348-4.529,2.216-6.727a26.207,26.207,0,0,1,5-7.755c8.634-9.638,21.543-14.35,34.284-16.6,9.173-1.623,18.848-2.269,26.871-7" transform="translate(-260.351 -16.251)" fill="none" stroke="#b4b4b4" stroke-miterlimit="10" stroke-width="1.3"/>
    <path id="Path_466" data-name="Path 466" d="M335.588,174.33q-.227-2.758-.453-5.518a49.084,49.084,0,0,0-1.986-11.962,42.231,42.231,0,0,0-6.629-11.43c-4.853-6.447-10.228-12.5-14.8-19.154s-8.354-14.04-9.534-22.022" transform="translate(-261.079 -18.702)" fill="none" stroke="#b4b4b4" stroke-miterlimit="10" stroke-width="1.3"/>
    <path id="Path_467" data-name="Path 467" d="M334.043,174.965c.8-6.906,5.531-12.588,9.06-18.577,3.758-6.375,6.256-13.4,8.962-20.285q5.66-14.408,12.634-28.254c2.778-5.513,5.79-11.321,5.35-17.478a30.155,30.155,0,0,0-2.833-9.633c-4.039-9.369-8.965-18.893-8.565-29.087" transform="translate(-259.406 -21.464)" fill="none" stroke="#b4b4b4" stroke-miterlimit="10" stroke-width="1.3"/>
    <path id="Path_468" data-name="Path 468" d="M363.653,104.755c1.449-1.9,4.01-2.8,6.289-3.518,13.37-4.22,28.249-3.526,40.726-9.92" transform="translate(-257.851 -19.381)" fill="none" stroke="#b4b4b4" stroke-miterlimit="10" stroke-width="1.3"/>
    <path id="Path_469" data-name="Path 469" d="M357.112,159.035c9.849,2.768,17.82,12.385,27.854,14.385" transform="translate(-258.195 -15.824)" fill="none" stroke="#b4b4b4" stroke-miterlimit="10" stroke-width="1.3"/>
    <path id="Path_470" data-name="Path 470" d="M369,157.292c4.654-2.877,7.824-8.182,12.523-10.987" transform="translate(-257.571 -16.493)" fill="none" stroke="#b4b4b4" stroke-miterlimit="10" stroke-width="1.3"/>
    <path id="Path_471" data-name="Path 471" d="M309.821,122.484c-.346-.94-2.472-2.168-3.321-2.7a58.807,58.807,0,0,1-10.151-8.05" transform="translate(-261.386 -18.308)" fill="none" stroke="#b4b4b4" stroke-miterlimit="10" stroke-width="1.3"/>
    <path id="Path_472" data-name="Path 472" d="M319.786,111.207c-.6,6.556,1.307,13.1,1.226,19.681a29.385,29.385,0,0,0,1.14,9.723" transform="translate(-260.161 -18.336)" fill="none" stroke="#b4b4b4" stroke-miterlimit="10" stroke-width="1.3"/>
    <path id="Path_473" data-name="Path 473" d="M330.455,149.226c-8.319-6.075-19.916-5.438-29.232-9.834" transform="translate(-261.13 -16.856)" fill="none" stroke="#b4b4b4" stroke-miterlimit="10" stroke-width="1.3"/>
    <path id="Path_474" data-name="Path 474" d="M343.172,164.285c3.879,1.06,7.386,4.1,10.6,6.513s7.174,4.5,11.1,3.639" transform="translate(-258.927 -15.549)" fill="none" stroke="#b4b4b4" stroke-miterlimit="10" stroke-width="1.3"/>
    <path id="Path_475" data-name="Path 475" d="M368.917,90.916c-.528-3.916-3.481-7.271-6.182-10.155s-5.573-5.939-6.369-9.811" transform="translate(-258.234 -20.45)" fill="none" stroke="#b4b4b4" stroke-miterlimit="10" stroke-width="1.3"/>
    <path id="Path_476" data-name="Path 476" d="M381.167,98.6c.02-.559.822-.658,1.357-.5a11.366,11.366,0,0,1,2.613,1.306l4.442,2.719c2.629,1.61,5.585,3.285,8.612,2.7" transform="translate(-256.932 -19.028)" fill="none" stroke="#b4b4b4" stroke-miterlimit="10" stroke-width="1.3"/>
    <path id="Path_477" data-name="Path 477" d="M392.4,96.908a17.174,17.174,0,0,0,6.8-6.089c1.8-2.5,3.552-5.146,6.128-6.831" transform="translate(-256.342 -19.766)" fill="none" stroke="#b4b4b4" stroke-miterlimit="10" stroke-width="1.3"/>
  </g>
</svg>
