<svg xmlns="http://www.w3.org/2000/svg" width="281.73" height="272.001" viewBox="0 0 281.73 272.001">
  <g id="Group_10538" data-name="Group 10538" transform="translate(421.036 -1589.575) rotate(-150)" opacity="0.42">
    <path id="Path_490" data-name="Path 490" d="M-619.55-1633.77c7.769-.371,15.575-.97,23.109-2.9s14.835-5.274,20.532-10.568a72.417,72.417,0,0,0,6.794-7.622q3.784-4.669,7.568-9.338c3.672,1.961.1,9.244,3.79,11.166l8.345-5.3a3.057,3.057,0,0,1,1.5-.609,10.371,10.371,0,0,1,1.837.46c1.365.221,2.55-.849,3.747-1.539s3.15-.765,3.558.557l-6.313,9.064c-.976,1.4-1.678,3.815-.073,4.4a2.737,2.737,0,0,0,2.043-.355c3.094-1.473,5.968-3.388,9.123-4.727s6.742-2.073,10.011-1.047a29.211,29.211,0,0,0-3.068,6.047c-.351.951-.565,2.216.257,2.808a2.454,2.454,0,0,0,1.357.325l5.29.224a8.151,8.151,0,0,0,5.216,6c-1.63,1.4-3.432,3.343-2.765,5.384a9.585,9.585,0,0,1,.817,2.08c.138,1.734-2.067,2.551-3.789,2.8l-7.393,1.085a9.152,9.152,0,0,0,3.838,4.045c-1.349.617-1.325,2.715-.309,3.8a7.117,7.117,0,0,0,4.038,1.679c-1.916,1.526-3.995,4.2-2.436,6.086.984,1.193,2.785,1.108,4.323,1.257a10.636,10.636,0,0,1,4.716,1.641,2.085,2.085,0,0,1,1.057,1.264c.237,1.385-1.749,1.818-2.978,2.5-2.3,1.269-2.461,4.659-4.46,6.367-2.482,2.122-7.1,1.1-8.689,3.949l10.244,5.734a3.2,3.2,0,0,0-1.079,4.471c.823,1.171,2.456,2.714,1.3,3.557a2.356,2.356,0,0,1-1.528.194,5.471,5.471,0,0,0-4.992,2.837,5.47,5.47,0,0,0,.459,5.723l-10.489-6.029c-1.646-.947-3.833-1.862-5.293-.647-1.2,1-1.1,2.941-.311,4.289a21.165,21.165,0,0,0,3.14,3.45,12.842,12.842,0,0,1,3.418,8.725c-4.8-2.474-10.242-3.335-15.579-4.162q.231,3.03.462,6.059a18.263,18.263,0,0,0-6.344.731c-2.165.648-2.482,3.649-1.712,5.775s2.551,3.7,4.265,5.171c-1.485-.118-3.3-.074-4.043,1.215-.633,1.1-.282,2.823-1.406,3.4-.982.508-2.1-.414-3.208-.453-1.854-.062-3.076,2.315-4.932,2.326-3.084.018-3.26-5.873-6.34-6.049-.086,1.932-.531,4.338-2.4,4.835-1.434.381-2.9-.73-3.543-2.069a17.074,17.074,0,0,1-.98-4.327,14.953,14.953,0,0,0-2.468-5.839,3.975,3.975,0,0,0-2.564-1.909c-1.856-.212-3.155,1.806-3.657,3.6s-.844,3.9-2.429,4.892a8.134,8.134,0,0,0-5.348-3.507,8.291,8.291,0,0,1-1.934-.411c-1.763-.768-2.205-3.054-2.153-4.976s.3-4.04-.84-5.585a2.173,2.173,0,0,0-2.17-.972c-1.226.326-1.607,2-2.764,2.524-1.637.737-3.187-1.309-3.468-3.082s-.229-3.886-1.674-4.95c-.762-.562-1.935-.849-2.082-1.783a2.045,2.045,0,0,1,.417-1.333c1.189-1.932,2.745-3.65,3.638-5.735a13.7,13.7,0,0,0-.086-9.84,40.682,40.682,0,0,0-4.851-8.8l-11.632-17.5c-2.418-3.641-5.093-7.492-9.174-9.057a3.369,3.369,0,0,0-3.332.12,2.558,2.558,0,0,0-.6,3.272c.77,1.236,2.395,1.537,3.805,1.9a17.836,17.836,0,0,1,7.4,3.953c.491.439,1,1.091.728,1.692-.287.633-1.163.642-1.856.605a13.383,13.383,0,0,0-4.564.556,1.016,1.016,0,0,0-.683.453.973.973,0,0,0,.095.788c1.405,3.087,4.975,4.39,7.917,6.076a23.567,23.567,0,0,1,7.487,6.8c-1.322,1.022-3.2.29-4.83-.071s-3.966.342-3.771,2a2.874,2.874,0,0,0,.744,1.413,22.1,22.1,0,0,0,4.451,4.12,9.987,9.987,0,0,1,2.507,2.085,2.624,2.624,0,0,1,.215,3.046c-.353.46-.911.743-1.212,1.237-.872,1.432.8,3.77-.54,4.783a2.337,2.337,0,0,1-1.607.292,18.235,18.235,0,0,1-10.646-4.536c-.774-.691-1.853-1.5-2.724-.935-1.078.7-.288,2.374.622,3.281a30.067,30.067,0,0,0,11.025,6.97,3.472,3.472,0,0,0-.588,4.4c.5.743,1.313,1.343,1.423,2.229.168,1.346-1.473,2.283-2.82,2.12s-2.515-.982-3.8-1.407-3-.282-3.614.927a3.061,3.061,0,0,0,.714,3.14,11.414,11.414,0,0,1,2.03,2.714c.412,1.057.025,2.556-1.089,2.782-.972.2-2.038-.652-2.912-.183-1.09.586-.542,2.4-1.36,3.329-.857.971-2.459.315-3.47-.494s-2.276-1.789-3.456-1.255c-.71.322-1.094,1.1-1.732,1.551-1.393.979-3.384,0-4.408-1.357s-1.544-3.072-2.694-4.328-3.4-1.819-4.461-.484c-.687.866-.645,2.261-1.574,2.86-1.377.887-2.928-.919-3.421-2.482s-1.287-3.578-2.921-3.458c-2.082.153-2.336,3.6-4.336,4.2-1.614.484-3.074-1.331-3.222-3.008s.457-3.353.327-5.033-1.537-3.519-3.165-3.088c-.705.186-1.362.774-2.065.581-1.29-.352-.672-2.278-.833-3.606-.3-2.483-3.843-3.064-5.108-5.223-.631-1.078-.608-2.423-1.11-3.566s-2.061-2.043-2.964-1.179a2.57,2.57,0,0,0-.562,1.041l-1.751,4.954a3.631,3.631,0,0,0-4.96.375c-1.246.629-2.395-1.092-2.512-2.482s-.132-3.143-1.409-3.705c-.964-.423-2.582-.207-2.641-1.257a3.948,3.948,0,0,0,1.639-5.934c-1.156-1.4-3.335-2.017-3.8-3.773-.445-1.688,1.032-3.375.811-5.107-.183-1.442-1.52-2.786-1-4.143.253-.659.889-1.091,1.256-1.695,1.3-2.149-1.322-4.655-1.347-7.167-.018-1.906,1.489-3.788.809-5.568-.369-.965-1.335-1.673-1.472-2.7-.142-1.054.648-2.006.793-3.06.22-1.6-1.067-3.2-.591-4.748.465-1.506,2.342-2.1,3.126-3.47.932-1.623.08-3.855,1.073-5.44.959-1.534,3.075-1.684,4.782-2.283a7.884,7.884,0,0,0,3.089-2,3.93,3.93,0,0,0,1.26-3.408c-.53-2.352-4.822-2.564-6.621-3.017q-5.186-1.3-10.3-2.9a203.5,203.5,0,0,1-20.067-7.4,5.921,5.921,0,0,1,5.08-3.224,17.935,17.935,0,0,1,6.215.987,206.321,206.321,0,0,0,22.889,5.255c7,1.124,14.765,1.54,20.6-2.5a40.8,40.8,0,0,0-11.686-7.968c.714-1.025,2.283-1.141,3.013-2.154.839-1.163.114-2.828-.9-3.84s-2.334-1.784-2.979-3.064c-1.2-2.386.324-5.767-1.524-7.7l3.324-1q-.935-4.592-1.868-9.183a2.138,2.138,0,0,1-.01-1.211c.432-1.078,2.021-.759,3.128-1.11,1.975-.625,2.157-3.32,1.9-5.376s-.251-4.706,1.651-5.529c1.356,1.333,3.561,1.046,5.423.666l3.323-.68c.614-1.045,2.214-.686,3.258-.069s2.334,1.376,3.364.735a2.938,2.938,0,0,0,1.027-2.3,35.413,35.413,0,0,0-.7-11.695c-.163-.705-.21-1.679.476-1.91a1.237,1.237,0,0,1,.6-.011c2.852.488,4.9,3.82,7.779,3.475,2.361-.284,3.605-2.834,4.84-4.867s3.838-3.99,5.768-2.6a4.93,4.93,0,0,1,1.478,2.352q1.019,2.629,2.037,5.261c.331.854.839,1.848,1.753,1.916.85.063,1.533-.741,2.378-.859,1.394-.195,2.29,1.445,2.571,2.826s.57,3.05,1.877,3.574c1.374.548,2.9-.729,3.267-2.162a11.188,11.188,0,0,0-.261-4.4,17.688,17.688,0,0,1,.166-6.2c.221-1.069.718-2.292,1.786-2.521,1.133-.241,2.134.827,2.559,1.905a11.68,11.68,0,0,0,1.292,3.2c.724.9,2.4,1.17,2.913.134,5.825-1.473,9.229-9.684,15.224-10.078,1.388,2.532-2.361,6.287-.21,8.214.639.571,1.587.667,2.262,1.192,1.616,1.259.714,3.848-.471,5.519s-2.589,3.8-1.567,5.572a1.315,1.315,0,0,0,1.271.753,1.709,1.709,0,0,0,.784-.475,51.857,51.857,0,0,0,6.276-6.721,18.212,18.212,0,0,1,3.335-3.671,5,5,0,0,1,4.677-.9,1.669,1.669,0,0,1,1.075,1.026,1.862,1.862,0,0,1-.137,1.089c-.824,2.248-2.757,4.026-3.255,6.368a5.748,5.748,0,0,0,3.6,6.4,7.07,7.07,0,0,1,8.882-1.1,1.454,1.454,0,0,1,.7.851,1.565,1.565,0,0,1-.311,1.052,25.289,25.289,0,0,1-3.345,4.4c-1.343,1.424-2.973,3.143-2.453,5.032.622,2.258,3.64,2.6,5.979,2.469s5.35.179,6.009,2.426a12.755,12.755,0,0,1-6.658,4.225c1.2-.116,1.844,1.627,1.209,2.652a4.527,4.527,0,0,1-3.1,1.658c-5.213,1.078-11.329,1.268-14.574,5.488.892,1.547,3.109,1.579,4.849,1.178s3.666-1.01,5.221-.13c1.82,1.031,2.523,3.829,4.6,4.04a23.3,23.3,0,0,1-10.441,5.346c-.97.214-.039,1.237.626,1.976a26.116,26.116,0,0,1,2.179,2.022c.575.811.52,2.223-.428,2.517a3.315,3.315,0,0,1-1.722-.269c-1.846-.457-3.666.781-5.558.978a24.451,24.451,0,0,1-4.446-.458c-1.489-.119-3.224.3-3.887,1.633-.773,1.558.3,3.355,1.266,4.8s1.874,3.4.849,4.809c-.855,1.174-2.554,1.227-4.005,1.166a10.451,10.451,0,0,1-4.711-.94c-1.131-.63-2.752-1.588-3.437-.49-.71,1.138,1.1,2.411.939,3.742-.154,1.265-1.94,1.588-3.1,1.069s-2.111-1.521-3.355-1.8c-1.6-.357-3.408.553-4.854-.221a6.287,6.287,0,0,1-1.615-1.589c-3.512-4.05-9.669-4.093-15.022-3.814-2.087.108-4.468.369-5.68,2.072a4.359,4.359,0,0,0-.136,4.432,7.81,7.81,0,0,0,3.345,3.147,26.291,26.291,0,0,0,7.807,2.3C-630.336-1636.583-624.483-1633.535-619.55-1633.77Z" transform="translate(0 0)" fill="none" stroke="#636033" stroke-linecap="round" stroke-linejoin="round" stroke-width="1.3"/>
    <path id="Path_491" data-name="Path 491" d="M-564-1624.493a7.109,7.109,0,0,0-5.244,2.169,2.866,2.866,0,0,0-.739,2.8,3.182,3.182,0,0,0,.959,1.2,11.5,11.5,0,0,0,9.277,2.257c2.3-.378,8.151-1.911,6.681-5.418C-554-1623.718-561.8-1624.541-564-1624.493Z" transform="translate(12.08 7.985)" fill="none" stroke="#636033" stroke-linecap="round" stroke-linejoin="round" stroke-width="1.3"/>
    <path id="Path_492" data-name="Path 492" d="M-581.71-1596.434a2.979,2.979,0,0,0-1.357-.745,1.529,1.529,0,0,0-1.039.219,2.415,2.415,0,0,0-1.092,1.969,5.51,5.51,0,0,0,1.323,3.137c1.22,1.688,3.739,3.723,5.653,1.312C-576.32-1592.936-579.945-1594.99-581.71-1596.434Z" transform="translate(10.923 10.081)" fill="none" stroke="#636033" stroke-linecap="round" stroke-linejoin="round" stroke-width="1.3"/>
    <path id="Path_493" data-name="Path 493" d="M-726.015-1661.775a37.23,37.23,0,0,1,18.429,2.5c3.066,1.257,5.974,2.928,9.164,3.825,2.38.669,4.866.891,7.25,1.545a27.418,27.418,0,0,1,8.637,4.323c11.006,7.895,17.37,20.8,21.157,33.8,2.727,9.361,4.492,19.357,10.325,27.171" transform="translate(0.113 5.104)" fill="none" stroke="#636033" stroke-linecap="round" stroke-linejoin="round" stroke-width="1.3"/>
    <path id="Path_494" data-name="Path 494" d="M-682.793-1645.065l5.692-1.1c4.166-.8,8.381-1.619,12.223-3.421,4.193-1.965,7.769-5.022,11.146-8.191,6.159-5.779,11.852-12.058,18.259-17.563s13.664-10.28,21.838-12.411" transform="translate(3.431 3.13)" fill="none" stroke="#636033" stroke-linecap="round" stroke-linejoin="round" stroke-width="1.3"/>
    <path id="Path_495" data-name="Path 495" d="M-680.723-1648.208c7.276.049,13.724,4.331,20.356,7.327,7.059,3.189,14.648,4.995,22.123,7.031q15.635,4.261,30.832,9.953c6.05,2.267,12.436,4.744,18.793,3.591a31.559,31.559,0,0,0,9.7-4.039c9.293-5.262,18.647-11.466,29.3-12.2" transform="translate(3.59 6.165)" fill="none" stroke="#636033" stroke-linecap="round" stroke-linejoin="round" stroke-width="1.3"/>
    <path id="Path_496" data-name="Path 496" d="M-611.608-1625.244c2.141,1.292,3.366,3.856,4.372,6.145,5.9,13.437,6.863,29,14.929,41.259" transform="translate(8.895 7.928)" fill="none" stroke="#636033" stroke-linecap="round" stroke-linejoin="round" stroke-width="1.3"/>
    <path id="Path_497" data-name="Path 497" d="M-667.386-1625.824c-1.767,10.563-10.872,19.946-11.818,30.615" transform="translate(3.707 7.883)" fill="none" stroke="#636033" stroke-linecap="round" stroke-linejoin="round" stroke-width="1.3"/>
    <path id="Path_498" data-name="Path 498" d="M-664.583-1613.984c3.52,4.518,9.4,7.217,12.85,11.79" transform="translate(4.829 8.793)" fill="none" stroke="#636033" stroke-linecap="round" stroke-linejoin="round" stroke-width="1.3"/>
    <path id="Path_499" data-name="Path 499" d="M-635.8-1677.626c.938-.466,1.977-2.819,2.434-3.761a61.632,61.632,0,0,1,7.229-11.475" transform="translate(7.038 2.738)" fill="none" stroke="#636033" stroke-linecap="round" stroke-linejoin="round" stroke-width="1.3"/>
    <path id="Path_500" data-name="Path 500" d="M-621.542-1669.086c-6.89.114-13.482,2.842-20.342,3.5a30.712,30.712,0,0,0-9.989,2.286" transform="translate(5.804 4.563)" fill="none" stroke="#636033" stroke-linecap="round" stroke-linejoin="round" stroke-width="1.3"/>
    <path id="Path_501" data-name="Path 501" d="M-660.858-1653.314c5.379-9.344,3.406-21.34,6.926-31.532" transform="translate(5.115 3.353)" fill="none" stroke="#636033" stroke-linecap="round" stroke-linejoin="round" stroke-width="1.3"/>
    <path id="Path_502" data-name="Path 502" d="M-674.5-1639.422c-.664,4.155-3.436,8.149-5.579,11.771s-3.876,7.976-2.531,11.963" transform="translate(3.409 6.84)" fill="none" stroke="#636033" stroke-linecap="round" stroke-linejoin="round" stroke-width="1.3"/>
    <path id="Path_503" data-name="Path 503" d="M-596.687-1621c4.016-.993,7.173-4.445,9.869-7.583s5.55-6.471,9.488-7.736" transform="translate(10.041 7.078)" fill="none" stroke="#636033" stroke-linecap="round" stroke-linejoin="round" stroke-width="1.3"/>
    <path id="Path_504" data-name="Path 504" d="M-603.72-1608.039c.584-.042.776.781.67,1.357a11.921,11.921,0,0,1-1.063,2.867q-1.165,2.465-2.328,4.93c-1.377,2.918-2.786,6.183-1.835,9.267" transform="translate(9.127 9.249)" fill="none" stroke="#636033" stroke-linecap="round" stroke-linejoin="round" stroke-width="1.3"/>
    <path id="Path_505" data-name="Path 505" d="M-600.473-1596.864c1.582,2.807,4.3,4.806,7.105,6.393s5.756,3.114,7.8,5.6" transform="translate(9.75 10.106)" fill="none" stroke="#636033" stroke-linecap="round" stroke-linejoin="round" stroke-width="1.3"/>
  </g>
</svg>
