<svg xmlns="http://www.w3.org/2000/svg" width="97.857" height="61.977" viewBox="0 0 97.857 61.977">
  <g id="Group_479" data-name="Group 479" transform="translate(-20 -983.36)">
    <path id="Path_457" data-name="Path 457" d="M117.857,1014.348a3.792,3.792,0,0,0-.92-2.243L90.843,984.378a3.267,3.267,0,0,0-4.613-.127,3.36,3.36,0,0,0-.127,4.613l20.947,22.222H23.262a3.262,3.262,0,0,0,0,6.524H107.05L86.1,1039.832a3.415,3.415,0,0,0,.127,4.613,3.266,3.266,0,0,0,4.613-.127l26.095-27.727a2.9,2.9,0,0,0,.92-2.242Z" transform="translate(0 0)"/>
  </g>
</svg>
