<svg xmlns="http://www.w3.org/2000/svg" width="168.873" height="159.676" viewBox="0 0 168.873 159.676">
  <g id="Group_9391" data-name="Group 9391" transform="translate(-8183.331 -5944.052)">
    <path id="Path_10450" data-name="Path 10450" d="M10.673,112.094a24.3,24.3,0,0,0,24.421,21.347h98.685A24.3,24.3,0,0,0,158.2,112.094a13.193,13.193,0,0,0,10.673-12.956,2.639,2.639,0,0,0-2.639-2.639H2.639A2.639,2.639,0,0,0,0,99.139,13.193,13.193,0,0,0,10.673,112.094Zm85.2,10.792H35.622a2.639,2.639,0,1,1,0-5.277H95.875a2.639,2.639,0,1,1,0,5.277Zm37.376,0H110.163a2.639,2.639,0,0,1,0-5.277h23.088a2.639,2.639,0,1,1,0,5.277ZM71.9,107.055h74.542a2.639,2.639,0,1,1,0,5.277H71.9a2.639,2.639,0,1,1,0-5.277Zm-49.474,0H57.615a2.639,2.639,0,1,1,0,5.277H22.428a2.639,2.639,0,0,1,0-5.277Z" transform="translate(8183.331 5970.285)" fill="#b03b2e"/>
    <path id="Path_10451" data-name="Path 10451" d="M51.945,83.193c-1.662,4.156-5.977,3.048-6.821,2.771a2.639,2.639,0,0,0-1.636,5.013A10.555,10.555,0,0,0,56.84,85.145a2.639,2.639,0,1,0-4.895-1.966Z" transform="translate(8196.666 5965.478)" fill="#b03b2e"/>
    <path id="Path_10452" data-name="Path 10452" d="M84.922,76.685a2.641,2.641,0,0,0-5-1.7c-1.451,4.235-5.805,3.351-6.663,3.127A2.639,2.639,0,0,0,71.94,83.2a10.555,10.555,0,0,0,12.982-6.517Z" transform="translate(8205.735 5962.842)" fill="#b03b2e"/>
    <path id="Path_10453" data-name="Path 10453" d="M85.55,64.941a2.639,2.639,0,0,0-2.362-2.929c-3.523-.356-10.555.976-11.782,8.562A2.639,2.639,0,0,0,73.65,73.57c2.256.33,2.388-1.319,3.127-2.837a5.528,5.528,0,0,1,5.9-3.443A2.639,2.639,0,0,0,85.55,64.941Z" transform="translate(8206.123 5959.255)" fill="#b03b2e"/>
    <path id="Path_10454" data-name="Path 10454" d="M83.887,93.2a10.555,10.555,0,0,0,13.035-6.517,2.641,2.641,0,0,0-5-1.7c-1.451,4.235-5.805,3.351-6.663,3.127A2.639,2.639,0,0,0,83.94,93.2Z" transform="translate(8209.567 5966.036)" fill="#b03b2e"/>
    <path id="Path_10455" data-name="Path 10455" d="M39.378,83.341c-3.958,2.137-6.6-1.451-7.032-2.2A2.639,2.639,0,0,0,27.9,83.909a10.555,10.555,0,0,0,14.011,3.958,2.639,2.639,0,1,0-2.52-4.631Z" transform="translate(8192.161 5965.065)" fill="#b03b2e"/>
    <path id="Path_10456" data-name="Path 10456" d="M14.8,83.7a2.639,2.639,0,0,0,2.639,4.565c3.879-2.243,6.6,1.319,7.085,2.019a2.638,2.638,0,1,0,4.38-2.942C26.947,84.41,21.459,79.845,14.8,83.7Z" transform="translate(8187.665 5965.725)" fill="#b03b2e"/>
    <path id="Path_10457" data-name="Path 10457" d="M73.771,89.113c-.528.145-5.145,1.319-6.6-3.14a2.641,2.641,0,0,0-5,1.7,10.555,10.555,0,0,0,13.008,6.531,2.639,2.639,0,1,0-1.319-5.093Z" transform="translate(8203.139 5966.352)" fill="#b03b2e"/>
    <path id="Path_10458" data-name="Path 10458" d="M97.554,74.941a2.639,2.639,0,0,0-2.362-2.929c-3.523-.356-10.555.976-11.782,8.562a2.639,2.639,0,0,0,2.111,3.087h.435a2.639,2.639,0,0,0,2.639-2.2c.739-4.42,5.172-4.261,6.069-4.182A2.639,2.639,0,0,0,97.554,74.941Z" transform="translate(8209.95 5962.449)" fill="#b03b2e"/>
    <path id="Path_10459" data-name="Path 10459" d="M103.364,88.782a2.81,2.81,0,0,0-.449,5.132c1.939.91,4.235-1.227,5.5-2.467,2.771-2.7,5.119-5.752,4.3-9.789a2.639,2.639,0,0,0-5.172,1.042C108.417,87.093,104.221,88.531,103.364,88.782Z" transform="translate(8215.725 5964.889)" fill="#b03b2e"/>
    <path id="Path_10460" data-name="Path 10460" d="M6.646,101.441a2.639,2.639,0,0,0,2.81-2.454C10.472,84.066,20.01,82.126,35.842,78.933l4.71-.963a2.639,2.639,0,0,0,1.781-1.319,47.06,47.06,0,0,1,5.99-8.734L44.273,64.5a52.364,52.364,0,0,0-5.924,8.576l-3.47.712C19.1,76.941,5.485,79.672,4.192,98.618a2.639,2.639,0,0,0,2.454,2.823Z" transform="translate(8184.667 5960.066)" fill="#b03b2e"/>
    <path id="Path_10461" data-name="Path 10461" d="M60.355,56.728a49.462,49.462,0,0,1,9.657-.95,47.72,47.72,0,0,1,43.063,26.254,2.639,2.639,0,0,0,1.583,1.319c2.573.792,4.987,1.451,7.335,2.1,12.507,3.417,19.394,5.277,20.252,17.982a2.639,2.639,0,0,0,2.639,2.454h.185a2.639,2.639,0,0,0,2.454-2.81c-1.121-16.426-11.782-19.341-24.13-22.719-1.979-.541-3.958-1.1-6.108-1.728A52.984,52.984,0,0,0,70.012,50.5a54.34,54.34,0,0,0-18.891,3.39l1.133,1.122A23.4,23.4,0,0,1,60.355,56.728Z" transform="translate(8199.654 5955.595)" fill="#b03b2e"/>
    <path id="Path_10462" data-name="Path 10462" d="M52.749,77.815c0,5.027,2.731,10.555,7.362,14.631a23.233,23.233,0,0,0,7.916,4.7,6.148,6.148,0,0,0,1.187,4.261c0-.726,4.3-2.639,4.169-3.1-.594-2.045,2.2-3.206,3.549-3.958a5.5,5.5,0,0,0,2.85-5.145,9.235,9.235,0,0,1,1.4-4.855c.976-1.412,2.968-2.744,2.045-4.71a23.431,23.431,0,0,0-5.594-7.349c-4.591-4.064-10.291-6.122-15.2-5.515L26.811,31.3a2.639,2.639,0,0,0-3.72,0L13.5,40.887a2.625,2.625,0,0,0,.158,3.879Z" transform="translate(8187.392 5949.219)" fill="#b03b2e"/>
    <path id="Path_10463" data-name="Path 10463" d="M114.574,74.99a2.639,2.639,0,1,0,4.275,3.061c.145-.2,13.668-19.5-8.576-41.743-6.333-6.333-9.156-12.191-8.4-17.4.963-6.663,7.652-10.383,7.784-10.462a2.641,2.641,0,0,0-2.494-4.657c-.369.2-9.116,4.961-10.555,14.3-1.042,6.966,2.282,14.354,9.882,21.953C125.5,59.039,115.01,74.356,114.574,74.99Z" transform="translate(8214.119 5940.579)" fill="#b03b2e"/>
    <path id="Path_10464" data-name="Path 10464" d="M93.524,40.408c14.592,12.256,8.219,23.669,7.916,24.144a2.639,2.639,0,1,0,4.525,2.7c.092-.158,9.064-15.66-9.09-30.9-4.327-3.628-6.676-7.7-6.979-12.125-.541-7.652,5.145-14.077,5.2-14.143a2.654,2.654,0,0,0-3.958-3.536c-.29.33-7.23,8.1-6.6,18.009C85.081,30.526,88.049,35.856,93.524,40.408Z" transform="translate(8210.313 5941.28)" fill="#b03b2e"/>
  </g>
</svg>
