<svg xmlns="http://www.w3.org/2000/svg" width="166.318" height="135.467" viewBox="0 0 166.318 135.467">
  <g id="Pickup" transform="translate(-16614.794 -9669.593)">
    <path id="Path_11941" data-name="Path 11941" d="M1119.517,1011.622l.705-.885h-1.149Z" transform="translate(15579.696 8721.648)" fill="none"/>
    <path id="Path_11942" data-name="Path 11942" d="M1081.457,382.464h0Z" transform="translate(15613.591 9287.734)" fill="none"/>
    <path id="Path_11943" data-name="Path 11943" d="M1193.784,412.3c.117.055.234.107.35.164.3.145.592.3.884.452.145.078.289.158.433.238q.274.153.543.312c.146.086.293.171.437.26q.405.25.8.514c.158.105.313.215.469.323q.209.146.416.3c.164.119.328.239.489.362.121.092.239.188.358.282q.437.345.858.707c.1.083.194.166.29.251q.258.228.51.463c.077.072.153.145.229.218q.506.483.986.992c.039.042.079.082.118.124.173.186.342.374.509.565l.161.186q.787.912,1.49,1.894l.116.163c.34.483.67.973.978,1.479h3.187c-.146-.221-.285-.448-.438-.665h0l-.048-.068h0c-.485-.681-1.012-1.326-1.559-1.952-.174-.2-.341-.4-.521-.6l-.023-.025-.009-.01h0q-.534-.571-1.108-1.112l0,0-.083-.079c-.193-.18-.4-.348-.6-.522-.6-.527-1.221-1.036-1.872-1.506l0,0-.187-.133c-.231-.163-.466-.311-.7-.465-.181-.12-.359-.247-.543-.361l-.016-.01-.058-.037q-.671-.414-1.376-.788l-.208-.106q-.589-.307-1.2-.584h0c-.113-.052-.211-.1-.3-.134h0a24.855,24.855,0,0,0-2.342-.875c-.191-.062-.378-.131-.572-.189-.119-.035-.246-.071-.383-.109q-.615-.171-1.243-.312h0l-.264-.061c.114.048.227.1.341.146Q1193.433,412.132,1193.784,412.3Z" transform="translate(15513.326 9261.274)" fill="none"/>
    <path id="Path_11944" data-name="Path 11944" d="M1206.428,549.972a26.521,26.521,0,0,1-14.059,35.3,25.007,25.007,0,0,0,17.381-35.3Z" transform="translate(15513.656 9136.806)" fill="none"/>
    <path id="Path_11945" data-name="Path 11945" d="M1346.556,466.077h0Z" transform="translate(15374.731 9212.398)" fill="none"/>
    <path id="Path_11946" data-name="Path 11946" d="M1805.707,1448.437h0a13.257,13.257,0,0,0-1.559-.294,14.742,14.742,0,0,1,.007,26.3,13.263,13.263,0,0,0,1.553-26.01Z" transform="translate(14962.432 8327.538)" fill="none"/>
    <path id="Path_11947" data-name="Path 11947" d="M1426.68,991.278h1.788a16.293,16.293,0,0,1,1.684.094,67.758,67.758,0,0,0-40.688-46.874c-.13.125-.255.254-.387.378A69.234,69.234,0,0,1,1426.68,991.278Z" transform="translate(15336.419 8781.331)" fill="none"/>
    <path id="Path_11948" data-name="Path 11948" d="M874.351,948.079A36.151,36.151,0,0,1,870,944.484q-.943.376-1.872.78a34.675,34.675,0,0,0,3.94,2.815Z" transform="translate(15805.801 8781.344)" fill="none"/>
    <path id="Path_11954" data-name="Path 11954" d="M1145.3,1060.4l.146.291v-.588Z" transform="translate(15556.066 8677.164)" fill="#1c8467"/>
    <path id="Path_11957" data-name="Path 11957" d="M1192.656,411.813l-.009,0q.176.073.349.148C1192.883,411.91,1192.77,411.861,1192.656,411.813Z" transform="translate(15513.405 9261.291)" fill="#f4aba9"/>
    <path id="Path_11958" data-name="Path 11958" d="M1216.23,423.007c-.144-.08-.287-.16-.433-.238C1215.942,422.847,1216.086,422.927,1216.23,423.007Z" transform="translate(15492.547 9251.418)" fill="#f4aba9"/>
    <path id="Path_11959" data-name="Path 11959" d="M1274.721,465.467q.506.483.986.992Q1275.227,465.95,1274.721,465.467Z" transform="translate(15439.456 9212.946)" fill="#f4aba9"/>
    <path id="Path_11960" data-name="Path 11960" d="M1238.636,436.471c-.156-.109-.31-.218-.469-.323C1238.325,436.253,1238.48,436.363,1238.636,436.471Z" transform="translate(15472.391 9239.364)" fill="#f4aba9"/>
    <path id="Path_11961" data-name="Path 11961" d="M1226.1,428.591c-.144-.089-.291-.174-.437-.26C1225.8,428.417,1225.951,428.5,1226.1,428.591Z" transform="translate(15483.662 9246.406)" fill="#f4aba9"/>
    <path id="Path_11963" data-name="Path 11963" d="M983.5,411.763q.2-.087.4-.171C983.764,411.648,983.63,411.705,983.5,411.763Z" transform="translate(15701.854 9261.488)" fill="#f4aba9"/>
    <path id="Path_11965" data-name="Path 11965" d="M995.788,407.434c.089-.033.177-.069.266-.1C995.965,407.365,995.877,407.4,995.788,407.434Z" transform="translate(15690.778 9265.327)" fill="#f4aba9"/>
    <path id="Path_11966" data-name="Path 11966" d="M1203.683,416.707c-.116-.056-.234-.109-.35-.164C1203.45,416.6,1203.568,416.65,1203.683,416.707Z" transform="translate(15503.777 9257.028)" fill="#f4aba9"/>
    <path id="Path_11967" data-name="Path 11967" d="M1247.589,442.763c-.161-.123-.325-.243-.489-.362C1247.264,442.52,1247.428,442.64,1247.589,442.763Z" transform="translate(15464.342 9233.73)" fill="#f4aba9"/>
    <path id="Path_11968" data-name="Path 11968" d="M1020.828,399.652c.095-.025.189-.052.284-.077C1021.017,399.6,1020.923,399.626,1020.828,399.652Z" transform="translate(15668.218 9272.316)" fill="#f4aba9"/>
    <path id="Path_11969" data-name="Path 11969" d="M1008.647,402.877c.12-.038.242-.075.363-.111C1008.889,402.8,1008.768,402.839,1008.647,402.877Z" transform="translate(15679.192 9269.441)" fill="#f4aba9"/>
    <path id="Path_11970" data-name="Path 11970" d="M1294.144,486.219q-.7-.981-1.49-1.894Q1293.44,485.237,1294.144,486.219Z" transform="translate(15423.298 9195.955)" fill="#f4aba9"/>
    <path id="Path_11971" data-name="Path 11971" d="M1286.39,477.306c-.168-.19-.337-.379-.51-.565Q1286.14,477.019,1286.39,477.306Z" transform="translate(15429.399 9202.788)" fill="#f4aba9"/>
    <path id="Path_11972" data-name="Path 11972" d="M1256.518,449.61q-.421-.362-.858-.707Q1256.1,449.248,1256.518,449.61Z" transform="translate(15456.63 9227.871)" fill="#f4aba9"/>
    <path id="Path_11973" data-name="Path 11973" d="M1267.768,459.047q-.252-.235-.51-.463Q1267.516,458.812,1267.768,459.047Z" transform="translate(15446.18 9219.148)" fill="#f4aba9"/>
    <path id="Path_11974" data-name="Path 11974" d="M1309.845,506.579h.008c-.308-.506-.638-1-.978-1.479Q1309.384,505.822,1309.845,506.579Z" transform="translate(15408.682 9177.236)" fill="#f4aba9"/>
    <path id="Path_11975" data-name="Path 11975" d="M915.213,449.392q.445-.383.907-.747Q915.658,449.008,915.213,449.392Z" transform="translate(15763.378 9228.104)" fill="#f4aba9"/>
    <path id="Path_11976" data-name="Path 11976" d="M972.594,416.686c.126-.062.254-.12.382-.179C972.848,416.567,972.72,416.625,972.594,416.686Z" transform="translate(15711.678 9257.061)" fill="#f4aba9"/>
    <path id="Path_11977" data-name="Path 11977" d="M927.617,442.717c.165-.126.333-.249.5-.371C927.95,442.468,927.782,442.591,927.617,442.717Z" transform="translate(15752.202 9233.778)" fill="#f4aba9"/>
    <path id="Path_11978" data-name="Path 11978" d="M907.225,459q.258-.242.524-.476Q907.484,458.758,907.225,459Z" transform="translate(15770.575 9219.202)" fill="#f4aba9"/>
    <path id="Path_11979" data-name="Path 11979" d="M936.7,436.456c.16-.112.32-.224.482-.333C937.023,436.231,936.863,436.344,936.7,436.456Z" transform="translate(15744.017 9239.386)" fill="#f4aba9"/>
    <path id="Path_11980" data-name="Path 11980" d="M959.475,422.994c.147-.082.294-.164.442-.243C959.769,422.83,959.622,422.912,959.475,422.994Z" transform="translate(15723.498 9251.435)" fill="#f4aba9"/>
    <path id="Path_11981" data-name="Path 11981" d="M949.6,428.551c.148-.091.3-.179.449-.267C949.894,428.372,949.743,428.46,949.6,428.551Z" transform="translate(15732.399 9246.449)" fill="#f4aba9"/>
    <path id="Path_11982" data-name="Path 11982" d="M933.422,466.064l-.007.008h0Z" transform="translate(15746.979 9212.409)" fill="#e24259"/>
    <path id="Path_11995" data-name="Path 11995" d="M994,1710.311h.965c-.329-.161-.65-.335-.965-.518Z" transform="translate(15692.386 8091.786)" fill="#a46a37"/>
    <path id="Path_12007" data-name="Path 12007" d="M1246.827,397.434c-.233-.1-.473-.189-.709-.284.236.1.477.183.71.285Z" transform="translate(15465.228 9274.502)"/>
    <path id="Path_12008" data-name="Path 12008" d="M1253.285,400.025h0Z" transform="translate(15458.771 9271.912)"/>
    <path id="Path_12009" data-name="Path 12009" d="M1219.968,419.486h0a24.719,24.719,0,0,0-2.341-.875,24.83,24.83,0,0,1,2.342.875Z" transform="translate(15490.898 9255.165)"/>
    <path id="Path_12010" data-name="Path 12010" d="M1253.292,400.027h0Z" transform="translate(15458.763 9271.909)"/>
    <path id="Path_12011" data-name="Path 12011" d="M1163.106,377.37h0Z" transform="translate(15540.021 9292.323)"/>
    <path id="Path_12012" data-name="Path 12012" d="M1164.517,377.52h0q-.7-.092-1.4-.149h0Q1163.821,377.428,1164.517,377.52Z" transform="translate(15540.013 9292.322)"/>
    <path id="Path_12013" data-name="Path 12013" d="M1245.493,429.392q-.589-.307-1.2-.584h0Q1244.9,429.085,1245.493,429.392Z" transform="translate(15466.874 9245.979)"/>
    <path id="Path_12014" data-name="Path 12014" d="M1258.014,402.205h0q-.665-.346-1.345-.654Q1257.348,401.861,1258.014,402.205Z" transform="translate(15455.721 9270.535)"/>
    <path id="Path_12015" data-name="Path 12015" d="M1178.439,409.271q-.756-.159-1.533-.273h0Q1177.683,409.112,1178.439,409.271Z" transform="translate(15527.588 9263.826)"/>
    <path id="Path_12016" data-name="Path 12016" d="M1125.413,406.291c-.529,0-1.062.022-1.6.057h0C1124.351,406.313,1124.884,406.291,1125.413,406.291Z" transform="translate(15575.43 9266.265)"/>
    <path id="Path_12017" data-name="Path 12017" d="M1203.344,383.59h0q-.69-.192-1.392-.349.7.157,1.392.349Z" transform="translate(15505.022 9287.034)"/>
    <path id="Path_12018" data-name="Path 12018" d="M687.311,404.348A27.991,27.991,0,1,0,740.1,391.372h0v0c-.015-.029-.033-.056-.048-.084h0v0a28.024,28.024,0,0,0-1.89-3.078l0,0-.052-.073h0c-.154-.215-.321-.42-.481-.631a28.087,28.087,0,0,0-1.844-2.221l-.011-.012-.034-.035.008.009q-.6-.643-1.237-1.241l0,0,0,0h0l-.088-.083-.01-.009h0q-.652-.61-1.343-1.177t-1.415-1.09l0,0,0,0h0l-.21-.15,0,0h0c-.254-.179-.521-.348-.783-.521-.2-.13-.387-.266-.588-.391h0l-.076-.048-.021-.013q-.76-.469-1.544-.884h0c-.1-.054-.179-.091-.229-.117h0q-.665-.346-1.345-.654c-.1-.043-.207-.1-.334-.151h0c-.233-.1-.474-.189-.71-.285-.833-.338-1.681-.648-2.55-.905-.151-.045-.294-.084-.429-.122h0q-.689-.192-1.391-.349h0c-.076-.017-.188-.046-.337-.078q-.849-.179-1.714-.3c-.166-.024-.3-.037-.393-.05h0q-.7-.092-1.4-.149h0c-.154-.012-.318-.026-.493-.037h0c-.582-.037-1.178-.063-1.791-.063s-1.209.026-1.792.063c-.176.011-.34.025-.493.037h0q-.706.057-1.4.149c-.1.013-.227.026-.392.05h0c-.276.04-.549.1-.824.147-.3.052-.6.1-.891.159h0c-.148.031-.258.06-.334.077h0q-.705.157-1.4.35h0c-.131.037-.273.076-.425.121h0c-.075.022-.147.05-.221.073-.8.244-1.579.528-2.347.839-.232.094-.468.179-.7.279h0c-.121.053-.229.1-.325.147h0q-.685.311-1.356.659c-.046.024-.121.061-.222.114h0q-.787.418-1.549.887l-.02.012-.066.042h0c-.177.11-.344.231-.518.345-.29.191-.585.378-.866.576h0l0,0-.2.143h0a28.049,28.049,0,0,0-2.766,2.274h0l-.009.008-.084.08,0,0c-.348.328-.683.672-1.015,1.019H672.911a4.258,4.258,0,0,0-3.017,1.25c-.074.074-.143.153-.211.232a4.254,4.254,0,0,0,0,5.57c.068.079.137.158.211.232a4.259,4.259,0,0,0,3.017,1.25h16.582A27.852,27.852,0,0,0,687.311,404.348Zm-14.4-13.769a1.3,1.3,0,0,1,0-2.607h22.817a1.475,1.475,0,0,0,1.093-.481c.115-.128.168-.2.17-.2h0l.019-.02.007-.007q.54-.577,1.118-1.121l0,0,.077-.073c.058-.054.12-.1.179-.157a25.077,25.077,0,0,1,2.034-1.676c.088-.065.17-.136.259-.2h0l.182-.13h0c.255-.18.514-.344.771-.513.161-.106.319-.22.482-.321l.015-.009.051-.032q.673-.415,1.381-.79l.2-.1h0q.593-.309,1.211-.589c.109-.049.206-.094.293-.132l.009,0a24.812,24.812,0,0,1,2.908-1.061h0c.113-.034.24-.069.378-.107h0q.616-.172,1.245-.312h0c.134-.031.232-.055.295-.068h0q.756-.159,1.533-.273h0c.081-.012.2-.025.35-.044h0q.621-.082,1.254-.133h0c.159-.013.306-.025.442-.034h0c.542-.034,1.075-.057,1.6-.057s1.063.022,1.6.057c.137.009.284.021.442.034h0q.631.051,1.253.133c.152.02.27.032.351.044h0q.777.114,1.533.273l.025.006.009,0,.264.061h0q.628.14,1.243.312c.137.038.265.074.383.109.193.057.381.127.572.189a24.724,24.724,0,0,1,2.342.875h0c.084.037.182.082.3.134h0q.612.278,1.2.584c.1.049.165.083.208.106q.705.375,1.376.788l.058.037.016.01c.183.114.362.241.543.361.233.154.468.3.7.465.073.052.136.1.187.133l0,0c.652.47,1.271.979,1.872,1.506.2.174.4.342.6.522l.083.079,0,0q.573.541,1.108,1.112h0l.009.01.023.025c.18.193.347.4.521.6.547.626,1.074,1.272,1.559,1.953h0l.048.068h0c.153.217.292.443.438.665H672.911Zm60.281,31.264a25.016,25.016,0,0,1-40.453-28.3h45.126a24.976,24.976,0,0,1-4.673,28.3Zm2.554-36.6h0Zm-40.886,0-.007.007h0Z" transform="translate(15985.541 9293.236)"/>
    <path id="Path_12019" data-name="Path 12019" d="M1011.068,401.529h0c-.164.074-.324.159-.486.236-.291.138-.582.273-.868.422h0q.67-.349,1.356-.659h0Z" transform="translate(15678.232 9270.557)"/>
    <path id="Path_12020" data-name="Path 12020" d="M1024.3,429c.146-.069.288-.144.435-.211q-.617.28-1.212.589h0C1023.781,429.246,1024.043,429.125,1024.3,429Z" transform="translate(15665.786 9245.993)"/>
    <path id="Path_12021" data-name="Path 12021" d="M1141.808,376.42h0c-.582-.037-1.179-.063-1.792-.063.613,0,1.209.026,1.791.063Z" transform="translate(15560.827 9293.236)"/>
    <path id="Path_12022" data-name="Path 12022" d="M1107.919,407.2q-.632.051-1.254.133h0Q1107.286,407.256,1107.919,407.2Z" transform="translate(15590.878 9265.441)"/>
    <path id="Path_12023" data-name="Path 12023" d="M1119.327,407.2h0Z" transform="translate(15579.469 9265.442)"/>
    <path id="Path_12024" data-name="Path 12024" d="M1081.454,382.464Z" transform="translate(15613.594 9287.734)"/>
    <path id="Path_12025" data-name="Path 12025" d="M1082.352,380.862c-.3.052-.6.1-.891.159h0C1081.756,380.958,1082.055,380.914,1082.352,380.862Z" transform="translate(15613.585 9289.178)"/>
    <path id="Path_12026" data-name="Path 12026" d="M1098.787,379.379h0Z" transform="translate(15597.976 9290.514)"/>
    <path id="Path_12027" data-name="Path 12027" d="M1089.167,409q-.777.114-1.533.273h0q.757-.159,1.534-.273Z" transform="translate(15608.024 9263.826)"/>
    <path id="Path_12028" data-name="Path 12028" d="M1064,383.586h0q.69-.192,1.4-.35Q1064.693,383.394,1064,383.586Z" transform="translate(15629.315 9287.038)"/>
    <path id="Path_12029" data-name="Path 12029" d="M1073.281,412.45q-.629.14-1.245.312h0Q1072.653,412.59,1073.281,412.45Z" transform="translate(15622.079 9260.716)"/>
    <path id="Path_12030" data-name="Path 12030" d="M1057.684,388c-.075.022-.146.05-.221.073.074-.023.146-.051.221-.073Z" transform="translate(15635.209 9282.747)"/>
    <path id="Path_12031" data-name="Path 12031" d="M1059.7,388h0Z" transform="translate(15633.197 9282.749)"/>
    <path id="Path_12032" data-name="Path 12032" d="M1041.726,416.7a24.817,24.817,0,0,0-2.908,1.061,24.854,24.854,0,0,1,2.908-1.061Z" transform="translate(15652.009 9256.886)"/>
    <path id="Path_12033" data-name="Path 12033" d="M270.673,978.228A16.221,16.221,0,0,0,286.9,994.454h66.119c.277,0,.547-.01.814-.023.266.013.536.023.814.023h66.12a16.218,16.218,0,0,0,4.87-31.693A70.7,70.7,0,0,0,381.944,912.1a1.482,1.482,0,0,0-1.589.348q-.933.954-1.943,1.83a32.956,32.956,0,0,1-14.08,7.229q-1.437.339-2.921.55l-1.215-2.427c0-.009-.011-.017-.016-.026-.013-.025-.028-.049-.043-.074s-.037-.061-.057-.09l-.035-.049c-.014-.017-.028-.034-.042-.051s-.043-.049-.066-.073-.031-.035-.048-.051l-.015-.013-.032-.028c-.022-.019-.045-.036-.068-.053s-.058-.046-.089-.067l-.018-.013h0l-.017-.008c-.018-.011-.037-.019-.056-.03-.038-.021-.074-.043-.114-.061l-.012,0-.035-.015c-.023-.009-.045-.015-.068-.023-.044-.015-.087-.031-.132-.042l-.024-.008-.027,0-.056-.01-.065-.011-.072-.007-.07,0-.034,0H341.757a33.2,33.2,0,0,1-8.668-6.364,1.482,1.482,0,0,0-1.589-.348c-1.386.53-2.747,1.108-4.089,1.722a70.623,70.623,0,0,0-9.074,4.99h-8.249a1.485,1.485,0,0,0-1.159.558l-.735.923-5.38,6.753a1.478,1.478,0,0,0,1.027,2.4l-2.326,4.636a70.782,70.782,0,0,0-6.6,9.875q-.871,1.574-1.658,3.2A70.025,70.025,0,0,0,287.982,962H286.9a16.31,16.31,0,0,0-2.4.179,16.227,16.227,0,0,0-13.822,16.047Zm83.973,13.263c-.242,0-.486-.008-.733-.021a13.2,13.2,0,0,1-2.785-.453q-.447-.123-.881-.276h0a13.248,13.248,0,0,1-4.918-3.081l-.043-.041a13.319,13.319,0,0,1-2.084-2.687,13.266,13.266,0,0,1,0-13.407,13.347,13.347,0,0,1,4.779-4.761h0a13.2,13.2,0,0,1,6.665-1.8h10.7v26.526h-10.7ZM300.62,942.476l3.479-6.935,3.053-6.085h45.565l-6.4,13.021H300.62Zm56.771-10.387V962h-2.745c-.248,0-.493.014-.739.025a16.134,16.134,0,0,0-5.191,1.105V944.3l5.191-10.554,3.338-6.786.146-.3v5.423ZM369.22,962h-8.867V926.564l8.867,17.7Zm-69.52,1.482V945.438h46.052v19.226c-.049.032-.1.061-.15.094-.105.071-.2.148-.308.221a16.194,16.194,0,0,0,.02,26.511H299.7Zm131.48,6.533a13.259,13.259,0,0,1-8.715,21.362,13.4,13.4,0,0,1-1.7.112H368.307V964.965h52.459a13.4,13.4,0,0,1,3.252.4h0A13.274,13.274,0,0,1,431.18,970.017Zm-49.42-54.794A67.758,67.758,0,0,1,422.449,962.1a16.26,16.26,0,0,0-1.684-.094H372.183V943.919a1.459,1.459,0,0,0-.157-.663L362.8,924.841a35.92,35.92,0,0,0,18.57-9.241C381.505,915.477,381.631,915.348,381.761,915.222Zm-26.668,7.442-1.185,1.488-1.037,1.3-.827,1.038h-45l3.755-4.714h45Zm-23.41-7.443a36.164,36.164,0,0,0,4.349,3.595H324.087q2.784-1.539,5.723-2.815Q330.739,915.6,331.682,915.221Zm-34.944,31.606V962h-5.715a67.3,67.3,0,0,1,5.715-15.176ZM286.9,964.965h9.839v26.526H286.9a13.263,13.263,0,1,1,0-26.526Z" transform="translate(16344.121 8810.606)"/>
    <path id="Path_12034" data-name="Path 12034" d="M1253.277,400.021h0Z" transform="translate(15458.778 9271.916)"/>
    <path id="Path_12035" data-name="Path 12035" d="M1163.109,377.37h0Z" transform="translate(15540.02 9292.324)"/>
    <path id="Path_12036" data-name="Path 12036" d="M1081.457,382.462h0Z" transform="translate(15613.591 9287.736)"/>
    <path id="Path_12037" data-name="Path 12037" d="M1059.677,388h0Z" transform="translate(15633.216 9282.748)"/>
  </g>
</svg>
