<svg xmlns="http://www.w3.org/2000/svg" width="67.658" height="67.658" viewBox="0 0 67.658 67.658">
  <g id="print" transform="translate(0 0)">
    <g id="Group_10391" data-name="Group 10391" transform="translate(19.954 43.74)">
      <g id="Group_10390" data-name="Group 10390">
        <path id="Path_11767" data-name="Path 11767" d="M151,331v21.936a1.982,1.982,0,0,0,1.982,1.982h23.786a1.982,1.982,0,0,0,1.982-1.982V331Zm21.8,15.857H156.947a1.982,1.982,0,0,1,0-3.964H172.8a1.982,1.982,0,0,1,0,3.964Zm0-7.929H156.947a1.982,1.982,0,0,1,0-3.964H172.8a1.982,1.982,0,0,1,0,3.964Z" transform="translate(-151 -331)" fill="#fff"/>
      </g>
    </g>
    <g id="Group_10393" data-name="Group 10393" transform="translate(0 0)">
      <g id="Group_10392" data-name="Group 10392">
        <path id="Path_11768" data-name="Path 11768" d="M61.58,19.954H59.6V17.363a5.477,5.477,0,0,0-5.47-5.47h-3.62C38.507-.107,38.909,0,37.793,0H17.972A1.981,1.981,0,0,0,15.99,1.982v9.911H13.531a5.477,5.477,0,0,0-5.47,5.47v2.59H5.947A5.953,5.953,0,0,0,0,25.9V49.686a5.953,5.953,0,0,0,5.947,5.947H15.99V43.74H14.007a1.982,1.982,0,1,1,0-3.964H53.651a1.982,1.982,0,1,1,0,3.964H51.669V55.633H61.58a6.068,6.068,0,0,0,6.079-5.947V25.9A6.067,6.067,0,0,0,61.58,19.954Zm-45.59,0H12.025v-2.59a1.508,1.508,0,0,1,1.506-1.506H15.99ZM47.7,23.918H19.954V3.964H35.811v9.911a1.981,1.981,0,0,0,1.982,1.982H47.7Zm3.964-8.061h2.458a1.508,1.508,0,0,1,1.506,1.506v2.59H51.669Zm5.947,19.954H53.651a1.982,1.982,0,0,1,0-3.964h3.964a1.982,1.982,0,0,1,0,3.964Z" transform="translate(0 0)" fill="#fff"/>
      </g>
    </g>
  </g>
</svg>
