<svg xmlns="http://www.w3.org/2000/svg" width="84" height="84" viewBox="0 0 84 84">
  <g id="Privacy_Policy" data-name="Privacy Policy" transform="translate(-94 -808)">
    <rect id="Rectangle_690" data-name="Rectangle 690" width="84" height="84" rx="36" transform="translate(94 808)" fill="#3a9e7f"/>
    <path id="Icon_awesome-shield-alt" data-name="Icon awesome-shield-alt" d="M38.084,6.866,22.332.3A3.95,3.95,0,0,0,19.3.3L3.553,6.866A3.934,3.934,0,0,0,1.125,10.5c0,16.285,9.393,27.541,18.172,31.2a3.95,3.95,0,0,0,3.027,0C29.355,38.771,40.5,28.656,40.5,10.5A3.939,3.939,0,0,0,38.084,6.866ZM20.823,36.614,20.814,5.357,35.245,11.37c-.271,12.421-6.735,21.42-14.422,25.243Z" transform="translate(115.196 828.998)" fill="#fff"/>
  </g>
</svg>
