<svg xmlns="http://www.w3.org/2000/svg" width="84" height="84" viewBox="0 0 84 84">
  <g id="Terms_Conditions" data-name="Terms &amp; Conditions" transform="translate(-94 -1004)">
    <rect id="Rectangle_690" data-name="Rectangle 690" width="84" height="84" rx="36" transform="translate(94 1004)" fill="#3a9e7f"/>
    <path id="Icon_awesome-info" data-name="Icon awesome-info" d="M1.648,34.964H3.3V23.058H1.648A1.648,1.648,0,0,1,0,21.41V17.473a1.648,1.648,0,0,1,1.648-1.648h9.231a1.648,1.648,0,0,1,1.648,1.648V34.964h1.648a1.648,1.648,0,0,1,1.648,1.648V40.55A1.648,1.648,0,0,1,14.176,42.2H1.648A1.648,1.648,0,0,1,0,40.55V36.613A1.648,1.648,0,0,1,1.648,34.964ZM7.912,0a5.934,5.934,0,1,0,5.934,5.934A5.934,5.934,0,0,0,7.912,0Z" transform="translate(129 1025)" fill="#fff"/>
  </g>
</svg>
