<svg xmlns="http://www.w3.org/2000/svg" width="205.223" height="179.155" viewBox="0 0 205.223 179.155">
  <g id="Group_10411" data-name="Group 10411" transform="translate(1137.901 141.309)">
    <path id="Path_11485" data-name="Path 11485" d="M-883.589-13.043l.221.191a4.416,4.416,0,0,0,.719-.358c8.04-6,16.314-11.715,24.048-18.085a105.5,105.5,0,0,0,23.553-27.569c9.2-15.41,13.441-32.294,13.974-50.035.3-10-.624-20.044-1.038-30.066-.1-2.365-.414-2.592-2.739-2.179-6.343,1.127-12.721,2.1-19.009,3.488-20.855,4.587-40.573,11.925-58.18,24.342C-923.926-97.879-937.866-77-944.7-51.266-948.757-36-949.951-20.44-949.364-4.677a254.49,254.49,0,0,0,4.922,40.553c.133.665.347,1.314.524,1.97a1.552,1.552,0,0,0,.692-.99c1.277-5.9,2.564-11.8,3.815-17.705,3-14.138,6.017-28.262,11.351-41.771a95.182,95.182,0,0,1,29.085-39.8c3.229-2.61,6.574-5.075,9.866-7.607C-913.186-58.472-930.5-40.3-941.757-16.165a2.053,2.053,0,0,1-.048-1.057c1.943-6.982,3.314-14.191,5.955-20.9,9.955-25.288,27.129-44.329,51.1-57.168a110.076,110.076,0,0,1,33.828-11.3c1.8-.307,2.867-.032,2.885,2.086.043,5.145.463,10.3.206,15.43-1.365,27.194-11.627,50.624-30.257,70.426C-879.88-16.738-881.753-14.908-883.589-13.043Z" transform="translate(-111.662 0)" fill="#90aa4e"/>
    <path id="Path_11486" data-name="Path 11486" d="M-1069.276,34.969a10.667,10.667,0,0,0,.505-1.3c2.756-13.651,3.969-27.378,1.787-41.234-3.346-21.249-14.306-37.151-33.4-47.294-10.806-5.74-22.459-8.705-34.452-10.606-2.05-.325-2.5.7-2.569,2.342-.171,4.064-.452,8.126-.492,12.192a61.1,61.1,0,0,0,5.853,27.621c5.523,11.414,14.534,19.626,24.751,26.7,1.147.8,2.337,1.528,3.507,2.29l.49-.6a5.967,5.967,0,0,1-1.221-.749q-19.731-19.9-18.26-47.9c.14-2.718.273-2.834,2.837-2.359a61.24,61.24,0,0,1,20.282,7.478,60.685,60.685,0,0,1,25.544,29.19c1.722,4.066,2.734,8.434,4.071,12.663l-.6.285a60.621,60.621,0,0,0-28.8-29.355,3.413,3.413,0,0,0,1.071,1.06,54.264,54.264,0,0,1,18.006,20.1,87.592,87.592,0,0,1,7.162,21.35C-1071.9,22.743-1070.646,28.635-1069.276,34.969Z" transform="translate(0 -44.919)" fill="#90aa4e"/>
    <path id="Path_11487" data-name="Path 11487" d="M-983.141-65.269c10.115.615,18.972-7.6,19.644-18.212.628-9.92-7.7-19.286-17.623-19.819-11.19-.6-19.869,7.224-20.525,18.507C-1002.238-74.606-994.014-65.93-983.141-65.269Z" transform="translate(-80.741 -22.508)" fill="#90aa4e"/>
    <path id="Path_11488" data-name="Path 11488" d="M-883.589-13.043c1.836-1.865,3.709-3.7,5.5-5.6,18.629-19.8,28.892-43.232,30.257-70.426.257-5.127-.163-10.286-.206-15.43-.017-2.118-1.081-2.392-2.885-2.086a110.076,110.076,0,0,0-33.828,11.3c-23.972,12.839-41.146,31.88-51.1,57.168-2.641,6.709-4.012,13.917-5.955,20.9a2.053,2.053,0,0,0,.048,1.057C-930.5-40.3-913.186-58.472-889.11-70.026c-3.292,2.532-6.637,5-9.866,7.607a95.182,95.182,0,0,0-29.085,39.8c-5.334,13.509-8.355,27.633-11.351,41.771-1.251,5.906-2.537,11.8-3.815,17.705a1.552,1.552,0,0,1-.692.99c-.176-.657-.391-1.305-.524-1.97a254.49,254.49,0,0,1-4.922-40.553c-.587-15.763.607-31.327,4.662-46.589,6.837-25.731,20.776-46.613,42.662-62.046,17.607-12.417,37.325-19.755,58.18-24.342,6.288-1.383,12.666-2.361,19.009-3.488,2.325-.413,2.641-.186,2.739,2.179.414,10.022,1.338,20.063,1.038,30.066-.533,17.74-4.774,34.625-13.974,50.035A105.5,105.5,0,0,1-858.6-31.294c-7.735,6.37-16.009,12.085-24.048,18.085a4.416,4.416,0,0,1-.719.358Z" transform="translate(-111.662 0)" fill="#90aa4e"/>
    <path id="Path_11489" data-name="Path 11489" d="M-1069.276,34.969c-1.37-6.334-2.622-12.226-3.923-18.108a87.592,87.592,0,0,0-7.162-21.35,54.264,54.264,0,0,0-18.006-20.1,3.413,3.413,0,0,1-1.071-1.06,60.621,60.621,0,0,1,28.8,29.355l.6-.285c-1.336-4.23-2.348-8.6-4.071-12.663a60.685,60.685,0,0,0-25.544-29.19,61.239,61.239,0,0,0-20.282-7.478c-2.565-.476-2.7-.359-2.837,2.359q-1.445,27.977,18.26,47.9a5.967,5.967,0,0,0,1.221.749l-.49.6c-1.17-.762-2.359-1.5-3.507-2.29-10.217-7.076-19.228-15.288-24.751-26.7a61.1,61.1,0,0,1-5.853-27.621c.041-4.065.321-8.128.492-12.192.069-1.642.519-2.666,2.569-2.342,11.992,1.9,23.646,4.866,34.452,10.606,19.094,10.143,30.054,26.045,33.4,47.294,2.182,13.857.969,27.584-1.787,41.234A10.667,10.667,0,0,1-1069.276,34.969Z" transform="translate(0 -44.919)" fill="#90aa4e"/>
    <path id="Path_11490" data-name="Path 11490" d="M-983.141-65.269c-10.874-.661-19.1-9.337-18.5-19.525.656-11.282,9.335-19.108,20.525-18.507,9.923.534,18.252,9.9,17.623,19.819C-964.169-72.865-973.026-64.654-983.141-65.269Z" transform="translate(-80.741 -22.508)" fill="#90aa4e"/>
  </g>
</svg>
