<svg xmlns="http://www.w3.org/2000/svg" width="185.276" height="185.174" viewBox="0 0 185.276 185.174">
  <g id="Group_10410" data-name="Group 10410" transform="translate(-23.275 124.286)">
    <path id="Path_11483" data-name="Path 11483" d="M154.853-48.716a14.869,14.869,0,0,0-.038-3.41c-1.16-4.716-2.3-9.449-3.748-14.081-1.436-4.594-3.114-9.1-3.364-13.975a31.581,31.581,0,0,1,3.291-15.4,1.9,1.9,0,0,1,1.715-.66c3.928,1.312,4.076,1.676,2.6,5.5a25.532,25.532,0,0,0-.461,17.082c1.992,6.563,3.9,13.153,5.848,19.729a8.544,8.544,0,0,0,.449.976c.808-.344,1.548-.632,2.265-.967,7.67-3.581,15.516-4.828,23.562-1.41a28.367,28.367,0,0,1,14.574,14.266C211.609-20.239,211.283.032,197.6,19.344A42.522,42.522,0,0,1,187.012,29.6c-.593.413-1.136.9-1.884,1.494.85.693,1.518,1.228,2.175,1.774,3.214,2.674,6.536,5.233,9.592,8.077a20.786,20.786,0,0,1,3.928,5.2c2.258,4.121,1.206,8.247-2.986,10.348a34.4,34.4,0,0,1-9.561,3.046,113.746,113.746,0,0,1-28.212.878C148,59.439,135.929,58.385,123.918,56.9c-11.162-1.377-22.241-3.455-32.8-7.507a70.112,70.112,0,0,1-10.606-5.109,18.6,18.6,0,0,1-9.155-12.48A9.064,9.064,0,0,0,70.8,30.5c-.792.71-1.49,1.266-2.106,1.9-4.846,4.99-9.881,9.761-16,13.187-3.7,2.069-7.575,3.585-11.969,2.782-6.211-1.134-11.2-5.759-12.234-11.452a11.1,11.1,0,0,1,2.751-9.4A51.336,51.336,0,0,1,36.761,22.5c.5-.44,1.087-.784,1.94-1.389-.887-.5-1.528-.8-2.11-1.193-3.142-2.115-6.658-3.855-9.323-6.463C21.51,7.817,22.1-.846,28.26-6.061a4.336,4.336,0,0,0,1.5-3.774c-.016-21.559.012-43.118-.039-64.677a8.531,8.531,0,0,1,1.823-5.518c5.385-7.052,10.722-14.143,15.948-21.313a7.758,7.758,0,0,0,1.345-4.093c.16-4.932.049-9.872.071-14.808.014-3.031,1.017-4.029,4.076-4.031q27.746-.017,55.491,0c3.009,0,3.9.914,3.918,3.937.023,4.749.073,9.5-.021,14.247a7.775,7.775,0,0,0,1.7,5.169c5.386,7.051,10.654,14.193,16.019,21.26a6.921,6.921,0,0,1,1.5,4.492c-.059,5.061-.033,10.123-.009,15.185.011,2.458.2,2.6,2.634,2.849,6.659.683,12.421,3.589,17.874,7.252.568.382,1.157.736,1.754,1.073A4.024,4.024,0,0,0,154.853-48.716Zm25.073,84.078c-.592,2-1.123,3.78-1.641,5.561-1.151,3.951-1.131,3.9-5.072,2.646-1.374-.436-1.588-1.145-1.212-2.376.749-2.449,1.355-4.945,2.187-7.364.551-1.6.134-2.473-1.314-3.327A349.383,349.383,0,0,0,124.623,6.83c-2.78-1.107-2.79-1.084-3.648,1.881-2.136,7.381-4.307,14.752-6.38,22.15-.459,1.639-1.207,2.211-2.8,1.535a9.727,9.727,0,0,0-1.08-.311c-2.493-.735-2.487-.734-1.766-3.218,2.229-7.679,4.433-15.365,6.7-23.034.412-1.4.24-2.307-1.318-2.64C108.838,2.021,103.4.414,97.855-.238c-8.443-.993-13.3,1.959-16.539,9.816A81.915,81.915,0,0,0,77.294,23c-1.465,6.6.132,12.295,6.127,16.177a31.685,31.685,0,0,0,3.9,2.229c14.753,6.8,30.642,8.806,46.5,10.93a1.687,1.687,0,0,0,2.057-1.417c.618-2.227,1.285-4.441,1.932-6.66,1.056-3.622,1.038-3.562,4.674-2.484,1.587.47,1.936,1.269,1.444,2.771-.7,2.136-1.292,4.308-1.889,6.476-.538,1.954-.3,2.264,1.768,2.437,2.178.182,4.356.35,6.535.522,10.219.806,20.452,1.4,30.688.518A67.81,67.81,0,0,0,191.9,52.68c4.753-1.211,5.337-3.05,1.788-6.452-3.859-3.7-8.212-6.883-12.365-10.273A6.93,6.93,0,0,0,179.926,35.362ZM40.276-3.843l-.078.5a25.7,25.7,0,0,0-3.366.023c-3.3.439-5.994,1.816-7.119,5.218s.095,6.183,2.659,8.362A22.231,22.231,0,0,0,37.5,13.645c3.406,1.535,6.949,2.77,10.455,4.074,1.453.542,2.584,1.265,2.6,3.009s-1.118,2.5-2.546,3.069A35.062,35.062,0,0,0,42,26.379a28.109,28.109,0,0,0-6.3,5.163C33.346,34.3,33.921,37.678,36.736,40c3.122,2.572,6.609,3.528,10.443,1.681a25.238,25.238,0,0,0,5.353-3.046c4.489-3.762,8.847-7.686,13.161-11.65,3.941-3.621,6.876-7.875,7.708-13.335.149-.979.628-1.9.8-2.882a9.5,9.5,0,0,0,.23-3.119c-.749-4.552-1.454-9.124-2.5-13.612-1.323-5.666-3.136-11.183-6.465-16.071-2.4-3.525-5.8-4.567-9.808-3.889-3.735.632-5.732,3-5.156,6.725a27.226,27.226,0,0,0,2.547,7.536c.993,2.051,2.756,3.721,3.831,5.744a5.017,5.017,0,0,1,.3,3.623C56.7-.937,55.214-.736,53.806-1.084c-.787-.194-1.567-.429-2.362-.586C47.724-2.406,44-3.121,40.276-3.843Zm69.2-93.146c-.7.849-1.2,1.4-1.642,1.991-4.354,5.793-8.667,11.617-13.073,17.371a7.174,7.174,0,0,0-1.526,4.654q.061,31.019.034,62.038c0,5.261-.535,4.628,4.733,4.758,2.352.058,2.4.031,2.278-2.4a62.647,62.647,0,0,1,4.5-27.876c3.877-9.193,9.579-16.683,19.564-19.9,1.332-.429,1.42-1.387,1.418-2.5-.007-4.873.083-9.749-.062-14.617a7.114,7.114,0,0,0-1.272-3.752c-4.407-6.063-8.949-12.029-13.454-18.021C110.564-95.768,110.1-96.253,109.471-96.989ZM79.443.2c2.2-1.557,4.083-3.079,6.151-4.294A3.073,3.073,0,0,0,87.408-7.03q-.031-19.3.007-38.6c0-1.73-.624-2.421-2.429-2.416q-23.514.074-47.029,0c-1.819-.006-2.426.727-2.4,2.448.06,3.434.011,6.87.011,10.305q0,11.617.006,23.234c0,2.607.078,2.607,2.576,2.588,1.743-.014,3.488.124,5.23.224,1.257.072,2.512.194,3.976.31C46.5-11.3,45.617-13.3,45.043-15.387,43.221-22,45.456-27.843,50.715-30.54c5.722-2.935,13.7-1.7,17.887,3.165a28.153,28.153,0,0,1,5.033,8.031c2,5.224,3.384,10.687,5,16.059C78.963-2.176,79.16-1.026,79.443.2ZM61.57-73.538c-7.864,0-15.73.042-23.594-.032-1.809-.017-2.435.66-2.416,2.4q.083,7.489,0,14.98c-.016,1.678.678,2.346,2.344,2.343q23.594-.037,47.188,0c1.7,0,2.326-.729,2.313-2.366q-.061-7.49,0-14.98c.017-1.744-.638-2.4-2.435-2.382C77.175-73.5,69.373-73.538,61.57-73.538Zm41.6-25.415a20.517,20.517,0,0,0-2.377-.319q-22.673-.022-45.347-.024a3.753,3.753,0,0,0-3.3,1.7c-3.93,5.328-7.934,10.6-11.9,15.906a21.323,21.323,0,0,0-1.122,1.926c.966.065,1.576.142,2.186.142,15.178.007,30.357-.013,45.535.033a3.687,3.687,0,0,0,3.285-1.682c3.9-5.273,7.858-10.5,11.787-15.753C102.286-97.511,102.587-98.045,103.173-98.953ZM153.762-28.3a17.11,17.11,0,0,0,12-4.79c3.1-3.118,3.069-3.387-.654-5.514a3.62,3.62,0,0,1-.484-.283c-1.319-1.058-2.257-.835-3.42.484a9.147,9.147,0,0,1-13.079.818c-2.566-2.236-2.566-2.236-5.627-.444-.161.095-.326.184-.486.281-1.838,1.11-1.9,1.381-.521,3.132A16.2,16.2,0,0,0,153.762-28.3Z" fill="#3f96ce"/>
    <path id="Path_11484" data-name="Path 11484" d="M305.895-28.754A15.992,15.992,0,0,1,293.318-35.7a3.859,3.859,0,0,1-.056-4.826c6.051-9.225,20.119-9.227,26.178,0a3.89,3.89,0,0,1-.051,4.826A16.463,16.463,0,0,1,305.895-28.754Zm.417-12.743a9.137,9.137,0,0,0-6.346,2.338c-.788.68-.762,1.278-.023,2.026,3.02,3.051,9.6,3.089,12.75.073.818-.783.872-1.419-.009-2.155A9.216,9.216,0,0,0,306.311-41.5Z" transform="translate(-134.584 -38.419)" fill="#3f96ce"/>
  </g>
</svg>
