<svg xmlns="http://www.w3.org/2000/svg" width="83.439" height="75.507" viewBox="0 0 83.439 75.507">
  <g id="iconfinder_messaging_2428665" transform="translate(0.5 0.5)">
    <path id="Path_235" data-name="Path 235" d="M26.908,80.381a1.908,1.908,0,0,0,1.908-1.908V39.589a3.553,3.553,0,0,1,3.544-3.554h73.17a1.908,1.908,0,1,0,0-3.816H32.36A7.373,7.373,0,0,0,25,39.589V78.473A1.908,1.908,0,0,0,26.908,80.381Z" transform="translate(-25 -32.218)" stroke="#000" stroke-linejoin="round" stroke-width="1"/>
    <path id="Path_236" data-name="Path 236" d="M105.531,54.44a1.908,1.908,0,0,0-1.908,1.908V95.232a3.553,3.553,0,0,1-3.543,3.554H60.494c-.039,0-.075.009-.113.012a1.887,1.887,0,0,0-.254.026c-.064.013-.124.035-.186.054s-.115.03-.171.053a1.934,1.934,0,0,0-.239.125c-.03.017-.061.028-.09.047l-.014.009h0l-18.4,12.163V100.7a1.908,1.908,0,0,0-1.908-1.908H26.908a1.908,1.908,0,0,0,0,3.816h10.3v12.221a1.909,1.909,0,0,0,2.961,1.592L61.069,102.6h39.011a7.373,7.373,0,0,0,7.36-7.371V56.348A1.909,1.909,0,0,0,105.531,54.44Z" transform="translate(-25 -42.227)" stroke="#000" stroke-linejoin="round" stroke-width="1"/>
  </g>
</svg>
