<svg xmlns="http://www.w3.org/2000/svg" width="84.443" height="82.945" viewBox="0 0 84.443 82.945">
  <g id="iconfinder_Home_2202277" transform="translate(1 1)">
    <g id="Path_234" data-name="Path 234" transform="translate(-2 -2.8)" fill="#3a9e7f" stroke-linejoin="round">
      <path d="M 78.82273864746094 84.24494934082031 L 60.08549118041992 84.24494934082031 C 58.41136932373047 84.24494934082031 56.86343765258789 83.61900329589844 55.72684860229492 82.48239898681641 C 54.59025955200195 81.34580993652344 53.96431350708008 79.79788208007812 53.96431350708008 78.12375640869141 L 53.96431350708008 50.01787948608398 C 53.96431350708008 49.17053604125977 53.43793487548828 48.64414596557617 52.59059143066406 48.64414596557617 L 33.85333633422852 48.64414596557617 C 33.0059928894043 48.64414596557617 32.4796028137207 49.17053604125977 32.4796028137207 50.01787948608398 L 32.4796028137207 78.12375640869141 C 32.4796028137207 79.79788208007812 31.85365867614746 81.34580993652344 30.71706962585449 82.48239898681641 C 29.58048057556152 83.61900329589844 28.03255844116211 84.24494934082031 26.35842514038086 84.24494934082031 L 7.621180534362793 84.24494934082031 C 5.947058200836182 84.24494934082031 4.399124622344971 83.61900329589844 3.26253604888916 82.48239898681641 C 2.125946998596191 81.34580993652344 1.50000262260437 79.79788208007812 1.50000262260437 78.12375640869141 L 1.50000262260437 44.02194595336914 C 1.50000262260437 42.39255905151367 2.116647005081177 40.94974517822266 3.332802534103394 39.73357009887695 L 38.93357849121094 4.13280200958252 C 40.115478515625 2.950901985168457 41.63844680786133 2.300002098083496 43.22195816040039 2.300002098083496 C 44.80545806884766 2.300002098083496 46.32843780517578 2.950901985168457 47.51033782958984 4.13280200958252 L 83.11111450195312 39.73357009887695 C 84.3272705078125 40.94974517822266 84.94391632080078 42.39255905151367 84.94391632080078 44.02194595336914 L 84.94391632080078 78.12375640869141 C 84.94391632080078 79.79788208007812 84.31797027587891 81.34580993652344 83.18138122558594 82.48239898681641 C 82.04479217529297 83.61900329589844 80.49685668945312 84.24494934082031 78.82273864746094 84.24494934082031 Z M 33.85333633422852 43.89670181274414 L 52.59059143066406 43.89670181274414 C 54.26471328735352 43.89670181274414 55.81263732910156 44.52264785766602 56.94922637939453 45.65923690795898 C 58.0858154296875 46.79582595825195 58.71175765991211 48.34375762939453 58.71175765991211 50.01787948608398 L 58.71175765991211 78.12375640869141 C 58.71175765991211 78.97109985351562 59.2381477355957 79.49748229980469 60.08549118041992 79.49748229980469 L 78.82273864746094 79.49748229980469 C 79.67008209228516 79.49748229980469 80.19647216796875 78.97109985351562 80.19647216796875 78.12375640869141 L 80.19647216796875 44.02194595336914 C 80.19647216796875 43.62149047851562 80.08769989013672 43.37079238891602 79.78079986572266 43.06390380859375 L 44.18001556396484 7.46312427520752 C 43.91196823120117 7.195068836212158 43.57171249389648 7.047457695007324 43.22195816040039 7.047457695007324 C 42.8721923828125 7.047457695007324 42.53195953369141 7.195068836212158 42.26391220092773 7.46312427520752 L 6.663125038146973 43.06390380859375 C 6.35622501373291 43.37079238891602 6.247457981109619 43.62149047851562 6.247457981109619 44.02194595336914 L 6.247457981109619 78.12375640869141 C 6.247457981109619 78.97109985351562 6.773836135864258 79.49748229980469 7.621180534362793 79.49748229980469 L 26.35842514038086 79.49748229980469 C 27.20576858520508 79.49748229980469 27.73215866088867 78.97109985351562 27.73215866088867 78.12375640869141 L 27.73215866088867 50.01787948608398 C 27.73215866088867 48.34375762939453 28.35810279846191 46.79582595825195 29.49469184875488 45.65923690795898 C 30.63128089904785 44.52264785766602 32.17920303344727 43.89670181274414 33.85333633422852 43.89670181274414 Z" stroke="none"/>
      <path d="M 78.82273864746094 83.74494934082031 C 82.00807189941406 83.74494934082031 84.44391632080078 81.30908966064453 84.44391632080078 78.12375640869141 L 84.44391632080078 44.02194595336914 C 84.44391632080078 42.52296829223633 83.88179016113281 41.21136856079102 82.75756072998047 40.08712387084961 L 47.15678024291992 4.486357688903809 C 44.90830612182617 2.237879753112793 41.53560256958008 2.237879753112793 39.28713607788086 4.486357688903809 L 3.686358213424683 40.08712387084961 C 2.562124729156494 41.21136856079102 2.00000262260437 42.52297973632812 2.00000262260437 44.02194595336914 L 2.00000262260437 78.12375640869141 C 2.00000262260437 81.30908966064453 4.435847282409668 83.74494934082031 7.621180534362793 83.74494934082031 L 26.35842514038086 83.74494934082031 C 29.54376983642578 83.74494934082031 31.9796028137207 81.30908966064453 31.9796028137207 78.12375640869141 L 31.9796028137207 50.01787948608398 C 31.9796028137207 48.89363479614258 32.72910308837891 48.14414596557617 33.85333633422852 48.14414596557617 L 52.59059143066406 48.14414596557617 C 53.71482467651367 48.14414596557617 54.46431350708008 48.89363479614258 54.46431350708008 50.01787948608398 L 54.46431350708008 78.12375640869141 C 54.46431350708008 81.30908966064453 56.9001579284668 83.74494934082031 60.08549118041992 83.74494934082031 L 78.82273864746094 83.74494934082031 M 33.85333633422852 44.39670181274414 C 30.66799163818359 44.39670181274414 28.23215866088867 46.83254623413086 28.23215866088867 50.01787948608398 L 28.23215866088867 78.12375640869141 C 28.23215866088867 79.24799346923828 27.48266983032227 79.99748229980469 26.35842514038086 79.99748229980469 L 7.621180534362793 79.99748229980469 C 6.496946811676025 79.99748229980469 5.747457981109619 79.24799346923828 5.747457981109619 78.12375640869141 L 5.747457981109619 44.02194595336914 C 5.747457981109619 43.45983505249023 5.93482494354248 43.08509063720703 6.309569358825684 42.71034622192383 L 41.91035842895508 7.10956859588623 C 42.65983581542969 6.360077381134033 43.78407669067383 6.360083103179932 44.5335693359375 7.10956859588623 L 80.13436126708984 42.71034622192383 C 80.50910186767578 43.08509063720703 80.69647216796875 43.45983505249023 80.69647216796875 44.02194595336914 L 80.69647216796875 78.12375640869141 C 80.69647216796875 79.24799346923828 79.94696807861328 79.99748229980469 78.82273864746094 79.99748229980469 L 60.08549118041992 79.99748229980469 C 58.96125793457031 79.99748229980469 58.21175765991211 79.24799346923828 58.21175765991211 78.12375640869141 L 58.21175765991211 50.01787948608398 C 58.21175765991211 46.83254623413086 55.77591323852539 44.39670181274414 52.59059143066406 44.39670181274414 L 33.85333633422852 44.39670181274414 M 78.82273864746094 84.74494934082031 L 60.08549118041992 84.74494934082031 C 58.27781295776367 84.74494934082031 56.60432434082031 84.06699371337891 55.373291015625 82.83596038818359 C 54.14226913452148 81.60492706298828 53.46431350708008 79.93143463134766 53.46431350708008 78.12375640869141 L 53.46431350708008 50.01787948608398 C 53.46431350708008 49.44628143310547 53.16218185424805 49.14414596557617 52.59059143066406 49.14414596557617 L 33.85333633422852 49.14414596557617 C 33.28173446655273 49.14414596557617 32.9796028137207 49.44628143310547 32.9796028137207 50.01787948608398 L 32.9796028137207 78.12375640869141 C 32.9796028137207 79.93143463134766 32.3016471862793 81.60493469238281 31.07062530517578 82.83596038818359 C 29.83960342407227 84.06699371337891 28.16611289978027 84.74494934082031 26.35842514038086 84.74494934082031 L 7.621180534362793 84.74494934082031 C 5.813502788543701 84.74494934082031 4.140013694763184 84.06699371337891 2.908980369567871 82.83596038818359 C 1.677958130836487 81.60492706298828 1.00000262260437 79.93143463134766 1.00000262260437 78.12375640869141 L 1.00000262260437 44.02194595336914 C 1.00000262260437 42.25513458251953 1.665913701057434 40.69336700439453 2.979247093200684 39.38002395629883 L 38.58002471923828 3.77924656867981 C 39.85636901855469 2.502912998199463 41.50490188598633 1.800001978874207 43.22195816040039 1.800001978874207 C 44.93901443481445 1.800001978874207 46.58754730224609 2.502912998199463 47.8638916015625 3.77924656867981 L 83.46466827392578 39.38001251220703 C 84.77799987792969 40.69336700439453 85.44391632080078 42.25513458251953 85.44391632080078 44.02194595336914 L 85.44391632080078 78.12375640869141 C 85.44391632080078 79.93143463134766 84.76596069335938 81.60492706298828 83.53493499755859 82.83596038818359 C 82.30390167236328 84.06699371337891 80.63041687011719 84.74494934082031 78.82273864746094 84.74494934082031 Z M 33.85333633422852 43.39670181274414 L 52.59059143066406 43.39670181274414 C 54.39826965332031 43.39670181274414 56.07175827026367 44.07465744018555 57.30278015136719 45.30567932128906 C 58.5338020324707 46.53671264648438 59.21175765991211 48.21020126342773 59.21175765991211 50.01787948608398 L 59.21175765991211 78.12375640869141 C 59.21175765991211 78.69534301757812 59.51389312744141 78.99748229980469 60.08549118041992 78.99748229980469 L 78.82273864746094 78.99748229980469 C 79.39433288574219 78.99748229980469 79.69647216796875 78.69534301757812 79.69647216796875 78.12375640869141 L 79.69647216796875 44.02194595336914 C 79.69647216796875 43.75873565673828 79.63860321044922 43.62880325317383 79.42724609375 43.41745758056641 L 43.82645797729492 7.816679954528809 C 43.65033721923828 7.640546321868896 43.44130325317383 7.547457695007324 43.22195816040039 7.547457695007324 C 43.00261306762695 7.547457695007324 42.7935905456543 7.640546321868896 42.61746978759766 7.816679954528809 L 7.016680240631104 43.41745758056641 C 6.805325031280518 43.62880325317383 6.747457981109619 43.75873565673828 6.747457981109619 44.02194595336914 L 6.747457981109619 78.12375640869141 C 6.747457981109619 78.69534301757812 7.049591541290283 78.99748229980469 7.621180534362793 78.99748229980469 L 26.35842514038086 78.99748229980469 C 26.93002510070801 78.99748229980469 27.23215866088867 78.69534301757812 27.23215866088867 78.12375640869141 L 27.23215866088867 50.01787948608398 C 27.23215866088867 48.21020126342773 27.91011428833008 46.53671264648438 29.14113616943359 45.30567932128906 C 30.37215805053711 44.07465744018555 32.04564666748047 43.39670181274414 33.85333633422852 43.39670181274414 Z" stroke="none" fill="#3a9e7f"/>
    </g>
  </g>
</svg>
