<svg id="iconfinder_logout_7148708" xmlns="http://www.w3.org/2000/svg" width="74.307" height="74.494" viewBox="0 0 74.307 74.494">
  <path id="Path_237" data-name="Path 237" d="M37.537,74.744a37.247,37.247,0,0,1,0-74.494,2.7,2.7,0,1,1,0,5.4,31.849,31.849,0,0,0,0,63.7,2.7,2.7,0,1,1,0,5.4Z" transform="translate(-0.29 -0.25)"/>
  <path id="Path_238" data-name="Path 238" d="M54.868,21.648H16.7a2.7,2.7,0,0,1,0-5.4H54.868a2.7,2.7,0,1,1,0,5.4Z" transform="translate(15.603 18.298)"/>
  <path id="Path_239" data-name="Path 239" d="M27.986,47.159a2.7,2.7,0,0,1-1.909-4.608L39.862,28.765a1.3,1.3,0,0,0,0-1.812L26.078,13.177A2.7,2.7,0,1,1,29.9,9.353L43.671,23.138a6.694,6.694,0,0,1,0,9.445L29.9,46.369A2.69,2.69,0,0,1,27.986,47.159Z" transform="translate(28.685 9.387)"/>
</svg>
