<svg xmlns="http://www.w3.org/2000/svg" width="75.949" height="83.426" viewBox="0 0 75.949 83.426">
  <path id="iconfinder_43.Bell_290107" d="M48.934,76.841c0,.036.011.067.011.1a7.471,7.471,0,1,1-14.941,0c0-.036.009-.067.009-.1C10.121,76.185,4,72.293,4,67.577a5.12,5.12,0,0,1,2.213-4.111c11.295-12.582,14.651-9.1,14.651-27.737,0-12.427.508-23.819,15.473-25.871a5.6,5.6,0,1,1,10.276,0C61.578,11.911,62.085,23.3,62.085,35.73c0,18.694,3.373,15.127,14.75,27.844a5.058,5.058,0,0,1,2.114,4C78.949,72.29,72.666,76.181,48.934,76.841Zm-7.459,3.852a3.74,3.74,0,0,0,3.736-3.744c0-.011,0-.022,0-.034-1.22.017-2.428.036-3.732.036s-2.511-.019-3.732-.036c0,.011,0,.022,0,.034A3.74,3.74,0,0,0,41.475,80.693Zm0-74.942a1.873,1.873,0,1,0,1.868,1.872A1.868,1.868,0,0,0,41.475,5.752ZM74.461,66.474s-2.852-3.212-7.529-7.465c-6.386-5.818-8.595-8.576-8.595-23.279,0-14.36-.783-22.485-16.864-22.485S24.611,21.369,24.611,35.73c0,14.7-2.211,17.465-8.6,23.285C11.426,63.191,8.542,66.4,8.542,66.4c-.794.631-.794,1-.794,1.177,0,.23.384,5.627,33.727,5.627S75.2,67.808,75.2,67.577C75.2,67.427,75.2,67.077,74.461,66.474Z" transform="translate(-3.5 -1.51)" stroke="#000" stroke-linejoin="round" stroke-width="1" fill-rule="evenodd"/>
</svg>
