<svg xmlns="http://www.w3.org/2000/svg" width="90.068" height="77.382" viewBox="0 0 90.068 77.382">
  <g id="layer1" transform="translate(0.5 0.5)">
    <g id="g4855">
      <path id="rect4392" d="M7622.411,12892.6a7.644,7.644,0,0,0-7.625,7.623v48.966a7.64,7.64,0,0,0,7.625,7.623h27.748a1.6,1.6,0,1,0,0-3.2h-27.748a4.382,4.382,0,0,1-4.429-4.427v-48.966a4.381,4.381,0,0,1,4.429-4.424h64.406a4.381,4.381,0,0,1,4.429,4.424v15.971a1.6,1.6,0,1,0,3.2,0v-15.971a7.645,7.645,0,0,0-7.625-7.623Zm1.66,8.063a1.6,1.6,0,1,0,0,3.2h4.237a1.6,1.6,0,1,0,0-3.2Zm10.64,0a1.6,1.6,0,1,0,0,3.2h4.237a1.6,1.6,0,1,0,0-3.2Zm10.64,0a1.6,1.6,0,1,0,0,3.2h4.236a1.6,1.6,0,1,0,0-3.2Zm-20.7,8.348a1.6,1.6,0,1,0,0,3.2h59.922a1.6,1.6,0,1,0,0-3.2Zm40.105,10.339a1.6,1.6,0,0,0-1.573,1.621v8.978a1.6,1.6,0,0,0,.913,1.467,1.633,1.633,0,0,0,.813.223h10.063a1.6,1.6,0,1,0,0-3.193h-5.544a20.276,20.276,0,1,1-9.328,17.063,1.6,1.6,0,1,0-3.2,0,23.479,23.479,0,1,0,9.475-18.844v-5.693A1.6,1.6,0,0,0,7664.758,12919.347Z" transform="translate(-7614.786 -12892.598)" stroke="#000" stroke-linejoin="round" stroke-width="1"/>
    </g>
  </g>
</svg>
