<svg xmlns="http://www.w3.org/2000/svg" width="65.525" height="72.993" viewBox="0 0 65.525 72.993">
  <path id="Union_2" data-name="Union 2" d="M24.2,64.432V62.309l-.5-.176a27.013,27.013,0,0,1-8.608-4.96l-.4-.344-1.84,1.063A8.567,8.567,0,0,1,4.287,43.051l1.837-1.059-.1-.521a27.377,27.377,0,0,1,0-9.94l.1-.521L4.287,29.949a8.577,8.577,0,0,1-3.139-11.7,8.563,8.563,0,0,1,11.7-3.14l1.847,1.07.4-.346a27.008,27.008,0,0,1,8.6-4.972l.5-.177V8.562a8.562,8.562,0,0,1,17.123,0v2.123l.5.176a27,27,0,0,1,8.6,4.959l.4.345,1.84-1.063a8.567,8.567,0,0,1,8.563,14.841L59.4,31l.1.521a27.417,27.417,0,0,1,0,9.941l-.1.521,1.837,1.059.185.105a8.567,8.567,0,0,1-8.745,14.732L50.83,56.816l-.4.345a26.971,26.971,0,0,1-8.6,4.972l-.5.177v2.122a8.562,8.562,0,0,1-17.123,0Zm-7.476-12.2a22.425,22.425,0,0,0,10.413,6.034,2.354,2.354,0,0,1,1.768,2.281v3.886a3.854,3.854,0,0,0,7.708,0v-3.89a2.355,2.355,0,0,1,1.769-2.281A22.423,22.423,0,0,0,48.8,52.241a2.353,2.353,0,0,1,2.861-.388L55.029,53.8a3.855,3.855,0,0,0,3.854-6.678l-3.365-1.943a2.353,2.353,0,0,1-1.092-2.668,22.646,22.646,0,0,0,0-12.039,2.355,2.355,0,0,1,1.089-2.652l3.364-1.942a3.856,3.856,0,0,0,1.411-5.265,3.851,3.851,0,0,0-5.265-1.41L51.66,21.151a2.354,2.354,0,0,1-2.859-.388,22.447,22.447,0,0,0-10.416-6.035,2.352,2.352,0,0,1-1.768-2.281V8.562a3.854,3.854,0,1,0-7.708,0v3.889a2.351,2.351,0,0,1-1.769,2.29A22.431,22.431,0,0,0,16.729,20.76a2.337,2.337,0,0,1-1.675.7,2.361,2.361,0,0,1-1.184-.32L10.5,19.188a3.855,3.855,0,0,0-3.854,6.679l3.364,1.943a2.354,2.354,0,0,1,1.1,2.655,22.646,22.646,0,0,0,0,12.039,2.355,2.355,0,0,1-1.092,2.668L6.647,47.114A3.854,3.854,0,1,0,10.5,53.789l3.365-1.947a2.359,2.359,0,0,1,1.178-.317A2.331,2.331,0,0,1,16.726,52.231ZM21.1,36.5A11.665,11.665,0,1,1,32.764,48.162,11.679,11.679,0,0,1,21.1,36.5Zm4.708,0a6.957,6.957,0,1,0,6.958-6.958A6.965,6.965,0,0,0,25.806,36.5Z"/>
</svg>
